<?xml version="1.0" encoding="utf-8"?>
<svg viewBox="0 0 48 48" width="48px" height="48px" xmlns="http://www.w3.org/2000/svg">
  <path fill="#F4511E" d="M 46.989 21.6 L 26.4 1.011 C 25.769 0.38 24.884 0 24 0 C 24 0 24 0 24 0 C 23.116 0 22.231 0.38 21.6 1.011 L 17.18 5.431 L 22.358 10.611 C 22.864 10.358 23.369 10.231 24 10.231 C 26.147 10.231 27.789 11.874 27.789 14.02 C 27.789 14.653 27.664 15.158 27.411 15.664 L 32.464 20.716 C 32.969 20.464 33.474 20.336 34.105 20.336 C 36.253 20.336 37.895 21.98 37.895 24.126 C 37.895 26.274 36.253 27.916 34.105 27.916 C 31.958 27.916 30.316 26.274 30.316 24.126 C 30.316 23.495 30.442 22.989 30.695 22.484 L 25.642 17.431 C 25.516 17.431 25.389 17.558 25.264 17.558 L 25.264 30.695 C 26.78 31.2 27.789 32.589 27.789 34.231 C 27.789 36.38 26.147 38.02 24 38.02 C 21.853 38.02 20.211 36.38 20.211 34.231 C 20.211 32.589 21.22 31.2 22.736 30.695 L 22.736 17.431 C 21.22 16.926 20.211 15.536 20.211 13.895 C 20.211 13.264 20.336 12.758 20.589 12.253 L 15.411 7.074 L 1.011 21.6 C 0.38 22.231 0 23.116 0 24 C 0 24.884 0.38 25.769 1.011 26.4 L 21.6 46.989 C 21.6 46.989 21.6 46.989 21.6 46.989 C 22.231 47.62 23.116 48 24 48 C 24.884 48 25.769 47.62 26.4 46.989 L 46.989 26.4 C 47.62 25.769 48 24.884 48 24 C 48 23.116 47.62 22.231 46.989 21.6 Z"/>
</svg>