<?xml version="1.0" encoding="utf-8"?>
<svg viewBox="0 0 48 48" width="48px" height="48px" xmlns="http://www.w3.org/2000/svg">
  <defs/>
  <path fill="#f06292" d="M 38.424 26.241 C 37.026 26.249 35.815 26.584 34.8 27.085 C 34.429 26.344 34.053 25.692 33.99 25.208 C 33.917 24.642 33.831 24.304 33.92 23.631 C 34.009 22.957 34.399 22.002 34.394 21.931 C 34.389 21.859 34.307 21.516 33.5 21.51 C 32.694 21.504 32.004 21.665 31.923 21.878 C 31.842 22.091 31.687 22.57 31.59 23.07 C 31.449 23.801 29.98 26.409 29.147 27.772 C 28.874 27.24 28.642 26.77 28.594 26.4 C 28.52 25.834 28.435 25.496 28.524 24.822 C 28.613 24.149 29.003 23.194 28.998 23.122 C 28.992 23.051 28.91 22.708 28.104 22.701 C 27.298 22.696 26.608 22.857 26.527 23.07 C 26.446 23.282 26.359 23.78 26.194 24.261 C 26.029 24.742 24.077 29.092 23.565 30.22 C 23.304 30.795 23.078 31.257 22.918 31.571 C 22.917 31.57 22.917 31.569 22.917 31.569 C 22.917 31.569 22.907 31.59 22.891 31.626 C 22.753 31.894 22.672 32.042 22.672 32.042 C 22.672 32.042 22.673 32.044 22.675 32.048 C 22.566 32.245 22.45 32.428 22.392 32.428 C 22.352 32.428 22.271 31.903 22.41 31.183 C 22.701 29.674 23.398 27.321 23.391 27.24 C 23.388 27.198 23.521 26.788 22.936 26.573 C 22.367 26.365 22.164 26.712 22.112 26.713 C 22.062 26.714 22.025 26.836 22.025 26.836 C 22.025 26.836 22.659 24.19 20.816 24.19 C 19.663 24.19 18.067 25.45 17.281 26.593 C 16.784 26.864 15.722 27.444 14.595 28.063 C 14.163 28.301 13.721 28.544 13.302 28.775 C 13.273 28.743 13.244 28.712 13.215 28.68 C 10.98 26.296 6.849 24.61 7.024 21.403 C 7.087 20.238 7.493 17.169 14.963 13.447 C 21.081 10.398 25.981 11.237 26.827 13.096 C 28.036 15.753 24.209 20.691 17.854 21.403 C 15.433 21.675 14.158 20.736 13.841 20.387 C 13.507 20.019 13.457 20.002 13.333 20.071 C 13.13 20.184 13.258 20.509 13.333 20.702 C 13.523 21.196 14.301 22.071 15.628 22.508 C 16.796 22.891 19.639 23.101 23.076 21.771 C 26.927 20.282 29.933 16.139 29.05 12.676 C 28.151 9.154 22.311 7.996 16.784 9.96 C 13.491 11.129 9.93 12.963 7.369 15.358 C 4.325 18.205 3.839 20.684 4.039 21.72 C 4.75 25.4 9.822 27.796 11.853 29.571 C 11.753 29.627 11.658 29.679 11.573 29.726 C 10.554 30.229 6.688 32.253 5.721 34.39 C 4.624 36.815 5.895 38.555 6.737 38.789 C 9.345 39.515 12.022 38.209 13.461 36.064 C 14.899 33.919 14.723 31.126 14.063 29.851 C 14.055 29.836 14.046 29.82 14.038 29.804 C 14.301 29.649 14.569 29.49 14.834 29.334 C 15.353 29.029 15.862 28.746 16.302 28.506 C 16.055 29.182 15.874 29.994 15.781 31.166 C 15.67 32.542 16.234 34.321 16.972 35.021 C 17.298 35.329 17.689 35.337 17.936 35.337 C 18.795 35.337 19.187 34.622 19.619 33.777 C 20.148 32.74 20.618 31.533 20.618 31.533 C 20.618 31.533 20.029 34.793 21.634 34.793 C 22.22 34.793 22.808 34.034 23.071 33.648 C 23.071 33.652 23.071 33.654 23.071 33.654 C 23.071 33.654 23.087 33.629 23.117 33.579 C 23.178 33.486 23.212 33.427 23.212 33.427 C 23.212 33.427 23.213 33.42 23.215 33.409 C 23.451 33.001 23.972 32.07 24.754 30.535 C 25.765 28.551 26.734 26.066 26.734 26.066 C 26.734 26.066 26.824 26.673 27.12 27.679 C 27.293 28.27 27.662 28.923 27.954 29.55 C 27.72 29.876 27.576 30.062 27.576 30.062 C 27.576 30.062 27.577 30.066 27.58 30.072 C 27.392 30.321 27.182 30.589 26.962 30.851 C 26.164 31.801 25.214 32.887 25.087 33.199 C 24.937 33.569 24.972 33.839 25.262 34.059 C 25.474 34.218 25.851 34.243 26.244 34.217 C 26.961 34.168 27.465 33.99 27.714 33.882 C 28.102 33.745 28.554 33.529 28.978 33.218 C 29.76 32.642 30.232 31.819 30.187 30.729 C 30.161 30.128 29.97 29.532 29.728 28.97 C 29.799 28.869 29.87 28.765 29.941 28.661 C 31.175 26.858 32.132 24.876 32.132 24.876 C 32.132 24.876 32.222 25.483 32.518 26.489 C 32.667 26.997 32.962 27.552 33.228 28.096 C 32.068 29.039 31.349 30.134 31.099 30.852 C 30.637 32.181 30.999 32.783 31.677 32.92 C 31.984 32.982 32.419 32.841 32.745 32.703 C 33.151 32.569 33.639 32.344 34.096 32.009 C 34.879 31.433 35.631 30.628 35.586 29.538 C 35.565 29.041 35.43 28.549 35.248 28.076 C 36.231 27.666 37.504 27.439 39.126 27.628 C 42.605 28.034 43.287 30.206 43.157 31.115 C 43.026 32.024 42.297 32.524 42.052 32.675 C 41.808 32.826 41.734 32.879 41.754 32.99 C 41.784 33.153 41.897 33.148 42.105 33.112 C 42.391 33.064 43.931 32.373 43.997 30.695 C 44.08 28.562 42.039 26.222 38.424 26.241 Z M 11.609 35.281 C 10.456 36.538 8.847 37.013 8.156 36.613 C 7.411 36.181 7.706 34.33 9.12 32.996 C 9.982 32.183 11.094 31.434 11.833 30.973 C 12.001 30.872 12.247 30.724 12.547 30.544 C 12.597 30.516 12.625 30.5 12.625 30.5 L 12.624 30.499 C 12.683 30.464 12.742 30.429 12.803 30.391 C 13.318 32.29 12.819 33.962 11.609 35.281 Z M 20.004 29.575 C 19.603 30.553 18.763 33.057 18.252 32.922 C 17.812 32.807 17.545 30.904 18.164 29.031 C 18.475 28.089 19.141 26.962 19.532 26.525 C 20.161 25.821 20.853 25.591 21.021 25.877 C 21.235 26.24 20.256 28.961 20.004 29.575 Z M 26.94 32.884 C 26.77 32.973 26.613 33.029 26.541 32.986 C 26.488 32.954 26.611 32.837 26.611 32.837 C 26.611 32.837 27.479 31.903 27.82 31.479 C 28.02 31.231 28.25 30.938 28.5 30.61 C 28.502 30.643 28.503 30.676 28.503 30.708 C 28.501 31.826 27.421 32.58 26.94 32.884 Z M 32.282 31.666 C 32.155 31.576 32.177 31.284 32.594 30.374 C 32.758 30.017 33.132 29.416 33.781 28.841 C 33.857 29.078 33.902 29.304 33.901 29.515 C 33.893 30.922 32.889 31.448 32.282 31.666 Z"/>
</svg>