<?xml version="1.0" encoding="utf-8"?>
<svg width="48px" height="48px" viewBox="0 0 48 48" fill="none" xmlns="http://www.w3.org/2000/svg">
  <g transform="matrix(1, 0, 0, 1, -4, -3.714994)">
    <path fill="#5059C9" d="M 37.48 22.144 L 49.877 22.144 C 51.051 22.144 52 23.089 52 24.258 L 52 35.532 C 51.996 39.834 48.506 43.319 44.204 43.314 L 44.169 43.314 C 39.867 43.319 36.376 39.834 36.372 35.532 L 36.372 23.254 C 36.372 22.641 36.869 22.146 37.48 22.146 L 37.48 22.144 Z M 45.863 19.914 C 48.633 19.914 50.883 17.669 50.883 14.902 C 50.883 12.132 48.633 9.886 45.86 9.886 C 43.085 9.886 40.836 12.132 40.836 14.902 C 40.836 17.669 43.085 19.914 45.86 19.914 L 45.863 19.914 Z"/>
    <path fill="#7B83EB" d="M 30.232 19.914 C 34.236 19.92 37.486 16.678 37.491 12.673 C 37.488 8.667 34.235 5.422 30.228 5.429 C 26.225 5.425 22.978 8.667 22.973 12.67 C 22.973 16.672 26.22 19.914 30.228 19.914 L 30.232 19.914 Z M 39.908 22.144 L 19.439 22.144 C 18.284 22.171 17.368 23.13 17.396 24.286 L 17.396 37.144 C 17.241 44.082 22.734 49.836 29.673 50.001 C 36.614 49.837 42.11 44.083 41.955 37.144 L 41.955 24.286 C 41.981 23.129 41.064 22.169 39.908 22.144 Z"/>
    <path fill="#000000" d="M 30.791 22.144 L 30.791 40.161 C 30.785 41.286 29.873 42.197 28.748 42.201 L 18.376 42.201 C 17.727 40.593 17.393 38.874 17.392 37.14 L 17.392 24.286 C 17.366 23.13 18.282 22.171 19.439 22.146 L 30.788 22.146 L 30.791 22.144 Z" opacity=".1"/>
    <path fill="#000000" d="M 29.673 22.144 L 29.673 41.274 C 29.663 42.399 28.754 43.307 27.629 43.314 L 18.904 43.314 C 18.519 42.607 18.212 41.86 17.988 41.086 C 17.598 39.808 17.4 38.479 17.399 37.144 L 17.399 24.28 C 17.372 23.124 18.287 22.167 19.443 22.14 L 29.676 22.14 L 29.673 22.144 Z" opacity=".2"/>
    <path fill="#000000" d="M 29.673 22.144 L 29.673 39.046 C 29.663 40.17 28.754 41.079 27.629 41.086 L 17.988 41.086 C 17.598 39.808 17.4 38.479 17.399 37.144 L 17.399 24.28 C 17.372 23.124 18.287 22.167 19.443 22.14 L 29.676 22.14 L 29.673 22.144 Z" opacity=".2"/>
    <path fill="#000000" d="M 28.559 22.144 L 28.559 39.046 C 28.55 40.17 27.64 41.079 26.516 41.086 L 17.985 41.086 C 17.595 39.808 17.397 38.479 17.396 37.144 L 17.396 24.28 C 17.369 23.124 18.284 22.167 19.439 22.14 L 28.559 22.14 L 28.559 22.144 Z" opacity=".2"/>
    <path fill="#000000" d="M 30.791 16.384 L 30.791 19.894 C 30.603 19.905 30.424 19.914 30.232 19.914 C 30.044 19.914 29.865 19.905 29.673 19.894 C 26.531 19.653 23.906 17.409 23.176 14.344 L 28.748 14.344 C 29.872 14.347 30.783 15.256 30.791 16.38 L 30.791 16.384 Z" opacity=".1"/>
    <path fill="#000000" d="M 29.673 17.497 L 29.673 19.894 C 26.957 19.686 24.587 17.974 23.536 15.461 L 27.633 15.461 C 28.756 15.467 29.666 16.374 29.673 17.497 Z" opacity=".2"/>
    <path fill="#000000" d="M 29.673 17.497 L 29.673 19.894 C 26.957 19.686 24.587 17.974 23.536 15.461 L 27.633 15.461 C 28.756 15.467 29.666 16.374 29.673 17.497 Z" opacity=".2"/>
    <path fill="#000000" d="M 28.559 17.497 L 28.559 19.716 C 26.3 19.182 24.432 17.599 23.536 15.457 L 26.519 15.457 C 27.644 15.463 28.553 16.373 28.559 17.497 Z" opacity=".2"/>
    <path fill="url(#microsoft-teams-color-16__paint0_linear_2372_494)" d="M 6.047 15.457 L 26.512 15.457 C 27.644 15.457 28.559 16.373 28.559 17.501 L 28.559 37.929 C 28.559 39.058 27.642 39.973 26.512 39.972 L 6.044 39.972 C 4.914 39.972 4 39.057 4 37.929 L 4 17.501 C 4 16.369 4.916 15.457 6.047 15.457 Z"/>
    <path fill="#ffffff" d="M 21.664 23.233 L 17.573 23.233 L 17.573 34.353 L 14.968 34.353 L 14.968 23.233 L 10.892 23.233 L 10.892 21.073 L 21.66 21.073 L 21.66 23.233 L 21.664 23.233 Z"/>
  </g>
  <defs>
    <linearGradient id="microsoft-teams-color-16__paint0_linear_2372_494" x1="2.244" x2="6.906" y1="4.46" y2="12.548" gradientUnits="userSpaceOnUse" gradientTransform="matrix(3.428572, 0, 0, 3.428572, 0.571428, -1.428728)">
      <stop stop-color="#5A62C3"/>
      <stop offset="0.5" stop-color="#4D55BD"/>
      <stop offset="1" stop-color="#3940AB"/>
    </linearGradient>
  </defs>
</svg>