<?xml version="1.0" encoding="utf-8"?>
<svg viewBox="0 0 48 48" width="48px" height="48px" xmlns="http://www.w3.org/2000/svg">
  <g transform="matrix(1.2, 0, 0, 1.2, -4.800003, -4.800001)">
    <path d="M 24 5 C 23.409 5 22.818 5.148 22.292 5.446 L 8.378 13.264 C 7.314 13.861 6.652 14.981 6.652 16.181 L 6.652 31.818 C 6.652 33.019 7.314 34.138 8.378 34.736 L 22.292 42.554 C 22.818 42.851 23.409 43 24 43 C 24.591 43 25.181 42.851 25.706 42.554 L 39.621 34.739 C 40.686 34.138 41.348 33.019 41.348 31.818 L 41.348 16.181 C 41.348 14.981 40.686 13.861 39.621 13.264 L 25.706 5.446 C 25.181 5.148 24.591 5 24 5 Z" style="fill: rgb(255, 255, 255);"/>
    <path d="M 24 4 C 23.378 4 22.756 4.156 22.202 4.469 L 7.556 12.699 C 6.436 13.327 5.739 14.506 5.739 15.77 L 5.739 32.23 C 5.739 33.494 6.436 34.672 7.556 35.301 L 22.202 43.531 C 22.756 43.843 23.378 44 24 44 C 24.622 44 25.243 43.843 25.796 43.531 L 40.443 35.304 C 41.564 34.672 42.261 33.494 42.261 32.23 L 42.261 15.77 C 42.261 14.506 41.564 13.327 40.443 12.699 L 25.796 4.469 C 25.243 4.156 24.622 4 24 4 Z M 24 13.565 C 27.288 13.565 30.328 15.09 32.298 17.685 L 28.487 19.893 C 27.342 18.64 25.716 17.913 24 17.913 C 20.644 17.913 17.913 20.643 17.913 24 C 17.913 27.356 20.644 30.087 24 30.087 C 25.716 30.087 27.342 29.36 28.487 28.106 L 32.298 30.314 C 30.328 32.91 27.288 34.435 24 34.435 C 18.246 34.435 13.565 29.754 13.565 24 C 13.565 18.245 18.246 13.565 24 13.565 Z M 32.696 19.652 L 34.435 19.652 L 34.435 21.391 L 36.174 21.391 L 36.174 19.652 L 37.913 19.652 L 37.913 21.391 L 39.652 21.391 L 39.652 23.13 L 37.913 23.13 L 37.913 24.87 L 39.652 24.87 L 39.652 26.609 L 37.913 26.609 L 37.913 28.348 L 36.174 28.348 L 36.174 26.609 L 34.435 26.609 L 34.435 28.348 L 32.696 28.348 L 32.696 26.609 L 30.956 26.609 L 30.956 24.87 L 32.696 24.87 L 32.696 23.13 L 30.956 23.13 L 30.956 21.391 L 32.696 21.391 L 32.696 19.652 Z M 34.435 23.13 L 34.435 24.87 L 36.174 24.87 L 36.174 23.13 L 34.435 23.13 Z" style="fill: rgb(107, 0, 162);"/>
  </g>
</svg>