<?xml version="1.0" encoding="utf-8"?>
<svg viewBox="0 0 48 48" width="48px" height="48px" xmlns="http://www.w3.org/2000/svg">
  <g transform="matrix(1, 0, 0, 1, -3.652, -4)">
    <path d="M 24 5 C 23.409 5 22.818 5.148 22.292 5.446 L 8.378 13.264 C 7.314 13.861 6.652 14.981 6.652 16.181 L 6.652 31.818 C 6.652 33.019 7.314 34.138 8.378 34.736 L 22.292 42.554 C 22.818 42.851 23.409 43 24 43 C 24.591 43 25.181 42.851 25.706 42.554 L 39.621 34.739 C 40.686 34.138 41.348 33.019 41.348 31.818 L 41.348 16.181 C 41.348 14.981 40.686 13.861 39.621 13.264 L 25.706 5.446 C 25.181 5.148 24.591 5 24 5 Z" style="fill: rgb(255, 255, 255);"/>
    <path d="M 27.652 4 C 26.906 4 26.159 4.187 25.495 4.563 L 7.919 14.439 C 6.575 15.192 5.739 16.607 5.739 18.124 L 5.739 37.876 C 5.739 39.393 6.575 40.806 7.919 41.561 L 25.495 51.437 C 26.159 51.812 26.906 52 27.652 52 C 28.399 52 29.144 51.812 29.807 51.437 L 47.384 41.565 C 48.729 40.806 49.565 39.393 49.565 37.876 L 49.565 18.124 C 49.565 16.607 48.729 15.192 47.384 14.439 L 29.807 4.563 C 29.144 4.187 28.399 4 27.652 4 Z M 27.652 15.478 C 31.598 15.478 35.246 17.308 37.61 20.422 L 33.037 23.072 C 31.663 21.568 29.711 20.696 27.652 20.696 C 23.625 20.696 20.348 23.972 20.348 28 C 20.348 32.027 23.625 35.304 27.652 35.304 C 29.711 35.304 31.663 34.432 33.037 32.927 L 37.61 35.577 C 35.246 38.692 31.598 40.522 27.652 40.522 C 20.747 40.522 15.13 34.905 15.13 28 C 15.13 21.094 20.747 15.478 27.652 15.478 Z M 38.087 22.782 L 40.174 22.782 L 40.174 24.869 L 42.261 24.869 L 42.261 22.782 L 44.348 22.782 L 44.348 24.869 L 46.435 24.869 L 46.435 26.956 L 44.348 26.956 L 44.348 29.044 L 46.435 29.044 L 46.435 31.131 L 44.348 31.131 L 44.348 33.218 L 42.261 33.218 L 42.261 31.131 L 40.174 31.131 L 40.174 33.218 L 38.087 33.218 L 38.087 31.131 L 35.999 31.131 L 35.999 29.044 L 38.087 29.044 L 38.087 26.956 L 35.999 26.956 L 35.999 24.869 L 38.087 24.869 L 38.087 22.782 Z M 40.174 26.956 L 40.174 29.044 L 42.261 29.044 L 42.261 26.956 L 40.174 26.956 Z" style="fill: rgb(107, 0, 162);"/>
  </g>
</svg>