<?xml version="1.0" encoding="utf-8"?>
<svg viewBox="0 0 48 48" xmlns="http://www.w3.org/2000/svg">
  <defs/>
  <path d="M 11 3 L 37 3 C 41.418 3 45 6.582 45 11 L 45 37 C 45 41.418 41.418 45 37 45 L 11 45 C 6.582 45 3 41.418 3 37 L 3 11 C 3 6.582 6.582 3 11 3 Z M 21.236 21.264 C 20.354 21.264 19.657 21.518 19.146 22.026 C 18.635 22.534 18.379 23.199 18.379 24.023 C 18.379 24.86 18.613 25.513 19.08 25.983 C 19.547 26.454 20.185 26.689 20.992 26.689 C 21.353 26.689 21.667 26.66 21.932 26.601 C 22.197 26.543 22.507 26.403 22.862 26.181 L 22.413 25.219 C 22.068 25.519 21.669 25.668 21.216 25.668 C 20.171 25.668 19.649 25.12 19.649 24.023 C 19.649 23.479 19.783 23.054 20.052 22.746 C 20.321 22.438 20.686 22.284 21.148 22.284 C 21.63 22.284 22.014 22.42 22.3 22.69 L 22.823 21.777 C 22.374 21.435 21.845 21.264 21.236 21.264 Z M 28.447 26.591 L 28.447 23.368 C 28.447 22.692 28.266 22.172 27.905 21.808 C 27.544 21.446 27.036 21.264 26.382 21.264 C 25.829 21.264 25.394 21.408 25.078 21.694 L 25.078 19.12 L 23.838 19.413 L 23.838 26.591 L 25.078 26.591 L 25.078 22.836 C 25.166 22.696 25.313 22.572 25.518 22.463 C 25.723 22.354 25.926 22.299 26.128 22.299 C 26.453 22.299 26.717 22.397 26.919 22.592 C 27.121 22.788 27.222 23.046 27.222 23.368 L 27.222 26.591 Z M 32.959 26.493 C 33.099 26.624 33.257 26.689 33.433 26.689 C 33.592 26.689 33.734 26.669 33.857 26.628 C 33.981 26.588 34.093 26.479 34.194 26.303 C 33.914 26.124 33.774 25.686 33.774 24.989 L 33.774 23.871 C 33.774 22.859 33.589 22.172 33.218 21.808 C 32.847 21.446 32.262 21.264 31.465 21.264 C 30.886 21.264 30.386 21.365 29.966 21.567 L 30.229 22.514 C 30.538 22.361 30.923 22.284 31.382 22.284 C 32.16 22.284 32.549 22.592 32.549 23.207 C 32.354 23.159 32.184 23.134 32.041 23.134 C 31.204 23.134 30.559 23.305 30.105 23.647 C 29.651 23.989 29.424 24.462 29.424 25.068 C 29.424 25.586 29.585 25.985 29.907 26.266 C 30.23 26.548 30.672 26.689 31.235 26.689 C 31.534 26.689 31.822 26.631 32.097 26.515 C 32.372 26.4 32.565 26.251 32.676 26.069 C 32.725 26.222 32.819 26.363 32.959 26.493 Z M 32.558 24.618 C 32.558 25.351 32.192 25.717 31.46 25.717 C 30.916 25.717 30.644 25.483 30.644 25.014 C 30.644 24.383 31.126 24.067 32.09 24.067 C 32.194 24.067 32.35 24.088 32.558 24.13 Z M 39.678 26.591 L 39.678 23.383 C 39.678 22.716 39.498 22.196 39.138 21.823 C 38.779 21.451 38.288 21.264 37.666 21.264 C 37.019 21.264 36.529 21.46 36.197 21.85 L 35.972 21.362 L 35.093 21.362 L 35.093 26.591 L 36.314 26.591 L 36.314 22.812 C 36.428 22.662 36.587 22.537 36.79 22.436 C 36.993 22.335 37.185 22.284 37.364 22.284 C 37.751 22.284 38.03 22.387 38.201 22.592 C 38.372 22.798 38.457 23.123 38.457 23.569 L 38.457 26.591 Z M 23.215 10.465 C 18.892 10.465 15.479 11.709 12.975 14.197 C 10.47 16.686 9.218 19.948 9.218 23.983 C 9.218 28.083 10.362 31.285 12.652 33.589 C 14.94 35.895 18.062 37.047 22.018 37.047 C 23.788 37.047 25.324 36.904 26.624 36.616 C 27.924 36.329 29.443 35.643 31.182 34.558 L 28.981 29.845 C 27.29 31.313 25.336 32.046 23.119 32.046 C 17.999 32.046 15.439 29.359 15.439 23.983 C 15.439 21.319 16.097 19.234 17.413 17.726 C 18.729 16.219 20.519 15.465 22.784 15.465 C 25.144 15.465 27.027 16.127 28.431 17.451 L 30.991 12.977 C 28.789 11.303 26.197 10.465 23.215 10.465 Z" style="stroke: rgba(0, 0, 0, 0); stroke-opacity: 0; stroke-width: 0px;"/>
  <path transform="matrix(1, 0, 0, 1, -48.146058, 11.919392)" style="fill: rgb(51, 51, 51);"/>
  <path transform="matrix(1, 0, 0, 1, -58.545476, 21.896199)" style="fill: rgb(51, 51, 51);"/>
</svg>