<?xml version="1.0" encoding="utf-8"?>
<svg version="1.1" x="0px" y="0px" viewBox="0 0 50 50" enable-background="new 0 0 50 50" id="svg10" width="50" height="50" xmlns="http://www.w3.org/2000/svg">
  <defs id="defs14"/>
  <path d="M 31.77789 19.78989 L 24.40789 27.15989 C 26.587889999999998 29.239890000000003 28.91789 31.04989 31.267889999999998 32.45989 C 33.60789 30.239890000000003 35.84789 27.90989 38.32789 24.949890000000003 C 36.07787999999999 23.509900000000002 33.84788999999999 21.759900000000002 31.777889999999996 19.789890000000003 L 31.77789 19.78989 Z" id="path2" style="fill: rgb(255, 193, 7);"/>
  <path d="M 40.687889999999996 10.879889999999996 L 33.31789 18.249889999999997 C 35.33789 20.169889999999995 37.51789 21.879889999999996 39.70789 23.249889999999997 C 42.03789 20.32989 43.95789 17.519889999999997 45.45789 14.859889999999996 C 43.82788 13.689889999999997 42.22789 12.359889999999996 40.687889999999996 10.879889999999996 Z" id="path2" style="fill: rgb(255, 193, 7);"/>
  <path d="M 48.66788 2.8998899999999965 L 42.22788 9.349889999999997 C 43.61788 10.669889999999997 45.04788 11.869889999999996 46.50788 12.929889999999997 C 48.74789 8.489889999999995 49.50788 4.909889999999997 48.66788 2.8998899999999974 L 48.66788 2.8998899999999965 Z" id="path2" style="fill: rgb(255, 193, 7);"/>
  <path d="M 37.08788 3.5198899999999966 C 38.14788 4.969889999999997 39.347879999999996 6.409889999999997 40.68788 7.809889999999997 L 47.12788 1.3598899999999965 C 45.107879999999994 0.5398899999999964 41.48788 1.3098899999999964 37.08788 3.5198899999999966 Z" id="path2" style="fill: rgb(255, 193, 7);"/>
  <path d="M 35.16788 4.559889999999997 C 32.497879999999995 6.059889999999997 29.687879999999996 7.989889999999997 26.767879999999998 10.309889999999996 C 28.147879999999997 12.509889999999995 29.857879999999998 14.689889999999995 31.777879999999996 16.709889999999994 L 39.147879999999994 9.349889999999995 C 37.657889999999995 7.789889999999994 36.32787999999999 6.189889999999995 35.16788 4.559889999999995 L 35.16788 4.559889999999997 Z" id="path2" style="fill: rgb(255, 193, 7);"/>
  <path d="M 25.07788 11.699889999999996 C 22.497880000000002 13.859889999999996 19.94788 16.249889999999997 17.55788 18.749889999999997 C 18.97788 21.09989 20.78788 23.43989 22.86788 25.629889999999996 L 30.23788 18.249889999999997 C 28.26789 16.179899999999996 26.51789 13.959899999999998 25.07788 11.699889999999996 Z" id="path2" style="fill: rgb(255, 193, 7);"/>
  <path d="M 22.86789 28.699889999999996 L 18.04789 33.51989 C 21.88789 33.309889999999996 25.72789 33.419889999999995 29.52789 34.099889999999995 C 29.55789 34.069889999999994 29.59789 34.03988999999999 29.62789 34.00988999999999 C 27.30788 32.549899999999994 25.00788 30.74989999999999 22.867890000000003 28.699889999999993 L 22.86789 28.699889999999996 Z" id="path2" style="fill: rgb(255, 193, 7);"/>
  <path d="M 21.32788 27.159889999999997 C 19.27788 25.00989 17.46788 22.709889999999998 16.01788 20.389889999999998 C 15.987880000000002 20.429889999999997 15.947880000000001 20.459889999999998 15.917880000000002 20.499889999999997 C 16.507880000000004 23.989889999999995 16.76788 27.309889999999996 16.507880000000004 31.979889999999997 L 21.32788 27.159889999999997 Z" id="path2" style="fill: rgb(255, 193, 7);"/>
  <path d="M 9.03788 9.079899999999999 C 11.93788 17.619899999999998 8.51788 29.0899 4.837879999999999 35.5899 C 7.227879999999999 34.8199 11.747879999999999 34.1399 14.177879999999998 33.8399 C 14.927889999999998 25.479889999999997 14.047879999999997 15.76989 9.037879999999998 9.079899999999999 L 9.03788 9.079899999999999 Z" id="path2" style="fill: rgb(255, 255, 255);"/>
  <path d="M 8.53788 36.9599 C 0.047879999999999256 38.8499 -0.08211999999999975 44.329899999999995 2.39788 46.799899999999994 C 2.5078799999999997 46.91989999999999 2.59788 47.049899999999994 2.64788 47.19989999999999 C 3.8278799999999995 48.479899999999994 5.047879999999999 48.95989999999999 6.26788 48.95989999999999 C 8.83788 48.95989999999999 11.41788 46.85989999999999 13.66788 45.66989999999999 C 21.427880000000002 41.35989999999999 32.267880000000005 38.02989999999999 40.877880000000005 40.94989999999999 C 32.057880000000004 34.63989999999999 19.167880000000004 34.759899999999995 8.537880000000001 36.95989999999999 L 8.53788 36.9599 Z" id="path2" style="fill: rgb(255, 255, 255);"/>
</svg>