<?xml version="1.0" encoding="utf-8"?>
<svg viewBox="0 0 48 48" width="48px" height="48px" xmlns="http://www.w3.org/2000/svg">
  <path d="M 24 4.309 C 12.955 4.309 4 13.264 4 24.309 C 4 33.681 10.453 41.522 19.153 43.692 C 19.06 43.422 19 43.109 19 42.721 L 19 39.302 C 18.188 39.302 16.828 39.302 16.487 39.302 C 15.118 39.302 13.902 38.714 13.312 37.621 C 12.657 36.406 12.543 34.547 10.92 33.411 C 10.438 33.032 10.805 32.601 11.36 32.659 C 12.385 32.949 13.235 33.652 14.035 34.696 C 14.832 35.741 15.207 35.977 16.695 35.977 C 17.417 35.977 18.497 35.936 19.513 35.776 C 20.06 34.387 21.005 33.109 22.16 32.506 C 15.5 31.821 12.322 28.507 12.322 24.009 C 12.322 22.072 13.147 20.199 14.548 18.621 C 14.088 17.054 13.51 13.859 14.725 12.642 C 17.722 12.642 19.533 14.586 19.968 15.111 C 21.462 14.599 23.102 14.309 24.825 14.309 C 26.552 14.309 28.198 14.599 29.695 15.114 C 30.125 14.592 31.938 12.642 34.942 12.642 C 36.162 13.861 35.577 17.069 35.112 18.632 C 36.505 20.207 37.325 22.076 37.325 24.009 C 37.325 28.504 34.152 31.816 27.502 32.504 C 29.332 33.459 30.667 36.142 30.667 38.164 L 30.667 42.721 C 30.667 42.894 30.628 43.019 30.608 43.167 C 38.402 40.436 44 33.036 44 24.309 C 44 13.264 35.045 4.309 24 4.309 Z"/>
</svg>