<?xml version="1.0" encoding="utf-8"?>
<svg viewBox="0 0 24 24" width="24px" height="24px" xmlns="http://www.w3.org/2000/svg">
  <path d="M 12 2 C 6.477 2 2 6.547 2 12.157 C 2 16.916 5.227 20.898 9.577 22 C 9.53 21.863 9.5 21.704 9.5 21.507 L 9.5 19.771 C 9.094 19.771 8.414 19.771 8.243 19.771 C 7.559 19.771 6.951 19.472 6.656 18.917 C 6.328 18.3 6.272 17.356 5.46 16.779 C 5.219 16.587 5.402 16.367 5.68 16.397 C 6.192 16.544 6.617 16.901 7.017 17.431 C 7.416 17.962 7.603 18.082 8.347 18.082 C 8.708 18.082 9.248 18.061 9.756 17.98 C 10.03 17.275 10.502 16.625 11.08 16.319 C 7.75 15.971 6.161 14.289 6.161 12.004 C 6.161 11.021 6.573 10.07 7.274 9.268 C 7.044 8.472 6.755 6.85 7.362 6.232 C 8.861 6.232 9.767 7.219 9.984 7.485 C 10.731 7.225 11.551 7.078 12.412 7.078 C 13.276 7.078 14.099 7.225 14.847 7.487 C 15.062 7.222 15.969 6.232 17.47 6.232 C 18.08 6.85 17.788 8.48 17.556 9.274 C 18.252 10.074 18.662 11.022 18.662 12.004 C 18.662 14.287 17.076 15.969 13.751 16.318 C 14.666 16.803 15.333 18.166 15.333 19.192 L 15.333 21.507 C 15.333 21.595 15.314 21.658 15.304 21.733 C 19.2 20.346 22 16.588 22 12.157 C 22 6.547 17.522 2 12 2 Z"/>
</svg>