<?xml version="1.0" encoding="utf-8"?>
<svg viewBox="0 0 48 48" width="48px" height="48px" xmlns="http://www.w3.org/2000/svg">
  <g transform="matrix(1, 0, 0, 1, -3.578499, -4)">
    <path fill="#E65100" d="M 49.052 4 L 6.105 4 L 9.895 46.947 L 27.579 52 L 45.263 46.947 L 49.052 4 Z"/>
    <path fill="#FF6D00" d="M 27.579 7.79 L 27.579 48.084 L 41.726 44.042 L 44.884 7.79 L 27.579 7.79 Z"/>
    <path fill="#FFF" d="M 27.579 29.264 L 27.579 24.21 L 38.441 24.21 L 37.558 38.736 L 27.579 42.021 L 27.579 36.716 L 32.758 34.947 L 33.136 29.264 L 27.579 29.264 Z M 38.821 19.158 L 39.2 14.105 L 27.579 14.105 L 27.579 19.158 L 38.821 19.158 Z"/>
    <path fill="#EEE" d="M 27.579 36.716 L 27.579 42.021 L 17.6 38.736 L 17.095 31.79 L 22.147 31.79 L 22.4 34.947 L 27.579 36.716 Z M 21.389 19.158 L 27.579 19.158 L 27.579 14.105 L 16.084 14.105 L 16.969 29.264 L 27.579 29.264 L 27.579 24.21 L 21.769 24.21 L 21.389 19.158 Z"/>
  </g>
</svg>