<?xml version="1.0" encoding="utf-8"?>
<svg viewBox="0 0 24 24" width="24px" height="24px" xmlns="http://www.w3.org/2000/svg">
  <path d="M 7.832 2 C 4.616 2 2 4.618 2 7.835 L 2 16.168 C 2 19.384 4.618 22 7.835 22 L 16.168 22 C 19.384 22 22 19.382 22 16.165 L 22 7.832 C 22 4.616 19.382 2 16.165 2 L 7.832 2 Z M 17.834 5.334 C 18.294 5.334 18.666 5.706 18.666 6.166 C 18.666 6.626 18.294 7 17.834 7 C 17.374 7 17 6.626 17 6.166 C 17 5.706 17.374 5.334 17.834 5.334 Z M 12 7 C 14.757 7 17 9.242 17 12 C 17 14.757 14.757 17 12 17 C 9.242 17 7 14.757 7 12 C 7 9.242 9.242 7 12 7 Z M 12 8.666 C 10.159 8.666 8.666 10.159 8.666 12 C 8.666 13.841 10.159 15.334 12 15.334 C 13.841 15.334 15.334 13.841 15.334 12 C 15.334 10.159 13.841 8.666 12 8.666 Z"/>
</svg>