<?xml version="1.0" encoding="utf-8"?>
<svg  viewBox="0 0 48 48" width="48px" height="48px" xmlns="http://www.w3.org/2000/svg">
  <g>
    <g>
      <path fill="#FAB005" d="M 44.956 0 L 3.049 0 C 1.366 0 0 1.366 0 3.049 L 0 44.951 C 0 46.634 1.366 48 3.049 48 L 44.951 48 C 46.634 48 48 46.634 48 44.956 L 48 3.049 C 48 1.366 46.634 0 44.956 0 Z M 26.286 36.781 C 26.286 41.348 23.608 43.428 19.697 43.428 C 16.16 43.428 13.612 41.058 12.571 38.857 L 16.165 36.683 C 16.858 37.91 17.911 38.857 19.428 38.857 C 20.88 38.857 21.714 38.29 21.714 36.085 L 21.714 21.714 L 26.286 21.714 L 26.286 36.781 Z M 36.2 43.428 C 32.152 43.428 29.852 41.388 28.572 38.857 L 32 36.571 C 32.933 38.099 33.95 39.558 36.103 39.558 C 37.91 39.558 38.857 38.657 38.857 37.406 C 38.857 35.915 37.876 35.384 35.888 34.513 L 34.799 34.045 C 31.651 32.705 29.558 31.027 29.558 27.473 C 29.558 24.205 32.053 21.714 35.946 21.714 C 38.719 21.714 40.71 22.679 42.148 25.205 L 38.754 27.389 C 38.004 26.045 37.201 25.518 35.946 25.518 C 34.669 25.518 33.862 26.33 33.862 27.389 C 33.862 28.697 34.669 29.224 36.54 30.036 L 37.63 30.504 C 41.339 32.089 43.428 33.71 43.428 37.352 C 43.428 41.276 40.344 43.428 36.2 43.428 Z"/>
    </g>
  </g>
</svg>