<?xml version="1.0" encoding="utf-8"?>
<svg width="auto" height="100%" fill="none" viewBox="0 0 48 48" xmlns="http://www.w3.org/2000/svg">
  <path d="M 42.329 4 L 23.053 4 C 23.053 8.792 26.953 12.692 31.744 12.692 L 35.309 12.692 L 35.309 16.089 C 35.309 20.881 39.209 24.779 44 24.779 L 44 5.672 C 44 4.726 43.276 4 42.329 4 Z" fill="#1868DB" clip-path="url(#clip0_2967_1690)"/>
  <path d="M 32.802 13.582 L 13.527 13.582 C 13.527 18.373 17.426 22.273 22.217 22.273 L 25.783 22.273 L 25.783 25.727 C 25.783 30.517 29.682 34.416 34.473 34.416 L 34.473 15.253 C 34.473 14.361 33.749 13.582 32.802 13.582 Z" fill="#1868DB" clip-path="url(#clip0_2967_1690)"/>
  <path d="M 23.275 23.221 L 4 23.221 C 4 28.011 7.9 31.911 12.691 31.911 L 16.256 31.911 L 16.256 35.308 C 16.256 40.1 20.156 44 24.947 44 L 24.947 24.891 C 24.947 23.945 24.167 23.221 23.275 23.221 Z" fill="#1868DB" clip-path="url(#clip0_2967_1690)"/>
</svg>