<?xml version="1.0" encoding="utf-8"?>
<svg viewBox="0 0 48 48" width="48px" height="48px" xmlns="http://www.w3.org/2000/svg">
  <path d="M 42.285 0 L 5.715 0 C 2.56 0 0 2.56 0 5.715 L 0 42.285 C 0 45.44 2.56 48 5.715 48 L 42.285 48 C 45.44 48 48 45.44 48 42.285 L 48 5.715 C 48 2.56 45.44 0 42.285 0 Z M 14.857 18.285 L 14.857 40 L 8 40 L 8 18.285 L 14.857 18.285 Z M 8 11.966 C 8 10.365 9.371 9.143 11.429 9.143 C 13.485 9.143 14.775 10.365 14.857 11.966 C 14.857 13.568 13.575 14.857 11.429 14.857 C 9.371 14.857 8 13.568 8 11.966 Z M 40 40 L 33.143 40 C 33.143 40 33.143 29.415 33.143 28.571 C 33.143 26.288 32 24 29.145 23.955 L 29.051 23.955 C 26.288 23.955 25.143 26.309 25.143 28.571 C 25.143 29.611 25.143 40 25.143 40 L 18.285 40 L 18.285 18.285 L 25.143 18.285 L 25.143 21.211 C 25.143 21.211 27.349 18.285 31.785 18.285 C 36.32 18.285 40 21.405 40 27.728 L 40 40 Z"/>
</svg>