<?xml version="1.0" encoding="utf-8"?>
<svg viewBox="0 0 48 48" width="48px" height="48px" xmlns="http://www.w3.org/2000/svg">
  <title>material_design</title>
  <ellipse style="fill: rgb(1, 99, 154); paint-order: fill; stroke: rgba(0, 0, 0, 0); stroke-opacity: 0; stroke-width: 0px;" cx="24" cy="24" rx="24" ry="24"/>
  <path d="M 41.18 24.001 C 41.163 20.096 39.818 16.313 37.362 13.274 L 37.362 34.747 C 39.852 31.722 41.204 27.919 41.18 24.001 M 34.747 37.362 L 13.274 37.362 C 14.819 38.526 16.539 39.434 18.371 40.053 C 20.169 40.746 22.075 41.127 24.001 41.18 C 25.961 41.139 27.899 40.759 29.727 40.053 C 31.529 39.42 33.223 38.511 34.747 37.362 M 22.093 33.545 L 14.457 18.275 L 14.457 33.545 L 22.093 33.545 M 33.545 18.275 L 25.909 33.545 L 33.545 33.545 L 33.545 18.275 M 24.001 28.831 L 31.159 14.457 L 16.843 14.457 L 24.001 28.831 M 34.747 10.639 C 28.495 5.549 19.526 5.549 13.274 10.639 L 34.747 10.639 M 10.639 34.747 L 10.639 13.274 C 8.185 16.313 6.839 20.096 6.822 24.001 C 6.799 27.919 8.15 31.722 10.639 34.747 M 44.997 24.001 C 45.093 29.588 42.869 34.967 38.852 38.852 C 34.967 42.869 29.588 45.093 24.001 44.997 C 18.415 45.089 13.039 42.864 9.151 38.852 C 5.133 34.967 2.909 29.588 3.003 24.001 C 2.913 18.415 5.137 13.039 9.151 9.151 C 13.039 5.137 18.415 2.913 24.001 3.003 C 29.588 2.909 34.967 5.133 38.852 9.151 C 42.864 13.039 45.089 18.415 44.997 24.001 Z" style="fill: rgb(255, 255, 255);"/>
</svg>