<?xml version="1.0" encoding="utf-8"?>
<svg viewBox="0 0 48 48" width="48px" height="48px" xmlns="http://www.w3.org/2000/svg">
  <path fill="#f06292" d="M 41.309 26.69 C 39.632 26.699 38.178 27.101 36.96 27.703 C 36.515 26.813 36.064 26.031 35.988 25.45 C 35.901 24.771 35.798 24.365 35.904 23.558 C 36.011 22.749 36.479 21.603 36.473 21.518 C 36.467 21.431 36.369 21.02 35.4 21.012 C 34.433 21.005 33.605 21.198 33.508 21.454 C 33.411 21.71 33.225 22.284 33.108 22.884 C 32.939 23.762 31.176 26.891 30.177 28.527 C 29.849 27.889 29.571 27.325 29.513 26.881 C 29.424 26.201 29.322 25.796 29.429 24.987 C 29.536 24.179 30.004 23.033 29.998 22.947 C 29.991 22.862 29.892 22.45 28.925 22.442 C 27.958 22.436 27.13 22.629 27.033 22.884 C 26.935 23.139 26.831 23.737 26.633 24.314 C 26.435 24.891 24.093 30.111 23.478 31.465 C 23.165 32.155 22.894 32.709 22.702 33.086 C 22.701 33.085 22.701 33.083 22.701 33.083 C 22.701 33.083 22.689 33.109 22.669 33.152 C 22.504 33.473 22.407 33.651 22.407 33.651 C 22.407 33.651 22.408 33.653 22.41 33.658 C 22.279 33.895 22.14 34.114 22.071 34.114 C 22.023 34.114 21.925 33.484 22.092 32.62 C 22.441 30.809 23.278 27.986 23.269 27.889 C 23.266 27.838 23.425 27.346 22.723 27.088 C 22.041 26.839 21.797 27.255 21.735 27.256 C 21.675 27.257 21.63 27.404 21.63 27.404 C 21.63 27.404 22.391 24.229 20.179 24.229 C 18.796 24.229 16.881 25.741 15.937 27.112 C 15.341 27.437 14.067 28.133 12.714 28.876 C 12.196 29.162 11.665 29.453 11.163 29.731 C 11.128 29.692 11.093 29.655 11.058 29.617 C 8.376 26.756 3.419 24.733 3.629 20.884 C 3.704 19.486 4.192 15.803 13.156 11.337 C 20.497 7.678 26.377 8.685 27.393 10.916 C 28.844 14.104 24.251 20.03 16.625 20.884 C 13.72 21.21 12.19 20.084 11.809 19.665 C 11.409 19.223 11.349 19.203 11.2 19.286 C 10.956 19.421 11.11 19.811 11.2 20.043 C 11.428 20.636 12.361 21.686 13.954 22.21 C 15.355 22.67 18.767 22.922 22.891 21.326 C 27.513 19.539 31.12 14.567 30.06 10.412 C 28.982 6.185 21.973 4.796 15.341 7.152 C 11.389 8.555 7.116 10.756 4.043 13.63 C 0.39 17.046 -0.193 20.021 0.047 21.264 C 0.9 25.681 6.987 28.556 9.424 30.686 C 9.304 30.753 9.19 30.815 9.088 30.872 C 7.865 31.475 3.226 33.904 2.065 36.469 C 0.749 39.379 2.274 41.467 3.284 41.747 C 6.414 42.619 9.627 41.051 11.353 38.477 C 13.079 35.903 12.868 32.552 12.076 31.022 C 12.066 31.004 12.055 30.985 12.046 30.965 C 12.361 30.779 12.683 30.589 13.001 30.401 C 13.624 30.035 14.235 29.696 14.763 29.408 C 14.466 30.219 14.249 31.193 14.137 32.6 C 14.004 34.251 14.681 36.386 15.567 37.226 C 15.958 37.595 16.427 37.605 16.723 37.605 C 17.754 37.605 18.225 36.747 18.743 35.733 C 19.378 34.489 19.942 33.04 19.942 33.04 C 19.942 33.04 19.235 36.952 21.161 36.952 C 21.864 36.952 22.57 36.041 22.885 35.578 C 22.885 35.583 22.885 35.585 22.885 35.585 C 22.885 35.585 22.905 35.555 22.941 35.495 C 23.014 35.384 23.055 35.313 23.055 35.313 C 23.055 35.313 23.056 35.305 23.058 35.291 C 23.341 34.802 23.967 33.685 24.905 31.843 C 26.118 29.462 27.281 26.48 27.281 26.48 C 27.281 26.48 27.389 27.208 27.744 28.415 C 27.952 29.125 28.395 29.908 28.745 30.661 C 28.464 31.052 28.292 31.275 28.292 31.275 C 28.292 31.275 28.293 31.28 28.296 31.287 C 28.071 31.586 27.819 31.907 27.555 32.222 C 26.597 33.362 25.457 34.665 25.305 35.039 C 25.125 35.483 25.167 35.807 25.515 36.071 C 25.769 36.262 26.221 36.292 26.693 36.261 C 27.553 36.202 28.158 35.989 28.457 35.859 C 28.923 35.695 29.465 35.435 29.974 35.062 C 30.912 34.371 31.479 33.383 31.425 32.075 C 31.394 31.354 31.164 30.639 30.874 29.965 C 30.959 29.843 31.044 29.719 31.13 29.594 C 32.61 27.43 33.759 25.052 33.759 25.052 C 33.759 25.052 33.867 25.78 34.222 26.987 C 34.401 27.597 34.755 28.263 35.074 28.916 C 33.682 30.047 32.819 31.361 32.519 32.223 C 31.965 33.818 32.399 34.54 33.213 34.705 C 33.581 34.779 34.103 34.61 34.494 34.444 C 34.982 34.283 35.567 34.013 36.116 33.611 C 37.055 32.92 37.958 31.954 37.904 30.646 C 37.878 30.05 37.716 29.459 37.498 28.892 C 38.678 28.4 40.205 28.127 42.152 28.354 C 46.326 28.841 47.145 31.448 46.989 32.539 C 46.832 33.629 45.957 34.229 45.663 34.411 C 45.37 34.592 45.281 34.655 45.305 34.789 C 45.341 34.984 45.477 34.978 45.726 34.935 C 46.07 34.877 47.918 34.048 47.997 32.035 C 48.096 29.475 45.647 26.667 41.309 26.69 Z M 9.131 37.538 C 7.747 39.046 5.816 39.616 4.987 39.136 C 4.093 38.618 4.447 36.397 6.144 34.796 C 7.179 33.82 8.513 32.921 9.4 32.368 C 9.601 32.247 9.897 32.069 10.257 31.853 C 10.317 31.82 10.35 31.801 10.35 31.801 L 10.349 31.799 C 10.42 31.757 10.491 31.715 10.564 31.67 C 11.182 33.949 10.583 35.955 9.131 37.538 Z M 19.205 30.691 C 18.724 31.864 17.716 34.869 17.103 34.707 C 16.575 34.569 16.254 32.285 16.997 30.038 C 17.37 28.907 18.169 27.555 18.639 27.031 C 19.393 26.186 20.224 25.91 20.425 26.253 C 20.682 26.689 19.507 29.954 19.205 30.691 Z M 27.528 34.661 C 27.324 34.768 27.136 34.835 27.049 34.784 C 26.986 34.745 27.133 34.605 27.133 34.605 C 27.133 34.605 28.175 33.484 28.584 32.975 C 28.824 32.678 29.1 32.326 29.4 31.933 C 29.403 31.972 29.404 32.012 29.404 32.05 C 29.402 33.392 28.106 34.297 27.528 34.661 Z M 33.939 33.2 C 33.786 33.092 33.813 32.741 34.313 31.649 C 34.51 31.221 34.959 30.5 35.738 29.81 C 35.829 30.094 35.883 30.365 35.882 30.619 C 35.872 32.307 34.667 32.938 33.939 33.2 Z"/>
</svg>