<?xml version="1.0" encoding="utf-8"?>
<svg fill="none" height="48px" viewBox="0 0 48 48" width="48px" xmlns="http://www.w3.org/2000/svg">
  <path d="M 6.226 44.23 L 4.738 4.61 C 4.69 3.302 5.693 2.194 6.999 2.112 L 40.7 0.005 C 42.029 -0.079 43.177 0.934 43.258 2.263 C 43.263 2.314 43.263 2.364 43.263 2.414 L 43.263 45.586 C 43.263 46.92 42.183 48 40.851 48 C 40.815 48 40.779 48 40.743 47.998 L 8.53 46.55 C 7.275 46.495 6.272 45.485 6.226 44.23 Z" fill="#FF4785"/>
  <path clip-rule="evenodd" d="M 35.598 4.402 L 30.959 4.692 L 30.733 10.131 C 30.731 10.215 30.755 10.296 30.808 10.364 C 30.928 10.522 31.153 10.553 31.312 10.433 L 33.424 8.83 L 35.209 10.236 C 35.277 10.289 35.358 10.316 35.445 10.313 C 35.644 10.306 35.797 10.14 35.793 9.941 L 35.598 4.402 Z M 31.989 22.618 C 31.139 23.278 24.815 23.727 24.815 22.788 C 24.949 19.205 23.344 19.049 22.453 19.049 C 21.606 19.049 20.181 19.304 20.181 21.224 C 20.181 23.18 22.264 24.284 24.709 25.58 C 28.185 27.42 32.389 29.65 32.389 35.256 C 32.389 40.63 28.024 43.599 22.453 43.599 C 16.705 43.599 11.682 41.273 12.251 33.212 C 12.472 32.266 19.78 32.489 19.78 33.212 C 19.691 36.538 20.449 37.517 22.365 37.517 C 23.833 37.517 24.503 36.706 24.503 35.34 C 24.503 33.276 22.331 32.057 19.835 30.656 C 16.453 28.757 12.472 26.523 12.472 21.394 C 12.472 16.277 15.993 12.864 22.276 12.864 C 28.557 12.864 31.989 16.224 31.989 22.618 Z" fill="white" fill-rule="evenodd"/>
</svg>