<?xml version="1.0" encoding="utf-8"?>
<svg viewBox="0 0 24 24" width="24px" height="24px" xmlns="http://www.w3.org/2000/svg">
  <path d="M 21.582 6.186 C 21.352 5.326 20.674 4.648 19.814 4.418 C 18.254 4 12 4 12 4 C 12 4 5.746 4 4.186 4.418 C 3.326 4.648 2.648 5.326 2.418 6.186 C 2 7.746 2 12 2 12 C 2 12 2 16.254 2.418 17.814 C 2.648 18.674 3.326 19.352 4.186 19.582 C 5.746 20 12 20 12 20 C 12 20 18.254 20 19.814 19.582 C 20.675 19.352 21.352 18.674 21.582 17.814 C 22 16.254 22 12 22 12 C 22 12 22 7.746 21.582 6.186 Z M 10 14.598 L 10 9.402 C 10 9.017 10.417 8.777 10.75 8.969 L 15.25 11.567 C 15.583 11.759 15.583 12.241 15.25 12.433 L 10.75 15.031 C 10.417 15.224 10 14.983 10 14.598 Z"/>
</svg>