<?xml version="1.0" encoding="utf-8"?>
<svg viewBox="0 0 48 48" width="48px" height="48px" xmlns="http://www.w3.org/2000/svg">
  <path d="M 43.164 12.372 C 42.704 10.652 41.348 9.296 39.628 8.836 C 36.508 8 24 8 24 8 C 24 8 11.492 8 8.372 8.836 C 6.652 9.296 5.296 10.652 4.836 12.372 C 4 15.492 4 24 4 24 C 4 24 4 32.508 4.836 35.628 C 5.296 37.348 6.652 38.704 8.372 39.164 C 11.492 40 24 40 24 40 C 24 40 36.508 40 39.628 39.164 C 41.35 38.704 42.704 37.348 43.164 35.628 C 44 32.508 44 24 44 24 C 44 24 44 15.492 43.164 12.372 Z M 20 29.196 L 20 18.804 C 20 18.034 20.834 17.554 21.5 17.938 L 30.5 23.134 C 31.166 23.518 31.166 24.482 30.5 24.866 L 21.5 30.062 C 20.834 30.448 20 29.966 20 29.196 Z"/>
</svg>