<?xml version="1.0" encoding="utf-8"?>
<svg viewBox="0 0 48 48" width="48px" height="48px" xmlns="http://www.w3.org/2000/svg">
  <defs/>
  <path fill="#F4511E" d="M 43.158 22 L 26 4.842 C 25.474 4.316 24.737 4 24 4 C 24 4 24 4 24 4 C 23.263 4 22.526 4.316 22 4.842 L 18.316 8.526 L 22.632 12.842 C 23.053 12.632 23.474 12.526 24 12.526 C 25.789 12.526 27.158 13.895 27.158 15.684 C 27.158 16.211 27.053 16.632 26.842 17.053 L 31.053 21.263 C 31.474 21.053 31.895 20.947 32.421 20.947 C 34.211 20.947 35.579 22.316 35.579 24.105 C 35.579 25.895 34.211 27.263 32.421 27.263 C 30.632 27.263 29.263 25.895 29.263 24.105 C 29.263 23.579 29.368 23.158 29.579 22.737 L 25.368 18.526 C 25.263 18.526 25.158 18.632 25.053 18.632 L 25.053 29.579 C 26.316 30 27.158 31.158 27.158 32.526 C 27.158 34.316 25.789 35.684 24 35.684 C 22.211 35.684 20.842 34.316 20.842 32.526 C 20.842 31.158 21.684 30 22.947 29.579 L 22.947 18.526 C 21.684 18.105 20.842 16.947 20.842 15.579 C 20.842 15.053 20.947 14.632 21.158 14.211 L 16.842 9.895 L 4.842 22 C 4.316 22.526 4 23.263 4 24 C 4 24.737 4.316 25.474 4.842 26 L 22 43.158 C 22 43.158 22 43.158 22 43.158 C 22.526 43.684 23.263 44 24 44 C 24.737 44 25.474 43.684 26 43.158 L 43.158 26 C 43.684 25.474 44 24.737 44 24 C 44 23.263 43.684 22.526 43.158 22 Z"/>
</svg>