<?xml version="1.0" encoding="utf-8"?>
<svg viewBox="0 0 48 48" width="48px" height="48px" xmlns="http://www.w3.org/2000/svg">
  <path d="M 24 0 C 10.746 0 0 10.914 0 24.376 C 0 35.798 7.744 45.355 18.184 48 C 18.072 47.671 18 47.289 18 46.816 L 18 42.65 C 17.026 42.65 15.394 42.65 14.984 42.65 C 13.342 42.65 11.882 41.932 11.174 40.6 C 10.388 39.119 10.252 36.854 8.304 35.469 C 7.726 35.008 8.166 34.482 8.832 34.553 C 10.062 34.906 11.082 35.763 12.042 37.035 C 12.998 38.309 13.448 38.597 15.234 38.597 C 16.1 38.597 17.395 38.546 18.615 38.351 C 19.272 36.659 20.406 35.101 21.792 34.366 C 13.8 33.531 9.986 29.493 9.986 24.01 C 9.986 21.65 10.976 19.367 12.658 17.443 C 12.106 15.533 11.412 11.639 12.87 10.157 C 16.466 10.157 18.64 12.525 19.162 13.165 C 20.954 12.541 22.922 12.188 24.99 12.188 C 27.062 12.188 29.038 12.541 30.834 13.169 C 31.35 12.533 33.526 10.157 37.129 10.157 C 38.593 11.641 37.891 15.552 37.334 17.457 C 39.006 19.377 39.99 21.654 39.99 24.01 C 39.99 29.489 36.182 33.525 28.202 34.364 C 30.398 35.528 32 38.798 32 41.262 L 32 46.816 C 32 47.027 31.953 47.179 31.93 47.36 C 41.281 44.031 48 35.012 48 24.376 C 48 10.914 37.253 0 24 0 Z"/>
</svg>