<?xml version="1.0" encoding="utf-8"?>
<svg fill="none" height="48px" viewBox="0 0 48 48" width="48px" xmlns="http://www.w3.org/2000/svg">
  <path d="M 9.189 40.858 L 7.949 7.842 C 7.909 6.752 8.745 5.828 9.833 5.76 L 37.917 4.004 C 39.025 3.934 39.981 4.778 40.049 5.886 C 40.053 5.928 40.053 5.97 40.053 6.012 L 40.053 41.988 C 40.053 43.1 39.153 44 38.043 44 C 38.013 44 37.983 44 37.953 43.998 L 11.109 42.792 C 10.063 42.746 9.227 41.904 9.189 40.858 Z" fill="#FF4785"/>
  <path clip-rule="evenodd" d="M 35.709 4 L 31.843 4.242 L 31.655 8.774 C 31.653 8.844 31.673 8.912 31.717 8.968 C 31.817 9.1 32.005 9.126 32.137 9.026 L 33.897 7.69 L 35.385 8.862 C 35.441 8.906 35.509 8.928 35.581 8.926 C 35.747 8.92 35.875 8.782 35.871 8.616 L 35.709 4 Z M 32.701 19.18 C 31.993 19.73 26.723 20.104 26.723 19.322 C 26.835 16.336 25.497 16.206 24.755 16.206 C 24.049 16.206 22.861 16.418 22.861 18.018 C 22.861 19.648 24.597 20.568 26.635 21.648 C 29.531 23.182 33.035 25.04 33.035 29.712 C 33.035 34.19 29.397 36.664 24.755 36.664 C 19.965 36.664 15.779 34.726 16.253 28.008 C 16.437 27.22 22.527 27.406 22.527 28.008 C 22.453 30.78 23.085 31.596 24.681 31.596 C 25.905 31.596 26.463 30.92 26.463 29.782 C 26.463 28.062 24.653 27.046 22.573 25.878 C 19.755 24.296 16.437 22.434 16.437 18.16 C 16.437 13.896 19.371 11.052 24.607 11.052 C 29.841 11.052 32.701 13.852 32.701 19.18 Z" fill="white" fill-rule="evenodd"/>
</svg>