<?xml version="1.0" encoding="utf-8"?>
<svg viewBox="0 0 48 48" width="48px" height="48px" xmlns="http://www.w3.org/2000/svg">
  <title>file_type_tailwind</title>
  <path d="M 12 19.2 C 13.6 12.8 17.6 9.6 24 9.6 C 33.6 9.6 34.8 16.8 39.6 18 C 42.8 18.8 45.6 17.6 48 14.4 C 46.4 20.8 42.4 24 36 24 C 26.4 24 25.2 16.8 20.4 15.6 C 17.2 14.8 14.4 16 12 19.2 Z M 0 33.6 C 1.6 27.2 5.6 24 12 24 C 21.6 24 22.8 31.2 27.6 32.4 C 30.8 33.2 33.6 32 36 28.8 C 34.4 35.2 30.4 38.4 24 38.4 C 14.4 38.4 13.2 31.2 8.4 30 C 5.2 29.2 2.4 30.4 0 33.6 Z" style="fill:#44a8b3"/>
</svg>