<?xml version="1.0" encoding="utf-8"?>
<svg viewBox="0 0 48 48" width="48px" height="48px" xmlns="http://www.w3.org/2000/svg">
  <linearGradient id="a" gradientUnits="userSpaceOnUse" x1="53.496" x2="177.932" y1="247.701" y2="115.323" gradientTransform="matrix(0.189268, 0, 0, 0.189268, 1.163559, 1.114994)">
    <stop offset="0" stop-color="#e01d84"/>
    <stop offset="0.401" stop-color="#df1d85"/>
    <stop offset="0.77" stop-color="#932c87"/>
    <stop offset="1" stop-color="#5d2f88"/>
  </linearGradient>
  <radialGradient id="b" cx="190.456" cy="80.2" gradientTransform="matrix(0.189268, 0.000452, -0.000378, 0.158265, 1.193846, 3.515839)" gradientUnits="userSpaceOnUse" r="121.582">
    <stop offset="0" stop-color="#e01d84"/>
    <stop offset="0.139" stop-color="#de1e85"/>
    <stop offset="0.285" stop-color="#d62085"/>
    <stop offset="0.434" stop-color="#c92386"/>
    <stop offset="0.586" stop-color="#b72786"/>
    <stop offset="0.739" stop-color="#9d2b87"/>
    <stop offset="0.891" stop-color="#7c2e88"/>
    <stop offset="1" stop-color="#5d2f88"/>
  </radialGradient>
  <linearGradient id="c" gradientUnits="userSpaceOnUse" x1="83.212" x2="137.371" y1="62.336" y2="62.336" gradientTransform="matrix(0.189268, 0, 0, 0.189268, 1.163559, 1.114994)">
    <stop offset="0" stop-color="#e01d84"/>
    <stop offset="0.238" stop-color="#da1e85"/>
    <stop offset="0.658" stop-color="#c72085"/>
    <stop offset="0.999" stop-color="#b52284"/>
  </linearGradient>
  <g transform="matrix(1, 0, 0, 1, -4.000012, -3.944377)">
    <path d="M 6.766 34.294 C 5.782 31.228 5.498 27.992 6.065 24.661 C 6.311 23.278 6.69 21.953 7.107 20.611 C 7.107 20.611 9.718 12.037 18.557 8.119 C 18.557 8.119 21.604 6.51 26.184 6.396 C 26.184 6.396 25.56 5.791 25.163 5.526 C 23.005 4.087 19.787 3.614 17.838 5.64 C 17.252 6.244 16.76 6.907 16.21 7.513 C 15.586 8.194 14.829 8.762 13.958 9.084 C 13.2 9.368 12.444 9.31 11.668 9.444 C 10.872 9.576 10.059 9.86 9.416 10.371 C 8.715 10.939 8.432 11.696 8.356 12.566 C 8.28 13.248 8.298 13.948 8.261 14.629 C 8.166 16.635 7.523 17.203 6.084 18.32 C 5.478 18.775 4.968 19.38 4.589 20.023 C 3.454 22.029 5.271 24.111 5.366 26.137 C 5.384 26.553 5.346 26.969 5.195 27.367 C 5.044 27.802 4.74 28.087 4.494 28.445 C 4.154 28.919 3.927 29.487 4.022 30.074 C 4.116 30.661 4.419 31.209 4.703 31.72 C 5.252 32.629 5.933 33.442 6.652 34.219 C 6.69 34.219 6.728 34.256 6.766 34.294" fill="#e32286" style=""/>
    <path d="M 42.879 41.563 C 47.231 39.669 49.086 36.395 49.086 36.395 C 53.155 30.849 51.774 25.001 51.774 25.001 C 49.181 30.641 46.815 32.193 46.815 32.193 C 53.194 22.484 46.853 16.617 46.853 16.617 C 49.446 22.143 46.001 28.881 46.001 28.881 C 43.105 34.976 38.998 37.151 38.998 37.151 C 43.578 38.003 46.948 34.918 46.948 34.918 C 40.38 42.016 33.263 41.675 33.263 41.675 C 36.253 45.026 40.739 44.741 40.739 44.741 C 34.872 46.124 29.364 44.174 24.84 40.407 C 23.989 39.707 23.176 38.95 22.419 38.137 C 22.419 38.137 21.737 37.417 21.604 37.228 L 21.586 37.209 C 21.491 40.711 25.144 43.966 25.144 43.966 C 20.564 42.073 18.462 37.966 18.462 37.966 C 18.462 37.966 15.377 32.704 17.612 26.704 C 19.845 20.704 26.601 19.418 26.601 19.418 C 32.184 22.124 36.916 22.976 36.916 22.976 C 46.89 24.641 46.323 19.759 46.323 19.759 C 46.417 15.556 40.077 11.09 40.077 11.09 C 28.777 2.706 18.557 8.119 18.557 8.119 C 9.718 12.037 7.107 20.611 7.107 20.611 C 6.69 21.953 6.311 23.278 6.065 24.661 C 5.1 30.281 6.557 35.6 9.718 40.331 C 14.639 47.675 22.626 50.211 22.626 50.211 C 34.456 54.224 42.538 48.319 42.538 48.319 C 49.975 43.209 51.471 37.304 51.471 37.304 C 45.471 41.997 42.879 41.563 42.879 41.563 Z M 33.642 13.948 C 34.21 13.948 34.663 14.402 34.663 14.97 C 34.663 15.537 34.21 15.992 33.642 15.992 C 33.075 15.992 32.62 15.537 32.62 14.97 C 32.62 14.402 33.075 13.948 33.642 13.948 Z" fill="url(#a)" style=""/>
    <path d="M 46.303 19.74 C 46.398 15.537 40.059 11.071 40.059 11.071 C 28.758 2.706 18.538 8.119 18.538 8.119 C 9.7 12.037 7.088 20.611 7.088 20.611 C 6.576 22.067 6.123 24.301 6.123 24.301 C 5.573 27.101 5.819 29.695 5.819 29.695 C 6.047 32.174 6.596 33.839 6.596 33.839 C 7.163 35.619 7.428 36.167 7.428 36.167 C 7.409 36.111 7.314 35.695 7.314 35.695 C 7.314 35.695 6.52 31.871 7.258 28.199 C 7.258 28.199 7.901 24.376 10.514 21.424 C 10.514 21.424 14.753 15.386 22.645 17.752 C 22.645 17.752 24.348 18.358 24.935 18.661 C 25.522 18.945 26.544 19.38 26.544 19.38 C 32.128 22.087 36.859 22.939 36.859 22.939 C 46.872 24.622 46.303 19.74 46.303 19.74 Z M 33.642 16.011 C 33.075 16.011 32.62 15.556 32.62 14.989 C 32.62 14.421 33.075 13.966 33.642 13.966 C 34.21 13.966 34.663 14.421 34.663 14.989 C 34.663 15.556 34.21 16.011 33.642 16.011 Z" fill="url(#b)" style=""/>
    <path d="M 27.168 12.13 L 20.715 10.125 C 20.678 10.125 20.488 10.03 20.147 10.125 C 20.147 10.125 16.343 11.09 17.006 13.172 C 17.006 13.172 17.403 14.478 18.482 15.746 L 25.579 15.405 L 27.168 12.13 Z" fill="url(#c)" style=""/>
  </g>
</svg>