<?xml version="1.0" encoding="utf-8"?>
<svg width="1024" height="1024" xmlns="http://www.w3.org/2000/svg">
  <path fill="#030A20" d="M0 0L148.578 0L314.098 0L571.556 0L1024 0L1024 0.504035L1024 53.2626L1024 129.838L1024 232.091L1024 287.037L1024 365.249L1024 427.345L1024 521.519L1024 593.78L1024 700.034L1024 776.158L1024 852.911L1024 888.745L1024 958.913L1024 1023.67L1024 1024L880.418 1024L742.082 1024L730.758 1024L725.618 1024L442.246 1024L0 1024L0 961.853L0 873.137L0 758.137L0 684.781L0 590.667L0 530.438L0 465.121L0 417.599L0 318.255L0 245.339L0 176.05L0 142.048L0 73.524L0 0Z"/>
  <path fill="#F4C72B" d="M0 417.599C9.7949 420.761 19.6043 423.986 29.5975 426.472Q54.5127 432.509 79.9973 435.293C225.842 452.05 341.465 379.149 459.227 305.035Q521.419 265.298 585.87 229.339C632.261 203.811 682.05 180.073 733.532 167.024C825.705 143.661 895.205 159.301 977.585 204.559C993.367 213.23 1008.54 222.871 1024 232.091L1024 287.037C1009.77 278.079 995.745 268.995 980.816 261.228C911.941 225.397 844.807 218.365 769.368 235.571C692.046 253.207 609.265 297.901 541.955 339.64C503.629 363.407 466.065 388.374 427.885 412.373C335.745 470.288 235.841 524.67 122.963 508.207C91.0231 503.548 60.5731 493.876 31.2625 480.467C20.7395 475.652 10.6091 469.657 0 465.121L0 417.599Z"/>
  <defs>
    <linearGradient id="gradient_0" gradientUnits="userSpaceOnUse" x1="1005.3932" y1="560.78485" x2="13.958123" y2="427.5972">
      <stop offset="0" stop-color="#EDC049"/>
      <stop offset="1" stop-color="#FFE983"/>
    </linearGradient>
  </defs>
  <path fill="url(#gradient_0)" d="M0 530.438C20.9916 538.755 40.739 550.1 60.5867 560.785C101.226 582.664 139.775 600.486 186.47 604.001C283.476 611.301 370.714 558.709 450.013 509.633C497.538 480.221 543.881 449.043 591.825 420.28C646.597 387.42 705.283 357.303 766.602 338.958C860.26 310.937 938.156 318.899 1024 365.249L1024 427.345C1008.24 420.852 992.283 414.742 975.816 410.273C891.601 387.416 809.879 402.852 730.624 435.879C662.452 464.287 599.623 503.895 537.473 543.4C499.581 567.486 462.07 592.221 423.141 614.626C336.437 664.529 245.157 700.845 146.821 660.509C96.0016 639.663 53.971 606.595 0 590.667L0 530.438Z"/>
  <path fill="#030A20" d="M0 590.667C53.971 606.595 96.0016 639.663 146.821 660.509C245.157 700.845 336.437 664.529 423.141 614.626C462.07 592.221 499.581 567.486 537.473 543.4C599.623 503.895 662.452 464.287 730.624 435.879C809.879 402.852 891.601 387.416 975.816 410.273C992.283 414.742 1008.24 420.852 1024 427.345L1024 521.519L1024 593.78C994.332 587.536 964.88 583.118 934.498 582.746C819.95 581.347 713.668 634.564 617.944 692.503C581.944 714.293 546.839 737.572 510.716 759.17C455.741 792.041 396.125 824.032 331.904 833.013C269.941 841.678 211.068 822.581 154.829 798.384C132.242 788.666 110.196 778.053 86.6045 770.834C58.0561 762.099 29.7664 758.56 0 758.137L0 684.781L0 590.667Z"/>
  <path fill="#F4C72B" d="M0 684.781C35.6413 690.486 68.8198 702.042 101.34 717.523C136.018 734.032 169.039 752.984 206.589 762.535Q211.567 763.813 216.595 764.88Q221.623 765.948 226.692 766.801Q231.76 767.655 236.86 768.294Q241.96 768.934 247.082 769.357Q252.205 769.78 257.34 769.987Q262.476 770.194 267.616 770.184Q272.756 770.173 277.891 769.946Q283.025 769.719 288.146 769.275C366.437 761.948 443.87 714.301 509.289 673.209Q565.81 636.922 623.522 602.56Q649.454 587.388 676.14 573.585Q702.826 559.782 730.194 547.386C743.629 541.417 757.153 535.287 770.951 530.21C858.784 497.892 934.378 498.636 1024 521.519L1024 593.78C994.332 587.536 964.88 583.118 934.498 582.746C819.95 581.347 713.668 634.564 617.944 692.503C581.944 714.293 546.839 737.572 510.716 759.17C455.741 792.041 396.125 824.032 331.904 833.013C269.941 841.678 211.068 822.581 154.829 798.384C132.242 788.666 110.196 778.053 86.6045 770.834C58.0561 762.099 29.7664 758.56 0 758.137L0 684.781Z"/>
  <path fill="#030A20" d="M0 0L148.578 0L314.098 0L571.556 0L1024 0L1024 0.504035L1024 53.2626L1024 129.838L1024 232.091C1008.54 222.871 993.367 213.23 977.585 204.559C895.205 159.301 825.705 143.661 733.532 167.024C682.05 180.073 632.261 203.811 585.87 229.339Q521.419 265.298 459.227 305.035C341.465 379.149 225.842 452.05 79.9973 435.293Q54.5127 432.509 29.5975 426.472C19.6043 423.986 9.7949 420.761 0 417.599L0 318.255L0 245.339L0 176.05L0 142.048L0 73.524L0 0Z"/>
  <path d="M615.854 47.1068C629.453 42.8948 643.975 40.416 657.999 38.0726C701.982 30.7236 746.118 31.4291 790.309 36.6384C846.98 43.3188 906.535 57.3143 963.401 58.0038C983.872 58.252 1003.82 56.5305 1024 53.2626L1024 129.838C973.488 125.11 932.242 112.815 883.928 98.7052C809.173 76.874 744.782 73.6521 669.231 94.1326C652.342 98.7108 636.09 104.638 619.531 110.207Q585.405 123.618 552.157 139.078Q518.909 154.538 486.663 171.991C354.574 242.091 209.254 336.255 53.7986 326.271C35.6586 325.106 17.7456 322.102 0 318.255L0 245.339C34.4469 247.218 63.5371 247.588 97.999 243.865C242.825 228.216 364.699 146.012 495.25 89.3871Q518.312 79.1383 541.964 70.3339Q565.616 61.5295 589.766 54.2031C598.226 51.6619 607.139 48.4267 615.854 47.1068Z" style="fill: rgb(244, 199, 43);"/>
  <defs/>
  <path fill="#030A20" d="M0 0L148.578 0L314.098 0L571.556 0L1024 0L1024 0.504035L1024 53.2626C1003.82 56.5305 983.872 58.252 963.401 58.0038C906.535 57.3143 846.98 43.3188 790.309 36.6384C746.118 31.4291 701.982 30.7236 657.999 38.0726C643.975 40.416 629.453 42.8948 615.854 47.1068C607.139 48.4267 598.226 51.6619 589.766 54.2031Q565.616 61.5295 541.964 70.3339Q518.312 79.1383 495.25 89.3871C364.699 146.012 242.825 228.216 97.999 243.865C63.5371 247.588 34.4469 247.218 0 245.339L0 176.05L0 142.048L0 73.524L0 0Z"/>
  <path fill="#131A37" d="M571.556 0L1024 0L1024 0.504035C1005.88 -0.221365 987.451 0.463774 969.299 0.480487L865.881 0.467619L571.49 0.503338L571.556 0Z"/>
  <defs/>
  <path d="M0 0L148.578 0L314.098 0L571.556 0L571.49 0.503338C553.808 1.01882 531.221 6.42733 513.803 10.3599C462.696 21.8988 413.919 38.6144 365.482 58.5284C313.238 80.0074 262.217 104.406 209.476 124.726C173.658 138.526 137.008 151.28 99.645 160.214Q75.0424 165.917 50.1004 169.881Q25.1585 173.845 0 176.05L0 142.048L0 73.524L0 0Z" style="fill: rgb(244, 199, 43);"/>
  <path fill="#030A20" d="M0 0L148.578 0L314.098 0C303.054 5.26728 291.29 9.334 280.044 14.194C261.066 22.396 242.262 31.4161 223.734 40.598C170.277 67.0887 118.072 97.0516 62.9472 120.005C42.4476 128.54 21.2052 135.504 0 142.048L0 73.524L0 0Z"/>
  <path fill="#F4C72B" d="M0 0L148.578 0C130.306 11.0333 111.208 21.0862 92.3341 31.0612C62.4881 46.8352 32.0652 62.7235 0 73.524L0 0Z"/>
  <path fill="#030A20" d="M0 758.137C29.7664 758.56 58.0561 762.099 86.6045 770.834C110.196 778.053 132.242 788.666 154.829 798.384C211.068 822.581 269.941 841.678 331.904 833.013C396.125 824.032 455.741 792.041 510.716 759.17C546.839 737.572 581.944 714.293 617.944 692.503C713.668 634.564 819.95 581.347 934.498 582.746C964.88 583.118 994.332 587.536 1024 593.78L1024 700.034L1024 776.158L1024 852.911L1024 888.745L1024 958.913L1024 1023.67L1024 1024L880.418 1024L742.082 1024L730.758 1024L725.618 1024L442.246 1024L0 1024L0 961.853L0 873.137L0 758.137Z"/>
  <path d="M 796.105 726.748 C 802.279 723.122 819.93 718.552 827.362 716.23 C 891.571 696.168 957.391 689.902 1024 700.034 L 1024 776.158 C 1008.88 775.13 993.78 774.241 978.611 774.584 C 919.003 775.93 860.365 791.279 804.965 812.551 L 804.721 811.677 C 808.536 809.44 813.592 808.114 817.759 806.595 C 832.775 801.122 848.415 795.635 863.826 791.337 C 865.517 790.865 867.301 790.851 868.978 790.391 C 870.185 790.06 870.493 789.577 870.978 788.499 C 868.959 788.468 868.638 788.376 866.862 789.504 L 866.716 788.731 L 866.629 789.26 C 865.731 787.094 865.865 787.124 866.739 784.923 C 866.147 779.854 857.039 777.735 854.745 772.916 C 853.749 770.825 852.023 768.944 851.372 766.731 C 849.229 759.455 850.087 743.092 851.634 735.416 C 852.501 731.109 854.313 726.035 854.291 721.645 C 854.281 719.683 853.265 717.998 851.948 716.628 C 851.09 717.11 851.574 716.949 850.475 717.04 L 850.384 716.022 C 850.746 715.735 851.404 715.235 851.69 714.899 C 852.454 714.001 852.4 713.48 852.354 712.395 C 852.029 712.08 851.998 712.008 851.523 711.788 C 849.747 710.964 846.682 711.181 844.95 711.938 C 838.777 714.637 831.321 716.022 824.807 718.013 C 815.455 720.871 806.293 724.241 796.972 727.178 L 796.105 726.748 Z M 796.105 726.748 L 796.972 727.178 C 806.293 724.241 815.455 720.871 824.807 718.013 C 831.321 716.022 838.777 714.637 844.95 711.938 C 846.682 711.181 849.747 710.964 851.523 711.788 C 851.998 712.008 852.029 712.08 852.354 712.395 C 852.4 713.48 852.454 714.001 851.69 714.899 C 851.404 715.235 850.746 715.735 850.384 716.022 L 850.475 717.04 C 851.574 716.949 851.09 717.11 851.948 716.628 C 853.265 717.998 854.281 719.683 854.291 721.645 C 854.313 726.035 852.501 731.109 851.634 735.416 C 850.087 743.092 849.229 759.455 851.372 766.731 C 852.023 768.944 853.749 770.825 854.745 772.916 C 857.039 777.735 866.147 779.854 866.739 784.923 C 865.865 787.124 865.731 787.094 866.629 789.26 L 866.716 788.731 L 866.862 789.504 C 868.638 788.376 868.959 788.468 870.978 788.499 C 870.493 789.577 870.185 790.06 868.978 790.391 C 867.301 790.851 865.517 790.865 863.826 791.337 C 848.415 795.635 832.775 801.122 817.759 806.595 C 813.592 808.114 808.536 809.44 804.721 811.677 L 804.965 812.551 C 751.706 833.06 700.572 858.341 649.554 883.8 C 610.333 903.373 570.594 923.931 529.438 939.115 C 479.985 958.106 425.441 970.024 372.215 965.437 C 366.346 965.948 359.332 964.735 353.45 964.177 C 329.463 961.903 305.718 958.106 281.973 954.098 C 208.748 941.738 138.637 932.766 64.5472 945.784 C 42.6034 949.639 21.2796 955.346 0 961.853 L 0 873.137 C 70.4256 864.679 124.268 871.028 192.587 887.912 C 239.881 899.6 286.452 912.865 335.488 914.772 C 440.885 918.871 530.322 862.571 618.491 812.496 C 661.757 787.923 705.57 763.885 751.371 744.326 C 765.971 738.091 780.948 731.461 796.105 726.748 Z" style="fill: rgb(244, 199, 43);"/>
  <path fill="#030A20" d="M804.965 812.551C860.365 791.279 919.003 775.93 978.611 774.584C993.78 774.241 1008.88 775.13 1024 776.158L1024 852.911L1024 888.745L1024 958.913L1024 1023.67L1024 1024L880.418 1024L742.082 1024L730.758 1024L725.618 1024L442.246 1024L0 1024L0 961.853C21.2796 955.346 42.6034 949.639 64.5472 945.784C138.637 932.766 208.748 941.738 281.973 954.098C305.718 958.106 329.463 961.903 353.45 964.177C359.332 964.735 366.346 965.948 372.215 965.437C425.441 970.024 479.985 958.106 529.438 939.115C570.594 923.931 610.333 903.373 649.554 883.8C700.572 858.341 751.706 833.06 804.965 812.551Z"/>
  <path d="M442.246 1024C447.393 1022.89 453.418 1023.12 458.69 1022.85Q473.553 1022.2 488.377 1020.94Q501.899 1019.66 515.334 1017.67Q528.77 1015.68 542.082 1012.98Q555.395 1010.29 568.547 1006.9Q581.699 1003.51 594.655 999.429C656.777 979.396 715.408 951.018 775.038 924.805C852.242 890.867 939.352 857.877 1024 852.911L1024 888.745L1024 958.913L1024 1023.67L1024 1024L880.418 1024L742.082 1024L730.758 1024L725.618 1024L442.246 1024Z" style="fill: rgb(244, 199, 43);"/>
  <path fill="#030A20" d="M725.618 1024C728.824 1022.18 732.738 1020.96 736.163 1019.57L757.298 1010.87Q782.71 1000.44 807.358 988.312C831.923 976.489 855.682 963.247 879.927 950.817C926.619 926.88 973.94 904.753 1024 888.745L1024 958.913L1024 1023.67L1024 1024L880.418 1024L742.082 1024L730.758 1024L725.618 1024Z"/>
  <path fill="#131A37" d="M730.758 1024C734.407 1023.16 738.455 1023.44 742.194 1023.43L742.082 1024L730.758 1024Z"/>
  <path fill="#131A37" d="M742.194 1023.43C753.206 1022.83 764.441 1023.31 775.476 1023.38L833.795 1023.71L865.129 1023.68C870.025 1023.63 875.484 1022.99 880.288 1023.56L880.418 1024L742.082 1024L742.194 1023.43Z"/>
  <defs/>
  <path d="M1024 958.913L1024 1023.67L1024 1024L880.418 1024L880.288 1023.56L883.167 1022.81C887.815 1018.95 904.07 1012.17 910.159 1009.19C947.835 990.744 983.77 971.711 1024 958.913Z" style="fill: rgb(244, 199, 43);"/>
  <path fill="#131A37" d="M883.167 1022.81C895.47 1022.68 907.772 1023.4 920.076 1023.52L983.143 1023.63C996.695 1023.72 1010.47 1024.28 1024 1023.67L1024 1024L880.418 1024L880.288 1023.56L883.167 1022.81Z"/>
</svg>