<?xml version="1.0" encoding="utf-8"?>
<svg width="638" height="424" viewBox="0 0 512 512" xmlns="http://www.w3.org/2000/svg">
  <defs/>
  <rect width="512" height="512" style="stroke: rgba(0, 0, 0, 0); stroke-opacity: 0; stroke-width: 0px; fill: rgb(0, 140, 0);"/>
  <path d="M 375.268 82.181 C 375.66 82.078 376.254 82.097 376.645 82.234 C 381.441 83.913 387.36 81.578 392.496 81.787 C 397.413 81.988 423.482 86.547 427.128 88.877 C 428.976 90.91 429.988 95.139 430.313 97.833 C 429.358 100.067 426.488 101.033 424.392 102.069 C 420.424 104.03 416.502 105.941 412.235 107.176 C 401.446 110.294 390.137 110.712 379.425 114.52 C 368.919 118.255 359.462 123.3 349.643 128.516 C 350.641 129.065 351.62 129.648 352.622 130.19 C 355.757 131.885 356.609 130.996 359.753 130.04 C 362.021 130.152 364.341 132.086 366.206 133.32 C 364.944 136.039 363.973 138.315 363.707 141.329 L 354.867 141.243 C 353.483 143.089 352.028 144.888 351.015 146.975 C 351.562 148.326 342.021 150.503 340.704 150.671 C 326.89 152.431 316.543 159.477 304.739 165.833 C 293.199 172.047 281.464 176.76 273.11 187.514 C 273.058 188.552 275.812 191.745 277.162 191.992 C 277.574 191.272 280.608 190.773 281.113 191.599 L 281.288 191.894 C 284.696 193.069 290.114 192.331 293.8 192.325 C 293.777 195.066 293.976 197.494 291.817 199.539 C 288.895 202.302 282.577 201.342 278.82 201.258 C 270.635 207.775 262.063 213.884 254.113 220.705 C 252.861 221.779 249.222 226.579 248.071 226.926 C 246.712 227.334 246.259 226.436 245.037 227.677 C 242.445 230.31 240.811 233.905 238.471 236.769 C 235.259 240.705 231.287 244.099 227.865 247.864 C 222.396 253.881 217.277 261.497 210.777 266.366 C 217.347 266.394 226.209 262.778 231.15 263.907 C 231.941 265.256 232.705 266.775 232.462 268.393 C 232.085 270.899 229.417 272.321 227.233 272.996 C 216.664 276.263 205.745 279.88 198.46 288.654 C 195.507 292.211 193.059 296.227 189.835 299.555 C 185.864 303.654 180.806 306.574 176.402 310.168 C 172.53 313.329 157.248 333.782 156.867 337.929 C 158.215 340.642 158.534 341.876 156.521 343.187 C 156.521 343.187 159.792 346.529 159.911 347.817 C 159.185 350.096 157.077 351.402 155.262 352.808 C 153.902 356.486 157.192 356.88 158.166 359.865 C 158.223 360.039 157.021 362.444 156.356 364.073 C 155.876 365.242 154.179 366.474 153.227 367.349 C 144.997 374.923 136.134 377.163 126.604 382.126 C 121.672 384.696 116.778 387.717 112.434 391.202 C 109.573 393.497 103.301 401.524 101.568 402.569 C 100.866 402.992 99.379 402.704 98.664 403.068 C 94.982 404.944 88.571 427.781 82.84 430.226 C 82.173 429.816 82.013 429.838 81.84 429.057 C 80.5 423.006 88.36 403.293 90.424 396.343 C 96.654 375.355 103.289 354.725 110.295 333.986 C 113.158 325.515 115.526 316.573 119.089 308.368 C 120.931 304.131 123.26 300.025 125.284 295.864 C 129.687 286.818 133.96 277.793 139.179 269.173 C 140.952 266.245 143.752 264.288 145.586 261.475 C 147.791 258.089 149.493 254.365 151.674 250.945 C 158.218 240.67 165.109 230.572 171.535 220.232 C 173.716 216.717 174.394 212.514 176.527 209.05 C 180.045 203.332 184.547 197.892 188.571 192.512 C 194.685 184.335 200.949 176.024 207.99 168.618 C 218.97 157.072 235.19 144.434 248.25 135.1 C 251.361 132.875 254.76 131.062 257.87 128.84 C 262.007 125.884 265.304 121.766 269.335 118.629 C 276.289 113.218 297.982 103.397 306.533 101.427 C 307.535 100.329 312.997 98.729 314.112 98.298 C 332.788 91.089 355.354 84.1 375.268 82.181 Z"/>
  <path fill="#F0EFEF" d="M 312.926 102.628 C 324.536 98.49 343.128 90.177 354.782 90.502 C 343.501 95.896 322.196 99.474 314.119 105.866 C 314.353 105.193 314.516 104.519 314.69 103.828 L 312.926 102.628 Z"/>
  <path d="M 191.975 194.738 C 192.88 195.37 193.843 195.746 194.854 196.163 C 196.21 195.821 197.298 195.566 198.697 195.688 C 197.28 199.369 191.23 203.12 191.123 206.979 C 186.418 212.193 181.687 217.352 178.048 223.42 C 178.096 223.511 178.145 223.6 178.193 223.69 C 178.669 224.602 178.815 225.158 178.841 226.186 C 176.458 231.68 166.092 241.795 161.969 248.818 C 146.306 275.763 132.391 303.583 120.221 332.277 L 119.861 331.625 C 118.926 331.892 117.87 331.608 116.999 331.233 C 112.323 329.212 121.341 317.283 119.731 313.079 C 122.681 304.182 128.284 295.266 132.505 286.852 C 134.499 282.872 136.122 278.246 138.524 274.528 C 140.894 270.853 144.805 268.313 147.101 264.51 C 149.087 261.218 150.732 257.731 152.747 254.45 C 156.277 248.709 160.257 243.243 163.825 237.526 C 168.152 230.581 171.797 223.902 176.967 217.459 C 178.918 216.815 188.784 198.147 191.975 194.738 Z M 176.967 217.459 C 177.459 215.792 178.135 214.201 178.995 212.69 C 191.667 190.609 208.942 169.391 228.798 153.396 C 239.101 145.095 250.322 137.802 261.167 130.259 C 277.82 118.674 293.134 108.063 312.926 102.628 L 314.69 103.828 C 314.516 104.519 314.353 105.193 314.119 105.866 C 310.437 108.145 306.935 110.153 303.991 113.38 C 302.254 113.443 300.351 113.445 298.737 114.147 C 297.631 114.629 296.53 115.272 295.501 115.901 C 292.23 117.901 289.587 120.778 286.229 122.693 C 281.911 125.156 277.131 126.25 273 129.156 C 267.874 132.761 263.746 137.725 258.882 141.678 C 255.438 144.476 251.739 146.945 248.248 149.683 C 244.804 152.387 241.592 155.379 238.186 158.13 C 235.111 160.611 231.866 162.879 229.144 165.767 C 226.726 168.33 224.549 171.12 222.111 173.67 C 219.123 176.791 215.778 179.558 212.859 182.753 C 208.924 187.06 193.907 205.207 191.123 206.979 C 191.23 203.12 197.28 199.369 198.697 195.688 C 197.298 195.566 196.21 195.821 194.854 196.163 C 193.843 195.746 192.88 195.37 191.975 194.738 C 188.784 198.147 178.918 216.815 176.967 217.459 Z M 119.731 313.079 C 121.341 317.283 112.323 329.212 116.999 331.233 C 117.87 331.608 118.926 331.892 119.861 331.625 L 120.221 332.277 C 117.613 341.097 111.321 348.903 107.961 357.555 C 104.536 366.372 90.278 417.722 87.021 420.491 C 86.92 420.203 86.816 419.959 86.767 419.658 C 85.854 414.203 89.709 406.095 92.707 401.645 L 93.041 394.658 C 93.489 394.003 93.915 393.336 94.347 392.671 C 98.117 386.903 99.755 373.444 101.87 366.363 C 105.222 355.134 109.142 344.094 112.877 332.994 C 115.113 326.349 117.006 319.544 119.731 313.079 Z" style="fill: rgb(240, 239, 239);"/>
  <path fill="#F0EFEF" d="M 377.172 88.259 C 380.985 87.842 390.867 87.879 391.904 87.91 C 399.898 88.155 412.932 90.402 418.605 96.394 C 413.366 98.415 408.047 100.27 402.484 101.172 C 395.639 102.284 388.778 102.51 382.022 104.239 C 378.705 105.088 364.364 111.54 363.653 111.595 C 361.751 110.228 357.809 109.83 356.439 111.103 C 353.425 111.2 349.122 114.785 349.122 114.785 C 346.928 115.83 341.156 120.36 340.796 121.916 C 339.458 122.584 338.601 123.094 337.739 124.344 C 337.445 124.771 334.525 134.398 334.658 136.973 C 334.714 138.072 336.414 142.066 336.3 142.372 C 336.053 143.036 325.81 146.121 324.414 146.579 C 319.085 148.329 314.563 151.135 309.555 153.587 C 288.219 164.037 273.819 173.718 258.652 192.319 C 257.568 193.65 255.229 194.364 254.824 195.083 C 255.456 196.947 256.401 200.986 257.987 202.199 C 261.031 204.528 264.168 199.422 266.957 199.119 C 267.291 204.506 253.353 211.229 249.434 214.318 C 244.499 218.209 224.912 238.274 224.538 238.387 C 223.184 238.799 219.338 245.307 218.306 246.678 C 210.833 256.59 195.555 267.143 185.044 273.683 L 183.389 277.464 C 183.383 278.84 183.585 279.845 184.575 280.869 C 186.721 283.088 191.445 282.801 194.223 282.754 C 185.992 293.15 175.465 301.824 166.398 311.562 C 162.905 315.313 160.633 320.057 157.228 323.927 C 156.28 324.058 152.09 328.734 150.024 331.958 C 150.1 332.818 150.271 333.828 150.037 334.668 C 149.766 335.642 148.651 337.946 148.501 338.401 C 148.037 339.827 146.702 340.21 145.479 340.866 C 143.434 346.933 138.994 357.417 135.06 362.258 C 129.185 369.492 119.363 374.584 111.872 380.069 C 107.638 383.169 103.816 386.796 99.978 390.366 C 100.404 389.647 100.807 388.914 101.241 388.201 C 104.06 383.581 104.934 378.05 107.794 373.519 C 108.446 372.484 109.317 370.842 110.509 370.559 L 113.24 366.597 C 113.24 366.597 111.612 364.504 111.558 364.182 C 111.244 362.343 112.567 359.198 113.256 357.504 C 117.677 346.637 123.582 336.34 128.515 325.694 C 133.913 314.045 138.457 301.91 144.328 290.473 C 146.417 286.403 149.096 282.603 151.637 278.803 C 151.633 276.837 151.813 274.878 151.963 272.921 C 156.084 267.108 159.781 261.056 163.774 255.169 C 166.327 251.406 169.265 247.941 171.87 244.222 C 177.203 236.6 182.208 228.722 187.536 221.071 C 192.443 214.025 197.068 206.836 202.455 200.12 C 215.947 183.304 236.476 162.747 253.43 149.369 C 259.905 144.259 267.125 140.586 273.935 136.057 C 277.946 133.388 281.447 130.019 285.539 127.444 C 290.311 124.438 295.496 122.03 300.419 119.276 C 307.061 115.558 313.354 111.252 320.131 107.765 C 333.308 100.985 362.414 89.869 377.172 88.259 Z"/>
</svg>