<?xml version="1.0" encoding="utf-8"?>
<svg viewBox="0 0 48 48" width="48px" height="48px" xmlns="http://www.w3.org/2000/svg">
  <defs/>
  <path fill="#E65100" d="M 41.894 4 L 6.105 4 L 9.263 39.789 L 24 44 L 38.737 39.789 L 41.894 4 Z"/>
  <path fill="#FF6D00" d="M 24 7.158 L 24 40.737 L 35.789 37.368 L 38.421 7.158 L 24 7.158 Z"/>
  <path fill="#FFF" d="M 24 25.053 L 24 20.842 L 33.052 20.842 L 32.316 32.947 L 24 35.684 L 24 31.263 L 28.316 29.789 L 28.631 25.053 L 24 25.053 Z M 33.368 16.632 L 33.684 12.421 L 24 12.421 L 24 16.632 L 33.368 16.632 Z"/>
  <path fill="#EEE" d="M 24 31.263 L 24 35.684 L 15.684 32.947 L 15.263 27.158 L 19.473 27.158 L 19.684 29.789 L 24 31.263 Z M 18.842 16.632 L 24 16.632 L 24 12.421 L 14.421 12.421 L 15.158 25.053 L 24 25.053 L 24 20.842 L 19.158 20.842 L 18.842 16.632 Z"/>
</svg>