<?xml version="1.0" encoding="utf-8"?>
<svg fill="#FAB005" viewBox="0 0 48 48" width="48px" height="48px" xmlns="http://www.w3.org/2000/svg">
  <defs/>
  <path d="M 41.463 4 L 6.541 4 C 5.138 4 4 5.138 4 6.541 L 4 41.459 C 4 42.862 5.138 44 6.541 44 L 41.459 44 C 42.862 44 44 42.862 44 41.463 L 44 6.541 C 44 5.138 42.862 4 41.463 4 Z M 25.905 34.651 C 25.905 38.457 23.673 40.19 20.414 40.19 C 17.467 40.19 15.343 38.215 14.476 36.381 L 17.471 34.569 C 18.048 35.592 18.926 36.381 20.19 36.381 C 21.4 36.381 22.095 35.908 22.095 34.071 L 22.095 22.095 L 25.905 22.095 L 25.905 34.651 Z M 34.167 40.19 C 30.793 40.19 28.877 38.49 27.81 36.381 L 30.667 34.476 C 31.444 35.749 32.292 36.965 34.086 36.965 C 35.592 36.965 36.381 36.214 36.381 35.172 C 36.381 33.929 35.563 33.487 33.907 32.761 L 32.999 32.371 C 30.376 31.254 28.632 29.856 28.632 26.894 C 28.632 24.171 30.711 22.095 33.955 22.095 C 36.266 22.095 37.925 22.899 39.123 25.004 L 36.295 26.824 C 35.67 25.704 35.001 25.265 33.955 25.265 C 32.891 25.265 32.218 25.942 32.218 26.824 C 32.218 27.914 32.891 28.353 34.45 29.03 L 35.358 29.42 C 38.449 30.741 40.19 32.092 40.19 35.127 C 40.19 38.397 37.62 40.19 34.167 40.19 Z"/>
</svg>