<?xml version="1.0" encoding="utf-8"?>
<svg width="48px" height="48px" fill="none" viewBox="0 0 48 48" xmlns="http://www.w3.org/2000/svg">
  <g transform="matrix(1, 0, 0, 1, -4, -4)">
    <path d="M 49.995 4 L 26.864 4 C 26.864 9.75 31.544 14.43 37.293 14.43 L 41.571 14.43 L 41.571 18.507 C 41.571 24.257 46.251 28.935 52 28.935 L 52 6.006 C 52 4.871 51.131 4 49.995 4 Z" fill="#1868DB" clip-path="url(#clip0_2967_1690)"/>
    <path d="M 38.562 15.498 L 15.432 15.498 C 15.432 21.248 20.111 25.928 25.86 25.928 L 30.14 25.928 L 30.14 30.072 C 30.14 35.82 34.818 40.499 40.568 40.499 L 40.568 17.504 C 40.568 16.433 39.699 15.498 38.562 15.498 Z" fill="#1868DB" clip-path="url(#clip0_2967_1690)"/>
    <path d="M 27.13 27.065 L 4 27.065 C 4 32.813 8.68 37.493 14.429 37.493 L 18.707 37.493 L 18.707 41.57 C 18.707 47.32 23.387 52 29.136 52 L 29.136 29.069 C 29.136 27.934 28.2 27.065 27.13 27.065 Z" fill="#1868DB" clip-path="url(#clip0_2967_1690)"/>
  </g>
</svg>