<?xml version="1.0" encoding="utf-8"?>
<svg viewBox="0 0 48 48" width="48px" height="48px" xmlns="http://www.w3.org/2000/svg">
  <path d="M 38.476 5 L 9.524 5 C 7.027 5 5 7.027 5 9.524 L 5 38.476 C 5 40.973 7.027 43 9.524 43 L 38.476 43 C 40.973 43 43 40.973 43 38.476 L 43 9.524 C 43 7.027 40.973 5 38.476 5 Z M 16.762 19.476 L 16.762 36.667 L 11.333 36.667 L 11.333 19.476 L 16.762 19.476 Z M 11.333 14.473 C 11.333 13.206 12.419 12.238 14.048 12.238 C 15.676 12.238 16.697 13.206 16.762 14.473 C 16.762 15.741 15.747 16.762 14.048 16.762 C 12.419 16.762 11.333 15.741 11.333 14.473 Z M 36.667 36.667 L 31.238 36.667 C 31.238 36.667 31.238 28.287 31.238 27.619 C 31.238 25.811 30.333 24 28.073 23.964 L 27.999 23.964 C 25.811 23.964 24.905 25.828 24.905 27.619 C 24.905 28.442 24.905 36.667 24.905 36.667 L 19.476 36.667 L 19.476 19.476 L 24.905 19.476 L 24.905 21.792 C 24.905 21.792 26.651 19.476 30.163 19.476 C 33.753 19.476 36.667 21.946 36.667 26.951 L 36.667 36.667 Z"/>
</svg>