<?xml version="1.0" encoding="utf-8"?>
<svg viewBox="0 0 48 48" width="48px" height="48px" xmlns="http://www.w3.org/2000/svg">
  <defs/>
  <title>material_design</title>
  <ellipse style="fill: rgb(1, 99, 154); paint-order: fill; stroke: rgba(0, 0, 0, 0); stroke-opacity: 0; stroke-width: 0px;" cx="24" cy="24" rx="20" ry="20"/>
  <path d="M 38.316 24 C 38.302 20.746 37.181 17.593 35.134 15.061 L 35.134 32.955 C 37.209 30.434 38.336 27.265 38.316 24 M 32.955 35.134 L 15.061 35.134 C 16.348 36.104 17.782 36.861 19.308 37.377 C 20.807 37.954 22.395 38.272 24 38.316 C 25.633 38.282 27.248 37.965 28.772 37.377 C 30.273 36.849 31.685 36.092 32.955 35.134 M 22.41 31.953 L 16.047 19.228 L 16.047 31.953 L 22.41 31.953 M 31.953 19.228 L 25.59 31.953 L 31.953 31.953 L 31.953 19.228 M 24 28.025 L 29.965 16.047 L 18.035 16.047 L 24 28.025 M 32.955 12.865 C 27.745 8.623 20.271 8.623 15.061 12.865 L 32.955 12.865 M 12.865 32.955 L 12.865 15.061 C 10.82 17.593 9.698 20.746 9.684 24 C 9.665 27.265 10.791 30.434 12.865 32.955 M 41.497 24 C 41.577 28.656 39.723 33.138 36.376 36.376 C 33.138 39.723 28.656 41.577 24 41.497 C 19.345 41.573 14.865 39.719 11.625 36.376 C 8.277 33.138 6.423 28.656 6.502 24 C 6.427 19.345 8.28 14.865 11.625 11.625 C 14.865 8.28 19.345 6.427 24 6.502 C 28.656 6.423 33.138 8.277 36.376 11.625 C 39.719 14.865 41.573 19.345 41.497 24 Z" style="fill: rgb(255, 255, 255);"/>
</svg>