<?xml version="1.0" encoding="utf-8"?>
<svg viewBox="0 0 48 48" width="48px" height="48px" xmlns="http://www.w3.org/2000/svg">
  <defs/>
  <linearGradient id="a" gradientUnits="userSpaceOnUse" x1="53.496" x2="177.932" y1="247.701" y2="115.323" gradientTransform="matrix(0.157724, 0, 0, 0.157724, 1.636274, 1.642477)">
    <stop offset="0" stop-color="#e01d84"/>
    <stop offset="0.401" stop-color="#df1d85"/>
    <stop offset="0.77" stop-color="#932c87"/>
    <stop offset="1" stop-color="#5d2f88"/>
  </linearGradient>
  <radialGradient id="b" cx="190.456" cy="80.2" gradientTransform="matrix(0.157724, 0.000377, -0.000315, 0.131888, 1.661513, 3.643194)" gradientUnits="userSpaceOnUse" r="121.582">
    <stop offset="0" stop-color="#e01d84"/>
    <stop offset="0.139" stop-color="#de1e85"/>
    <stop offset="0.285" stop-color="#d62085"/>
    <stop offset="0.434" stop-color="#c92386"/>
    <stop offset="0.586" stop-color="#b72786"/>
    <stop offset="0.739" stop-color="#9d2b87"/>
    <stop offset="0.891" stop-color="#7c2e88"/>
    <stop offset="1" stop-color="#5d2f88"/>
  </radialGradient>
  <linearGradient id="c" gradientUnits="userSpaceOnUse" x1="83.212" x2="137.371" y1="62.336" y2="62.336" gradientTransform="matrix(0.157724, 0, 0, 0.157724, 1.636274, 1.642477)">
    <stop offset="0" stop-color="#e01d84"/>
    <stop offset="0.238" stop-color="#da1e85"/>
    <stop offset="0.658" stop-color="#c72085"/>
    <stop offset="0.999" stop-color="#b52284"/>
  </linearGradient>
  <path d="M 6.305 29.292 C 5.485 26.737 5.248 24.04 5.721 21.264 C 5.926 20.112 6.242 19.008 6.589 17.889 C 6.589 17.889 8.765 10.744 16.131 7.479 C 16.131 7.479 18.67 6.138 22.487 6.043 C 22.487 6.043 21.967 5.539 21.636 5.318 C 19.838 4.119 17.156 3.725 15.532 5.413 C 15.043 5.917 14.633 6.469 14.175 6.974 C 13.655 7.542 13.024 8.015 12.298 8.283 C 11.667 8.52 11.037 8.472 10.39 8.583 C 9.727 8.693 9.049 8.93 8.513 9.356 C 7.929 9.829 7.693 10.46 7.63 11.185 C 7.567 11.753 7.582 12.337 7.551 12.904 C 7.472 14.576 6.936 15.049 5.737 15.98 C 5.232 16.359 4.807 16.863 4.491 17.399 C 3.545 19.071 5.059 20.806 5.138 22.494 C 5.153 22.841 5.122 23.188 4.996 23.519 C 4.87 23.882 4.617 24.119 4.412 24.418 C 4.128 24.813 3.939 25.286 4.018 25.775 C 4.097 26.264 4.349 26.721 4.586 27.147 C 5.043 27.904 5.611 28.582 6.21 29.229 C 6.242 29.229 6.273 29.26 6.305 29.292" fill="#e32286" style=""/>
  <path d="M 36.399 35.349 C 40.026 33.771 41.572 31.043 41.572 31.043 C 44.963 26.421 43.812 21.548 43.812 21.548 C 41.651 26.248 39.679 27.541 39.679 27.541 C 44.995 19.45 39.711 14.561 39.711 14.561 C 41.872 19.166 39.001 24.781 39.001 24.781 C 36.588 29.86 33.165 31.673 33.165 31.673 C 36.982 32.383 39.79 29.812 39.79 29.812 C 34.317 35.727 28.386 35.443 28.386 35.443 C 30.878 38.235 34.616 37.998 34.616 37.998 C 29.727 39.15 25.137 37.525 21.367 34.386 C 20.658 33.803 19.98 33.172 19.349 32.494 C 19.349 32.494 18.781 31.894 18.67 31.737 L 18.655 31.721 C 18.576 34.639 21.62 37.352 21.62 37.352 C 17.803 35.774 16.052 32.352 16.052 32.352 C 16.052 32.352 13.481 27.967 15.343 22.967 C 17.204 17.967 22.834 16.895 22.834 16.895 C 27.487 19.15 31.43 19.86 31.43 19.86 C 39.742 21.248 39.269 17.179 39.269 17.179 C 39.348 13.677 34.064 9.955 34.064 9.955 C 24.648 2.968 16.131 7.479 16.131 7.479 C 8.765 10.744 6.589 17.889 6.589 17.889 C 6.242 19.008 5.926 20.112 5.721 21.264 C 4.917 25.948 6.131 30.38 8.765 34.323 C 12.866 40.443 19.522 42.556 19.522 42.556 C 29.38 45.9 36.115 40.979 36.115 40.979 C 42.313 36.721 43.559 31.8 43.559 31.8 C 38.559 35.711 36.399 35.349 36.399 35.349 Z M 28.702 12.337 C 29.175 12.337 29.553 12.715 29.553 13.188 C 29.553 13.661 29.175 14.04 28.702 14.04 C 28.229 14.04 27.85 13.661 27.85 13.188 C 27.85 12.715 28.229 12.337 28.702 12.337 Z" fill="url(#a)" style=""/>
  <path d="M 39.253 17.163 C 39.332 13.661 34.049 9.939 34.049 9.939 C 24.632 2.968 16.115 7.479 16.115 7.479 C 8.75 10.744 6.573 17.889 6.573 17.889 C 6.147 19.103 5.769 20.964 5.769 20.964 C 5.311 23.298 5.516 25.459 5.516 25.459 C 5.706 27.525 6.163 28.913 6.163 28.913 C 6.636 30.396 6.857 30.853 6.857 30.853 C 6.841 30.806 6.762 30.459 6.762 30.459 C 6.762 30.459 6.1 27.273 6.715 24.213 C 6.715 24.213 7.251 21.027 9.428 18.567 C 9.428 18.567 12.961 13.535 19.538 15.507 C 19.538 15.507 20.957 16.012 21.446 16.264 C 21.935 16.501 22.787 16.863 22.787 16.863 C 27.44 19.119 31.383 19.829 31.383 19.829 C 39.727 21.232 39.253 17.163 39.253 17.163 Z M 28.702 14.056 C 28.229 14.056 27.85 13.677 27.85 13.204 C 27.85 12.731 28.229 12.352 28.702 12.352 C 29.175 12.352 29.553 12.731 29.553 13.204 C 29.553 13.677 29.175 14.056 28.702 14.056 Z" fill="url(#b)" style=""/>
  <path d="M 23.307 10.822 L 17.929 9.151 C 17.898 9.151 17.74 9.072 17.456 9.151 C 17.456 9.151 14.286 9.955 14.838 11.69 C 14.838 11.69 15.169 12.778 16.068 13.835 L 21.983 13.551 L 23.307 10.822 Z" fill="url(#c)" style=""/>
</svg>