<?xml version="1.0" encoding="utf-8"?>
<svg viewBox="0 0 48 48" width="48px" height="48px" xmlns="http://www.w3.org/2000/svg">
  <defs/>
  <title>file_type_tailwind</title>
  <path d="M 14 20 C 15.333 14.667 18.667 12 24 12 C 32 12 33 18 37 19 C 39.667 19.667 42 18.667 44 16 C 42.667 21.333 39.333 24 34 24 C 26 24 25 18 21 17 C 18.333 16.333 16 17.333 14 20 Z M 4 32 C 5.333 26.667 8.667 24 14 24 C 22 24 23 30 27 31 C 29.667 31.667 32 30.667 34 28 C 32.667 33.333 29.333 36 24 36 C 16 36 15 30 11 29 C 8.333 28.333 6 29.333 4 32 Z" style="fill:#44a8b3"/>
</svg>