<?xml version="1.0" encoding="utf-8"?>
<svg width="48px" height="48px" viewBox="0 0 48 48" fill="none" xmlns="http://www.w3.org/2000/svg">
  <path fill="#5059C9" d="M 31.9 19.358 L 42.231 19.358 C 43.209 19.358 44 20.146 44 21.12 L 44 30.515 C 43.997 34.1 41.088 37.004 37.503 37 L 37.474 37 C 33.889 37.004 30.98 34.1 30.977 30.515 L 30.977 20.283 C 30.977 19.772 31.391 19.36 31.9 19.36 L 31.9 19.358 Z M 38.886 17.5 C 41.194 17.5 43.069 15.629 43.069 13.323 C 43.069 11.015 41.194 9.143 38.883 9.143 C 36.571 9.143 34.697 11.015 34.697 13.323 C 34.697 15.629 36.571 17.5 38.883 17.5 L 38.886 17.5 Z"/>
  <path fill="#7B83EB" d="M 25.86 17.5 C 29.197 17.505 31.905 14.803 31.909 11.466 C 31.907 8.127 29.196 5.423 25.857 5.429 C 22.521 5.426 19.815 8.127 19.811 11.463 C 19.811 14.798 22.517 17.5 25.857 17.5 L 25.86 17.5 Z M 33.923 19.358 L 16.866 19.358 C 15.903 19.381 15.14 20.18 15.163 21.143 L 15.163 31.858 C 15.034 37.64 19.612 42.435 25.394 42.572 C 31.178 42.436 35.758 37.641 35.629 31.858 L 35.629 21.143 C 35.651 20.179 34.887 19.379 33.923 19.358 Z"/>
  <path fill="#000000" d="M 26.326 19.358 L 26.326 34.372 C 26.321 35.31 25.561 36.069 24.623 36.072 L 15.98 36.072 C 15.439 34.732 15.161 33.3 15.16 31.855 L 15.16 21.143 C 15.138 20.18 15.902 19.381 16.866 19.36 L 26.323 19.36 L 26.326 19.358 Z" opacity=".1"/>
  <path fill="#000000" d="M 25.394 19.358 L 25.394 35.3 C 25.386 36.237 24.628 36.994 23.691 37 L 16.42 37 C 16.099 36.411 15.843 35.788 15.657 35.143 C 15.332 34.078 15.167 32.971 15.166 31.858 L 15.166 21.138 C 15.143 20.175 15.906 19.377 16.869 19.355 L 25.397 19.355 L 25.394 19.358 Z" opacity=".2"/>
  <path fill="#000000" d="M 25.394 19.358 L 25.394 33.443 C 25.386 34.38 24.628 35.137 23.691 35.143 L 15.657 35.143 C 15.332 34.078 15.167 32.971 15.166 31.858 L 15.166 21.138 C 15.143 20.175 15.906 19.377 16.869 19.355 L 25.397 19.355 L 25.394 19.358 Z" opacity=".2"/>
  <path fill="#000000" d="M 24.466 19.358 L 24.466 33.443 C 24.458 34.38 23.7 35.137 22.763 35.143 L 15.654 35.143 C 15.329 34.078 15.164 32.971 15.163 31.858 L 15.163 21.138 C 15.141 20.175 15.903 19.377 16.866 19.355 L 24.466 19.355 L 24.466 19.358 Z" opacity=".2"/>
  <path fill="#000000" d="M 26.326 14.558 L 26.326 17.483 C 26.169 17.492 26.02 17.5 25.86 17.5 C 25.703 17.5 25.554 17.492 25.394 17.483 C 22.776 17.282 20.588 15.412 19.98 12.858 L 24.623 12.858 C 25.56 12.861 26.319 13.618 26.326 14.555 L 26.326 14.558 Z" opacity=".1"/>
  <path fill="#000000" d="M 25.394 15.486 L 25.394 17.483 C 23.131 17.31 21.156 15.883 20.28 13.789 L 23.694 13.789 C 24.63 13.794 25.388 14.55 25.394 15.486 Z" opacity=".2"/>
  <path fill="#000000" d="M 25.394 15.486 L 25.394 17.483 C 23.131 17.31 21.156 15.883 20.28 13.789 L 23.694 13.789 C 24.63 13.794 25.388 14.55 25.394 15.486 Z" opacity=".2"/>
  <path fill="#000000" d="M 24.466 15.486 L 24.466 17.335 C 22.583 16.89 21.027 15.571 20.28 13.786 L 22.766 13.786 C 23.703 13.791 24.461 14.549 24.466 15.486 Z" opacity=".2"/>
  <path fill="url(#microsoft-teams-color-16__paint0_linear_2372_494)" d="M 5.706 13.786 L 22.76 13.786 C 23.703 13.786 24.466 14.549 24.466 15.489 L 24.466 32.512 C 24.466 33.453 23.702 34.216 22.76 34.215 L 5.703 34.215 C 4.762 34.215 4 33.452 4 32.512 L 4 15.489 C 4 14.546 4.763 13.786 5.706 13.786 Z"/>
  <path fill="#ffffff" d="M 18.72 20.266 L 15.311 20.266 L 15.311 29.532 L 13.14 29.532 L 13.14 20.266 L 9.743 20.266 L 9.743 18.466 L 18.717 18.466 L 18.717 20.266 L 18.72 20.266 Z"/>
  <defs>
    <linearGradient id="microsoft-teams-color-16__paint0_linear_2372_494" x1="2.244" x2="6.906" y1="4.46" y2="12.548" gradientUnits="userSpaceOnUse" gradientTransform="matrix(2.857143, 0, 0, 2.857143, 1.142857, -0.285775)">
      <stop stop-color="#5A62C3"/>
      <stop offset="0.5" stop-color="#4D55BD"/>
      <stop offset="1" stop-color="#3940AB"/>
    </linearGradient>
  </defs>
</svg>