<?xml version="1.0" encoding="utf-8"?>
<svg viewBox="0 0 48 48" width="48px" height="48px" xmlns="http://www.w3.org/2000/svg">
  <linearGradient id="atmafua87GAY-Q3DVUuwga" x1="6" x2="42" y1="24" y2="24" gradientUnits="userSpaceOnUse" gradientTransform="matrix(1.333333, 0, 0, 1.333333, -8.000001, -8.000001)">
    <stop offset="0" stop-color="#0d61a9"/>
    <stop offset="1" stop-color="#16528c"/>
  </linearGradient>
  <path fill="url(#atmafua87GAY-Q3DVUuwga)" d="M 45.334 0 L 2.666 0 C 1.193 0 0 1.193 0 2.666 L 0 45.334 C 0 46.807 1.193 48 2.666 48 L 45.334 48 C 46.807 48 48 46.807 48 45.334 L 48 2.666 C 48 1.193 46.807 0 45.334 0 Z"/>
  <path fill="#fff" d="M 30.684 34.461 C 31.159 34.972 31.537 35.512 32.037 35.893 C 33.124 36.719 34.353 36.863 35.622 36.328 C 36.232 36.071 36.588 35.573 36.609 34.905 C 36.628 34.315 36.343 33.831 35.828 33.561 C 34.835 33.04 33.794 32.609 32.813 32.067 C 31.934 31.583 31.016 31.102 30.279 30.438 C 28.324 28.678 28.328 25.23 30.139 23.465 C 31.125 22.505 32.315 22.041 33.695 22.005 C 38.237 22.005 39.258 24.867 39.258 24.867 C 38.505 25.412 36.398 26.768 36.398 26.768 C 36.021 26.189 35.25 25.454 34.557 25.324 C 33.687 25.16 32.878 25.491 32.602 26.165 C 32.284 26.941 32.56 27.71 33.426 28.172 C 34.458 28.722 35.531 29.198 36.585 29.708 C 37.617 30.207 38.606 30.781 39.316 31.709 C 41.112 34.058 40.755 38.553 36.643 39.619 C 34.395 40.202 32.198 40.069 30.133 38.862 C 29.16 38.294 28.254 37.196 27.698 36.24 C 27.7 36.24 29.773 34.993 30.684 34.461 Z" style=""/>
  <polygon fill="#fff" points="14 22 14 25.197 19.24 25.197 19.24 39.886 22.394 39.886 22.45 25.197 27.7 25.197 27.7 22" style=""/>
</svg>