<?xml version="1.0" encoding="utf-8"?>
<svg width="48px" height="48px" viewBox="0 0 48 48" fill="none" xmlns="http://www.w3.org/2000/svg">
  <path d="M 34.003 5.596 C 34.003 4.34 32.598 4.34 31.972 4.497 C 32.848 3.806 33.873 3.973 34.238 4.183 L 42.684 8.324 C 43.49 8.72 44 9.542 44 10.442 L 44 37.69 C 44 38.603 43.476 39.433 42.654 39.82 L 34.706 43.578 C 34.158 43.814 32.972 44.396 31.972 43.578 C 33.222 43.814 33.898 42.926 34.003 42.323 L 34.003 5.596 Z" fill="url(#paint0_linear_87_8101)"/>
  <path d="M 32.073 4.474 C 32.738 4.343 34.003 4.404 34.003 5.596 L 34.003 14.976 L 8.392 34.35 C 7.942 34.688 7.312 34.633 6.932 34.22 L 4.292 31.364 C 3.878 30.918 3.907 30.216 4.357 29.804 L 31.972 4.497 L 32.073 4.474 Z" fill="url(#paint1_linear_87_8101)"/>
  <path d="M 34.003 33.102 L 8.392 13.726 C 7.942 13.388 7.312 13.443 6.932 13.856 L 4.292 16.713 C 3.878 17.16 3.907 17.86 4.357 18.272 L 31.972 43.58 C 33.222 43.814 33.898 42.926 34.003 42.324 L 34.003 33.102 Z" fill="url(#paint2_linear_87_8101)"/>
  <defs>
    <linearGradient id="paint0_linear_87_8101" x1="23.79" y1="2" x2="23.79" y2="30" gradientUnits="userSpaceOnUse" gradientTransform="matrix(1.428572, 0, 0, 1.428572, 4.000386, 1.143319)">
      <stop stop-color="#32B5F1"/>
      <stop offset="1" stop-color="#2B9FED"/>
    </linearGradient>
    <linearGradient id="paint1_linear_87_8101" x1="21.0018" y1="5.53398" x2="1.0217" y2="22.3051" gradientUnits="userSpaceOnUse" gradientTransform="matrix(1.428572, 0, 0, 1.428572, 4.000386, 1.143319)">
      <stop stop-color="#0F6FB3"/>
      <stop offset="0.2706" stop-color="#1279B7"/>
      <stop offset="0.4214" stop-color="#1176B5"/>
      <stop offset="0.6182" stop-color="#0E69AC"/>
      <stop offset="0.8553" stop-color="#0F70AF"/>
      <stop offset="1" stop-color="#0F6DAD"/>
    </linearGradient>
    <linearGradient id="paint2_linear_87_8101" x1="1.15522" y1="9.98389" x2="21.0791" y2="26.4808" gradientUnits="userSpaceOnUse" gradientTransform="matrix(1.428572, 0, 0, 1.428572, 4.000386, 1.143319)">
      <stop stop-color="#1791D2"/>
      <stop offset="1" stop-color="#1173C5"/>
    </linearGradient>
  </defs>
</svg>