<?xml version="1.0" encoding="utf-8"?>
<svg width="600px" height="600px" xmlns="http://www.w3.org/2000/svg">
  <defs/>
  <path fill="#FFC107" d="M 299.23 44.203 C 310.49 43.198 322.935 44.498 334.1 46.098 C 367.775 50.918 424.73 66.953 445.835 95.339 C 457.44 110.914 462.07 131.299 459.225 150.429 C 457.03 165.134 451.22 178.439 441.455 189.699 C 426.925 206.434 407.055 214.324 385.17 215.089 C 374.88 215.469 364.535 214.809 354.295 216.154 C 352.68 216.389 351.085 216.659 349.49 216.969 C 347.89 217.299 346.31 217.659 344.73 218.079 C 343.165 218.489 341.595 218.959 340.065 219.474 C 338.515 219.989 336.995 220.554 335.475 221.164 C 333.975 221.774 332.485 222.419 331.015 223.124 C 329.54 223.829 328.1 224.579 326.675 225.359 C 325.25 226.159 323.86 226.989 322.48 227.864 C 321.12 228.744 319.77 229.649 318.455 230.624 C 300.58 243.944 288.615 263.344 285.53 285.499 C 285.44 286.154 285.345 286.814 285.265 287.469 C 285.19 288.129 285.125 288.784 285.065 289.444 C 285 290.099 284.935 290.759 284.89 291.414 C 284.845 292.089 284.81 292.744 284.78 293.404 C 284.75 294.059 284.735 294.719 284.72 295.394 C 284.705 296.049 284.705 296.709 284.705 297.364 C 284.705 298.039 284.72 298.694 284.735 299.354 C 284.765 300.024 284.78 300.684 284.83 301.339 C 284.86 301.999 284.905 302.654 284.955 303.314 C 285.015 303.989 285.08 304.644 285.14 305.304 C 285.22 305.959 285.295 306.619 285.375 307.274 C 285.47 307.934 285.565 308.574 285.66 309.234 C 285.765 309.889 285.875 310.549 286 311.189 C 286.11 311.844 286.235 312.489 286.38 313.144 C 286.52 313.789 286.66 314.429 286.815 315.074 C 286.955 315.714 287.115 316.354 287.285 316.999 C 287.46 317.639 287.63 318.279 287.82 318.924 C 288.005 319.549 288.195 320.189 288.395 320.819 C 288.585 321.444 288.805 322.069 289.01 322.694 C 289.225 323.324 289.445 323.949 289.68 324.574 C 289.915 325.184 290.15 325.814 290.4 326.424 C 290.65 327.034 290.9 327.644 291.17 328.254 C 291.42 328.864 291.685 329.459 291.965 330.069 C 292.25 330.664 292.53 331.259 292.83 331.854 C 293.11 332.449 293.425 333.044 293.72 333.624 C 294.035 334.219 294.345 334.799 294.66 335.379 C 294.99 335.959 295.315 336.534 295.645 337.099 C 295.99 337.664 296.335 338.244 296.68 338.789 C 297.025 339.354 297.385 339.919 297.745 340.464 C 298.12 341.014 298.48 341.564 298.855 342.109 C 299.245 342.659 299.625 343.189 300.015 343.724 C 300.405 344.254 300.795 344.789 301.205 345.319 C 301.625 345.884 302.065 346.449 302.505 346.994 C 302.94 347.544 303.395 348.089 303.835 348.639 C 304.29 349.189 304.76 349.719 305.21 350.249 C 305.68 350.784 306.15 351.314 306.635 351.834 C 307.12 352.349 307.61 352.864 308.095 353.369 C 308.595 353.884 309.08 354.384 309.595 354.869 C 310.095 355.369 310.6 355.854 311.115 356.339 C 311.645 356.829 312.165 357.299 312.695 357.764 C 313.215 358.234 313.76 358.704 314.295 359.159 C 314.84 359.614 315.39 360.069 315.935 360.504 C 316.485 360.944 317.05 361.384 317.595 361.804 C 318.16 362.244 318.74 362.669 319.305 363.074 C 319.88 363.494 320.46 363.889 321.04 364.294 C 321.62 364.704 322.215 365.094 322.81 365.469 C 323.405 365.859 324 366.234 324.595 366.594 C 325.205 366.974 325.815 367.334 326.425 367.694 C 327.035 368.054 327.65 368.399 328.275 368.724 C 328.885 369.069 329.51 369.399 330.135 369.729 C 330.78 370.039 331.405 370.369 332.045 370.669 C 332.675 370.979 333.315 371.279 333.955 371.574 C 334.6 371.859 335.255 372.139 335.9 372.419 C 336.555 372.704 337.215 372.969 337.87 373.219 C 338.53 373.484 339.185 373.734 339.845 373.969 C 340.515 374.219 341.175 374.454 341.85 374.674 C 342.52 374.909 343.195 375.114 343.865 375.334 C 344.54 375.534 345.23 375.739 345.905 375.929 C 346.59 376.129 347.265 376.304 347.955 376.474 C 348.645 376.664 349.33 376.819 350.02 376.974 C 350.71 377.134 351.4 377.289 352.085 377.429 C 352.775 377.569 353.48 377.699 354.17 377.824 C 354.875 377.949 355.565 378.059 356.265 378.164 C 356.97 378.274 357.66 378.369 358.365 378.449 C 380.125 381.329 403.86 375.679 420.225 360.584 C 427.63 353.759 434.11 345.664 442.175 339.574 C 442.595 339.259 443.02 338.949 443.44 338.634 C 443.88 338.339 444.3 338.039 444.74 337.744 C 445.18 337.444 445.615 337.149 446.07 336.864 C 446.51 336.584 446.95 336.319 447.4 336.034 C 447.855 335.769 448.31 335.504 448.765 335.239 C 449.22 334.969 449.69 334.719 450.14 334.469 C 450.61 334.219 451.065 333.969 451.535 333.734 C 452.005 333.499 452.49 333.264 452.96 333.044 C 453.43 332.809 453.915 332.589 454.385 332.374 C 454.87 332.169 455.355 331.949 455.84 331.744 C 456.325 331.544 456.81 331.354 457.295 331.149 C 457.8 330.964 458.285 330.774 458.785 330.604 C 459.27 330.429 459.77 330.259 460.27 330.084 C 460.77 329.914 461.275 329.759 461.775 329.599 C 462.275 329.444 462.79 329.304 463.295 329.164 C 463.795 329.019 464.31 328.879 464.81 328.754 C 465.33 328.629 465.845 328.504 466.345 328.394 C 466.865 328.269 467.38 328.159 467.895 328.064 C 468.415 327.959 468.93 327.864 469.445 327.769 C 469.965 327.674 470.48 327.599 471.01 327.519 C 471.53 327.439 472.045 327.364 472.575 327.299 C 473.095 327.239 473.61 327.174 474.145 327.129 C 474.66 327.079 475.19 327.034 475.71 326.984 C 476.24 326.954 476.755 326.924 477.29 326.894 C 477.805 326.859 478.34 326.844 478.87 326.829 C 479.39 326.814 479.92 326.814 480.435 326.814 C 480.97 326.814 481.5 326.814 482.02 326.829 C 482.55 326.844 483.065 326.859 483.6 326.894 C 484.13 326.924 484.65 326.954 485.18 326.984 C 485.695 327.034 486.23 327.079 486.745 327.129 C 487.265 327.174 487.795 327.239 488.31 327.299 C 488.845 327.379 489.36 327.439 489.875 327.519 C 490.44 327.599 490.99 327.689 491.535 327.784 C 492.1 327.894 492.65 327.989 493.195 328.099 C 493.745 328.209 494.29 328.334 494.84 328.459 C 495.39 328.584 495.935 328.709 496.485 328.849 C 497.03 328.989 497.565 329.129 498.115 329.274 C 498.645 329.429 499.195 329.584 499.725 329.744 C 500.255 329.914 500.805 330.084 501.34 330.259 C 501.87 330.429 502.4 330.619 502.92 330.804 C 503.45 330.994 503.985 331.184 504.5 331.384 C 505.035 331.589 505.55 331.794 506.065 332.014 C 506.585 332.229 507.1 332.449 507.615 332.669 C 508.135 332.889 508.65 333.124 509.15 333.374 C 509.65 333.609 510.17 333.844 510.67 334.094 C 511.17 334.359 511.67 334.609 512.155 334.879 C 512.655 335.129 513.16 335.409 513.645 335.674 C 514.13 335.959 514.615 336.239 515.1 336.519 C 515.585 336.804 516.07 337.099 516.54 337.399 C 517.01 337.694 517.48 337.994 517.95 338.304 C 518.42 338.619 518.89 338.934 519.34 339.244 C 519.81 339.574 520.265 339.904 520.72 340.229 C 521.175 340.559 521.63 340.904 522.065 341.234 C 522.505 341.579 522.96 341.924 523.395 342.284 C 523.82 342.644 524.26 342.989 524.68 343.364 C 525.12 343.724 525.54 344.084 525.965 344.459 C 526.37 344.834 526.795 345.209 527.2 345.599 C 527.61 345.979 528.015 346.369 528.425 346.759 C 528.815 347.149 529.22 347.559 529.615 347.949 C 530.005 348.359 530.38 348.764 530.77 349.169 C 531.145 349.594 531.525 349.999 531.9 350.424 C 532.26 350.844 532.635 351.269 532.995 351.709 C 533.355 352.129 533.715 352.569 534.06 353.009 C 534.405 353.444 534.75 353.884 535.095 354.339 C 547.51 370.964 552.125 390.564 549.105 411.089 C 547.76 420.284 544.285 429.629 539.35 437.504 C 535.94 442.954 531.115 447.584 526.81 452.329 C 510.89 469.864 494.105 486.789 475.13 501.034 C 428.285 535.934 377.825 553.014 319.665 555.819 C 317.52 555.929 315.39 556.004 313.245 556.069 C 311.115 556.114 308.97 556.144 306.825 556.144 C 304.695 556.164 302.55 556.129 300.405 556.084 C 298.275 556.039 296.13 555.959 294 555.849 C 291.855 555.754 289.73 555.614 287.6 555.459 C 285.47 555.299 283.325 555.129 281.195 554.909 C 279.08 554.704 276.955 554.469 274.825 554.204 C 272.71 553.939 270.58 553.659 268.465 553.344 C 266.355 553.014 264.24 552.684 262.125 552.309 C 260.03 551.949 257.93 551.544 255.83 551.134 C 253.735 550.714 251.635 550.259 249.555 549.789 C 247.47 549.319 245.39 548.819 243.305 548.289 C 241.24 547.769 239.175 547.224 237.11 546.644 C 235.055 546.064 233.005 545.469 230.955 544.844 C 228.905 544.199 226.87 543.559 224.85 542.869 C 222.815 542.199 220.795 541.494 218.79 540.774 C 216.77 540.034 214.765 539.284 212.78 538.504 C 210.79 537.719 208.8 536.919 206.83 536.089 C 204.855 535.259 202.9 534.414 200.94 533.539 C 199 532.664 197.06 531.754 195.135 530.829 C 193.21 529.904 191.28 528.969 189.37 527.979 C 187.475 527.009 185.585 526.024 183.705 524.989 C 181.825 523.974 179.96 522.939 178.1 521.859 C 176.25 520.794 174.405 519.714 172.575 518.604 C 170.755 517.474 168.94 516.349 167.14 515.189 C 165.34 514.029 163.555 512.859 161.785 511.649 C 160.015 510.444 158.265 509.224 156.525 507.974 C 154.785 506.734 153.065 505.469 151.36 504.169 C 149.65 502.884 147.96 501.569 146.285 500.239 C 144.61 498.909 142.965 497.559 141.325 496.184 C 139.68 494.804 138.05 493.414 136.455 492.004 C 134.84 490.594 133.26 489.154 131.695 487.714 C 130.16 486.319 128.675 484.909 127.185 483.484 C 125.7 482.079 124.225 480.634 122.785 479.164 C 121.33 477.709 119.905 476.239 118.495 474.734 C 117.085 473.249 115.68 471.744 114.315 470.209 C 112.94 468.674 111.575 467.139 110.245 465.574 C 108.9 464.009 107.585 462.429 106.285 460.829 C 104.985 459.249 103.715 457.639 102.45 456.009 C 101.195 454.379 99.96 452.739 98.74 451.079 C 97.515 449.434 96.325 447.759 95.155 446.069 C 93.98 444.394 92.82 442.684 91.675 440.964 C 90.55 439.259 89.44 437.534 88.34 435.779 C 87.245 434.044 86.18 432.289 85.135 430.519 C 84.085 428.754 83.05 426.969 82.05 425.184 C 81.045 423.379 80.06 421.579 79.105 419.764 C 78.135 417.949 77.195 416.119 76.285 414.269 C 75.365 412.439 74.47 410.574 73.61 408.714 C 72.735 406.849 71.885 404.984 71.075 403.109 C 70.245 401.214 69.445 399.319 68.66 397.424 C 67.895 395.514 67.13 393.604 66.41 391.679 C 65.67 389.754 64.965 387.824 64.295 385.884 C 63.605 383.944 62.95 382.004 62.305 380.044 C 61.68 378.089 61.07 376.129 60.475 374.159 C 59.895 372.184 59.33 370.214 58.8 368.224 C 58.25 366.234 57.75 364.249 57.265 362.244 C 56.765 360.254 56.31 358.254 55.87 356.249 C 55.435 354.229 55.01 352.224 54.62 350.204 C 54.245 348.184 53.865 346.164 53.54 344.129 C 53.195 342.109 52.88 340.074 52.585 338.039 C 52.3 336.004 52.035 333.969 51.8 331.919 C 51.565 329.884 51.345 327.834 51.16 325.779 C 50.97 323.744 50.8 321.694 50.675 319.644 C 50.53 317.594 50.425 315.539 50.33 313.474 C 50.22 311.394 50.14 309.294 50.08 307.214 C 50.03 305.114 50 303.014 50 300.919 C 50 298.834 50.015 296.739 50.065 294.639 C 50.11 292.559 50.19 290.459 50.295 288.379 C 50.39 286.279 50.53 284.199 50.675 282.099 C 50.83 280.019 51.02 277.934 51.22 275.854 C 51.425 273.769 51.66 271.689 51.925 269.604 C 52.175 267.524 52.46 265.459 52.77 263.389 C 53.085 261.309 53.415 259.244 53.79 257.189 C 54.15 255.124 54.525 253.074 54.945 251.004 C 55.355 248.954 55.795 246.919 56.26 244.869 C 56.73 242.834 57.22 240.799 57.735 238.764 C 58.25 236.744 58.8 234.724 59.36 232.704 C 59.925 230.684 60.52 228.679 61.13 226.679 C 61.76 224.674 62.4 222.684 63.055 220.694 C 63.73 218.724 64.42 216.734 65.14 214.779 C 65.845 212.804 66.595 210.849 67.365 208.909 C 68.115 206.949 68.915 205.009 69.725 203.084 C 70.54 201.159 71.37 199.229 72.23 197.319 C 73.095 195.429 73.985 193.519 74.895 191.639 C 75.8 189.759 76.74 187.879 77.695 186.019 C 78.65 184.154 79.62 182.309 80.625 180.459 C 81.625 178.629 82.66 176.794 83.71 174.994 C 84.755 173.179 85.82 171.379 86.915 169.594 C 88.015 167.809 89.125 166.039 90.27 164.289 C 91.395 162.519 92.555 160.779 93.745 159.059 C 94.92 157.319 96.125 155.614 97.345 153.904 C 98.565 152.214 99.82 150.524 101.085 148.864 C 102.355 147.189 103.64 145.544 104.94 143.919 C 106.255 142.274 107.585 140.659 108.93 139.049 C 110.275 137.454 111.64 135.869 113.03 134.304 C 114.425 132.739 115.835 131.189 117.26 129.654 C 118.7 128.059 120.155 126.494 121.645 124.929 C 123.13 123.379 124.635 121.829 126.15 120.309 C 127.67 118.789 129.205 117.289 130.77 115.814 C 132.32 114.329 133.9 112.869 135.5 111.429 C 137.095 109.989 138.695 108.564 140.335 107.159 C 141.965 105.764 143.61 104.369 145.27 103.009 C 146.93 101.644 148.62 100.314 150.31 98.984 C 152 97.669 153.725 96.369 155.445 95.084 C 157.165 93.819 158.92 92.549 160.675 91.314 C 162.445 90.094 164.21 88.869 165.995 87.679 C 167.795 86.489 169.6 85.319 171.415 84.174 C 173.23 83.029 175.06 81.904 176.91 80.809 C 178.755 79.693 180.62 78.613 182.485 77.568 C 184.36 76.518 186.24 75.483 188.15 74.468 C 190.045 73.463 191.955 72.478 193.88 71.508 C 195.805 70.553 197.73 69.613 199.675 68.703 C 201.63 67.798 203.59 66.903 205.545 66.028 C 207.515 65.168 209.505 64.323 211.48 63.508 C 213.48 62.693 215.47 61.908 217.49 61.143 C 219.495 60.373 221.515 59.623 223.535 58.903 C 225.555 58.198 227.59 57.493 229.64 56.838 C 231.69 56.163 233.74 55.523 235.79 54.913 C 237.86 54.283 239.925 53.708 241.99 53.143 C 244.075 52.578 246.155 52.028 248.24 51.513 C 250.32 50.998 252.42 50.513 254.515 50.058 C 256.615 49.588 258.73 49.148 260.825 48.743 C 262.94 48.338 265.055 47.958 267.185 47.598 C 269.295 47.238 271.425 46.913 273.555 46.598 C 275.685 46.298 277.815 46.018 279.945 45.768 C 282.09 45.518 284.215 45.283 286.36 45.093 C 288.49 44.893 290.635 44.718 292.78 44.563 C 294.925 44.423 297.07 44.298 299.23 44.203 Z" style="transform-origin: 50px 44.211px;"/>
  <path d="M 110.575 304.924 C 113.785 304.769 116.525 304.614 119.45 306.194 C 122.345 307.759 124.225 310.564 125.105 313.679 C 126.025 317.044 125.715 320.644 123.945 323.684 C 121.925 327.159 118.92 328.834 115.16 329.899 C 112.28 330.179 109.59 330.039 106.975 328.724 C 106.58 328.519 106.19 328.299 105.83 328.064 C 105.455 327.834 105.095 327.579 104.75 327.299 C 104.405 327.034 104.06 326.734 103.75 326.424 C 103.435 326.124 103.135 325.794 102.855 325.454 C 102.575 325.124 102.305 324.764 102.055 324.404 C 101.805 324.044 101.57 323.669 101.37 323.274 C 101.15 322.884 100.96 322.479 100.79 322.069 C 100.63 321.664 100.475 321.254 100.35 320.834 C 100.225 320.459 100.13 320.064 100.055 319.689 C 99.975 319.299 99.91 318.909 99.88 318.514 C 99.835 318.124 99.82 317.734 99.82 317.324 C 99.82 316.934 99.835 316.544 99.88 316.154 C 99.91 315.759 99.975 315.369 100.055 314.979 C 100.13 314.584 100.225 314.209 100.335 313.834 C 100.46 313.459 100.585 313.084 100.74 312.724 C 100.9 312.349 101.07 312.004 101.26 311.644 C 103.28 307.869 106.58 306.054 110.575 304.924 Z" style="fill: rgb(255, 255, 255); transform-origin: 50px 44.211px;"/>
  <path d="M 258.085 92.644 C 260.935 92.219 264.41 92.064 267.275 92.454 C 272.445 93.174 276.75 95.899 279.82 100.114 C 282.825 104.244 284.215 109.444 283.325 114.514 C 282.465 119.429 278.99 125.429 274.62 128.029 C 267.81 132.084 257.585 131.754 249.915 133.364 C 228.98 137.764 211.055 146.844 193.785 159.309 C 166.59 178.954 146.24 208.014 134.73 239.294 C 132.805 244.524 130.88 249.769 129.565 255.189 C 128.69 258.774 128.375 262.484 127.75 266.114 C 126.78 271.814 124.225 275.039 119.61 278.309 C 118.245 278.999 116.9 279.579 115.41 279.924 C 115.13 279.984 114.85 280.034 114.55 280.079 C 114.27 280.129 113.985 280.159 113.705 280.189 C 113.41 280.219 113.125 280.254 112.845 280.269 C 112.545 280.284 112.265 280.299 111.965 280.299 C 111.685 280.299 111.39 280.284 111.105 280.284 C 110.825 280.269 110.525 280.239 110.245 280.219 C 109.965 280.189 109.665 280.144 109.385 280.109 C 109.1 280.064 108.82 280.019 108.54 279.954 C 108.255 279.894 107.975 279.829 107.695 279.749 C 107.41 279.689 107.13 279.609 106.865 279.514 C 106.58 279.439 106.315 279.344 106.035 279.234 C 105.765 279.139 105.5 279.029 105.235 278.919 C 104.97 278.794 104.72 278.669 104.45 278.544 C 104.2 278.419 103.935 278.279 103.685 278.139 C 103.435 277.999 103.185 277.859 102.95 277.699 C 102.7 277.544 102.465 277.389 102.23 277.214 C 98.69 274.759 96.2 271.124 95.575 266.834 C 94.73 260.899 96.09 254.419 97.28 248.609 C 102.87 221.074 116.71 190.589 133.84 168.389 C 164.07 129.219 208.395 99.064 258.085 92.644 Z" style="fill: rgb(255, 255, 255); transform-origin: 50px 44.211px;"/>
</svg>