<?xml version="1.0" encoding="utf-8"?>
<svg width="1305" height="1301" xmlns="http://www.w3.org/2000/svg">
  <defs>
    <linearGradient id="gradient_0" gradientUnits="userSpaceOnUse" x1="239.27071" y1="640.43109" x2="249.4091" y2="601.3551">
      <stop offset="0" stop-color="black"/>
      <stop offset="1" stop-color="#1A0019"/>
    </linearGradient>
  </defs>
  <path fill="url(#gradient_0)" d="M173.768 584.387C176.04 582.936 177.797 582.147 180.528 582.771C181.819 583.066 183.076 583.534 184.316 583.992C227.85 626.777 252.824 639.883 314.291 644.115C314.944 647.542 315.469 651.02 316.619 654.322Q304.679 654.749 292.786 653.615C240.579 648.173 206.046 623.927 173.768 584.387Z"/>
  <path fill="#09601E" d="M184.316 583.992C192.237 581.979 200.39 580.749 208.363 578.803C231.8 603.319 266.375 619.345 300.448 620.017Q305.179 620.092 309.901 619.782Q311.933 631.978 314.291 644.115C252.824 639.883 227.85 626.777 184.316 583.992Z"/>
  <path fill="#0BAA3D" d="M254.178 548.018C269.944 561.568 284.896 571.737 304.835 578.341C305.341 581.972 305.475 585.597 305.628 589.255C305.999 591.911 306.475 594.593 306.579 597.273C307.574 604.775 308.369 612.37 309.901 619.782Q305.179 620.092 300.448 620.017C266.375 619.345 231.8 603.319 208.363 578.803C220.383 574.986 231.924 568.388 241.907 560.737L247.662 554.717C249.328 551.948 251.597 549.914 254.178 548.018Z"/>
  <path fill="#4ECF3B" d="M247.662 554.717C264.596 572.046 282.099 582.934 305.628 589.255C305.999 591.911 306.475 594.593 306.579 597.273C281.397 594.513 259.007 578.439 241.907 560.737L247.662 554.717Z"/>
  <path fill="#0A0806" d="M254.178 548.018C269.944 561.568 284.896 571.737 304.835 578.341C305.341 581.972 305.475 585.597 305.628 589.255C282.099 582.934 264.596 572.046 247.662 554.717C249.328 551.948 251.597 549.914 254.178 548.018Z"/>
  <path d="M721.14 211.725C732.848 214.417 744.858 216.582 756.356 220.062Q760.23 221.213 764.078 222.453Q767.925 223.692 771.743 225.018Q775.561 226.345 779.347 227.758Q783.134 229.172 786.887 230.671Q790.641 232.17 794.359 233.755Q798.078 235.339 801.759 237.008Q805.44 238.677 809.082 240.429Q812.724 242.181 816.326 244.016Q819.927 245.851 823.486 247.767Q827.044 249.684 830.558 251.681Q834.072 253.678 837.539 255.755Q841.007 257.831 844.426 259.986Q847.845 262.141 851.215 264.374Q854.584 266.607 857.901 268.915Q861.219 271.224 864.483 273.608Q867.746 275.991 870.955 278.449Q874.164 280.906 877.316 283.436Q880.468 285.966 883.561 288.568Q886.654 291.169 889.688 293.84Q892.721 296.511 895.692 299.25Q898.664 301.99 901.572 304.796Q904.481 307.603 907.324 310.475Q910.168 313.347 912.945 316.283Q915.723 319.219 918.432 322.218Q921.142 325.216 923.783 328.276Q926.423 331.336 928.994 334.455Q931.564 337.574 934.062 340.751Q936.56 343.928 938.986 347.16Q941.411 350.393 943.762 353.681Q946.113 356.968 948.388 360.308Q950.664 363.648 952.863 367.04Q955.061 370.431 957.182 373.871Q959.696 377.816 962.099 381.83Q964.501 385.844 966.79 389.924Q969.079 394.004 971.253 398.146Q973.427 402.289 975.484 406.49Q977.54 410.692 979.479 414.95Q981.417 419.207 983.235 423.518Q985.053 427.828 986.749 432.188Q988.446 436.547 990.019 440.953Q991.593 445.358 993.042 449.806Q994.491 454.254 995.815 458.74Q997.14 463.227 998.337 467.749Q999.535 472.271 1000.61 476.825Q1001.68 481.379 1002.62 485.961Q1003.56 490.543 1004.37 495.15Q1005.19 499.757 1005.87 504.384Q1006.56 509.012 1007.11 513.657C1009.05 530.88 1009.43 547.958 1009.73 565.268C1050.87 571.642 1085.18 594.429 1109.57 627.819C1126.85 651.461 1136.74 680.442 1141.16 709.207C1142.5 717.927 1142.49 727.72 1144.65 736.182C1140.2 732.973 1135.62 729.967 1131.04 726.94C1126.16 702.419 1123.87 683.271 1112.82 659.887C1092.78 617.488 1063.77 594.192 1020.38 578.775C1012.22 571.242 994.551 575.38 988.24 569.816C986.68 568.441 987.075 566.98 987.018 565.08C988.771 564.941 989.948 564.937 991.369 563.761C993.322 559.331 992.371 552.598 992.166 547.809C991.171 524.526 987.918 502.557 982.441 479.928C981.326 468.297 976.775 454.542 971.398 444.109C967.823 440.241 965.078 435.342 962.189 430.938Q954.83 419.614 947.181 408.484C945.236 423.992 942.67 439.672 938.65 454.787C935.121 445.609 934.004 434.966 931.222 425.455C924.009 400.796 912.095 376.365 897.778 355.057C880.327 329.083 858.992 306.461 836.056 285.288C829.038 278.811 804.339 262.984 801.401 256.495C797.468 254.227 792.887 252.446 788.737 250.561C762.863 238.808 735.713 231.527 707.799 226.479C711.95 221.028 715.882 216.133 721.14 211.725Z" style=""/>
  <path fill="#09601E" d="M801.401 256.495C861.468 285.39 909.555 326.466 943.923 383.996C953.52 400.06 962.293 417.329 968.466 435.019C969.509 438.007 970.611 441.047 971.398 444.109C967.823 440.241 965.078 435.342 962.189 430.938Q954.83 419.614 947.181 408.484C945.236 423.992 942.67 439.672 938.65 454.787C935.121 445.609 934.004 434.966 931.222 425.455C924.009 400.796 912.095 376.365 897.778 355.057C880.327 329.083 858.992 306.461 836.056 285.288C829.038 278.811 804.339 262.984 801.401 256.495Z"/>
  <path fill="#200130" d="M935.016 570.415C937.954 569 941.098 568.05 944.263 567.282C953.113 565.132 978.996 560.258 987.018 565.08C987.075 566.98 986.68 568.441 988.24 569.816C994.551 575.38 1012.22 571.242 1020.38 578.775C1063.77 594.192 1092.78 617.488 1112.82 659.887C1123.87 683.271 1126.16 702.419 1131.04 726.94C1135.62 729.967 1140.2 732.973 1144.65 736.182C1154.46 741.276 1162.29 754.127 1165.56 764.373C1170.13 778.663 1167.19 790.793 1162.93 804.678C1157.48 799.986 1151.47 788.791 1147.07 782.548C1140.75 776.22 1133.77 770.92 1126.6 765.602C1096.5 747.972 1066.24 744.913 1032.55 753.469L1023.86 755.777C1024.59 751.714 1025.38 747.732 1026.72 743.819C1030.56 732.633 1038.2 724.36 1048.77 719.172C1049.59 699.839 1049.32 676.634 1039.23 659.536C1029.76 643.48 1012.91 641.368 996.367 637.208C990.628 635.709 984.449 636.015 978.57 636.189C978.378 636.225 978.187 636.262 977.995 636.296C963.986 638.731 944.865 643.129 932.485 634.389C925.27 625.848 922.263 615.992 922.077 604.882C921.859 591.905 925.938 579.781 935.016 570.415Z"/>
  <path fill="#0A448A" d="M1114.49 728.279C1131.52 733.93 1147.37 744.575 1155.53 761.04C1161.44 772.953 1160.93 784.421 1158.61 797.178C1155.26 792.068 1152.01 786.268 1147.07 782.548C1140.75 776.22 1133.77 770.92 1126.6 765.602C1126.74 765.207 1126.92 764.823 1127.02 764.417C1129.93 752.928 1120.96 737.195 1114.49 728.279Z"/>
  <path fill="#1367B7" d="M1032.55 753.469C1033.14 750.212 1033.74 746.943 1034.96 743.85C1038.27 735.458 1044.44 729.573 1052.62 726.021C1071.67 717.759 1095.73 720.791 1114.49 728.279C1120.96 737.195 1129.93 752.928 1127.02 764.417C1126.92 764.823 1126.74 765.207 1126.6 765.602C1096.5 747.972 1066.24 744.913 1032.55 753.469Z"/>
  <path fill="#09601E" d="M929.789 601.239C931.922 605.167 934.043 608.76 936.863 612.235C947.8 611.894 958.621 610.181 969.52 609.379C994.908 607.51 1026.62 608.64 1046.26 626.979C1067.64 646.93 1074.07 684.067 1075.05 712.259L1075.07 712.974C1078.32 712.908 1081.48 712.714 1084.67 713.492C1075.22 713.12 1065.35 714.476 1056.16 716.595Q1056.81 704.246 1055.58 691.941C1053.86 673.739 1049.59 654.67 1034.72 642.593C1010.46 622.899 971.69 629.857 942.972 632.859C940.299 631.497 937.733 629.661 935.84 627.318C929.777 619.811 928.873 610.443 929.789 601.239Z"/>
  <path fill="#0BAA3D" d="M939.784 575.698C967.231 568.679 993.332 572.624 1020.38 578.775C1063.77 594.192 1092.78 617.488 1112.82 659.887C1123.87 683.271 1126.16 702.419 1131.04 726.94C1116.39 719.253 1100.94 715.648 1084.67 713.492C1081.48 712.714 1078.32 712.908 1075.07 712.974L1075.05 712.259C1074.07 684.067 1067.64 646.93 1046.26 626.979C1026.62 608.64 994.908 607.51 969.52 609.379C958.621 610.181 947.8 611.894 936.863 612.235C934.043 608.76 931.922 605.167 929.789 601.239C929.407 591.668 933.644 582.754 939.784 575.698Z"/>
  <path d="M1032.55 753.469C1066.24 744.913 1096.5 747.972 1126.6 765.602C1133.77 770.92 1140.75 776.22 1147.07 782.548C1151.47 788.791 1157.48 799.986 1162.93 804.678C1164.27 808.492 1165.16 812.532 1165.84 816.512C1171.51 849.987 1160.85 888.798 1141.11 916.119C1130.07 931.397 1114.19 945.68 1094.94 948.68C1080.92 950.865 1070.5 946.364 1059.33 938.227C1047.36 939.347 1035.44 939.477 1023.75 936.226Q1022.09 935.746 1020.45 935.185Q1018.81 934.625 1017.2 933.986Q1015.59 933.348 1014.01 932.632Q1012.44 931.916 1010.89 931.125Q1009.35 930.333 1007.85 929.469Q1006.35 928.604 1004.9 927.667Q1003.44 926.731 1002.03 925.725Q1000.62 924.72 999.26 923.647Q997.901 922.574 996.595 921.437Q995.289 920.3 994.039 919.101Q992.79 917.902 991.599 916.644Q990.409 915.386 989.281 914.072Q988.154 912.758 987.091 911.391Q986.028 910.024 985.032 908.607Q984.036 907.19 983.11 905.727Q982.184 904.263 981.33 902.757C975.87 892.994 973.863 882.895 976.993 871.974C969.921 864.738 964.426 857.602 961.042 847.94C956.276 834.336 958.12 821.825 964.29 809.019Q964.843 807.863 965.425 806.721Q966.006 805.579 966.616 804.452Q967.225 803.325 967.863 802.213Q968.5 801.102 969.164 800.006Q969.829 798.91 970.52 797.831Q971.212 796.752 971.929 795.691Q972.647 794.629 973.391 793.585Q974.135 792.542 974.904 791.517Q975.673 790.492 976.468 789.487Q977.262 788.481 978.081 787.496Q978.9 786.51 979.743 785.545Q980.586 784.58 981.453 783.636Q982.319 782.692 983.209 781.769Q984.099 780.847 985.011 779.947Q985.923 779.047 986.857 778.169Q987.791 777.292 988.747 776.438Q989.702 775.584 990.679 774.754Q991.655 773.924 992.651 773.118Q993.648 772.312 994.664 771.531Q995.68 770.75 996.715 769.995Q997.75 769.239 998.803 768.509Q999.857 767.779 1000.93 767.076Q1002 766.372 1003.09 765.695Q1004.18 765.018 1005.28 764.368Q1006.38 763.718 1007.5 763.096Q1008.62 762.473 1009.76 761.879Q1010.9 761.284 1012.04 760.718Q1013.19 760.151 1014.36 759.614Q1015.52 759.076 1016.7 758.567Q1017.87 758.058 1019.06 757.578Q1020.25 757.098 1021.45 756.648Q1022.65 756.198 1023.86 755.777L1032.55 753.469Z" style=""/>
  <path fill="#4ECF3B" d="M980.877 858.108C982.156 850.858 983.934 844.284 986.898 837.533C988.311 834.314 990.83 827.739 994.128 826.475L994.509 828.085C993.5 835.388 994.765 843.872 995.436 851.223C991.814 855.017 988.101 858.756 984.633 862.691C983.302 861.222 981.866 859.833 980.877 858.108Z"/>
  <path fill="#DBDF2E" d="M971.822 823.127Q972.385 821.594 973.002 820.083Q973.619 818.571 974.29 817.083Q974.961 815.594 975.685 814.131Q976.409 812.667 977.184 811.231Q977.96 809.794 978.787 808.386Q979.614 806.978 980.491 805.601Q981.368 804.224 982.294 802.879Q983.219 801.534 984.193 800.223Q985.166 798.912 986.186 797.637Q987.205 796.361 988.27 795.124Q989.335 793.886 990.443 792.687Q991.552 791.488 992.703 790.33Q993.854 789.172 995.045 788.055Q996.237 786.939 997.468 785.866Q998.698 784.793 999.967 783.765Q1001.24 782.737 1002.54 781.755C1027.9 762.544 1059.56 757.304 1090.54 761.611C1089.72 763.418 1089.05 765.205 1087.04 765.962C1081.11 768.192 1072.91 767.542 1066.59 768.479C1046.87 771.404 1025.69 780.048 1009.26 791.207C1000.28 797.31 992.899 804.807 985.236 812.413C982.012 815.612 978.368 820.132 974.54 822.462C973.555 823.062 972.974 823.042 971.822 823.127Z"/>
  <path fill="#4ECF3B" d="M1138.4 787.282C1151.89 800.876 1154.64 810.85 1154.63 829.698C1154.61 863.322 1144.07 899.779 1119.68 923.91C1111.38 932.114 1100.61 938.463 1088.64 938.484C1081.87 938.497 1075.45 936.419 1069.52 933.269C1079.63 928.139 1088.39 922.923 1095.73 914.119C1074.48 924.968 1047.97 930.749 1024.71 923.054C1018.07 920.857 1011.93 917.508 1006.69 912.859C1022.34 914.938 1039.62 914.785 1055.22 912.537C1081.04 908.815 1106.33 896.344 1122.14 875.146C1141.06 849.762 1142.91 817.581 1138.4 787.282Z"/>
  <defs>
    <linearGradient id="gradient_1" gradientUnits="userSpaceOnUse" x1="1086.3892" y1="902.20886" x2="1040.943" y2="775.82465">
      <stop offset="0" stop-color="#9FE52A"/>
      <stop offset="1" stop-color="#DDEC2A"/>
    </linearGradient>
  </defs>
  <path fill="url(#gradient_1)" d="M1090.54 761.611C1109.04 766.274 1124.67 773.904 1138.4 787.282C1142.91 817.581 1141.06 849.762 1122.14 875.146C1106.33 896.344 1081.04 908.815 1055.22 912.537C1039.62 914.785 1022.34 914.938 1006.69 912.859C995.983 906.834 990.746 894.119 987.448 882.974C990.05 875.086 994.523 868.475 997.948 860.999C1003.31 849.304 998.671 839.153 994.509 828.085L994.128 826.475C990.83 827.739 988.311 834.314 986.898 837.533C983.934 844.284 982.156 850.858 980.877 858.108C978.597 855.128 976.649 851.975 974.86 848.679C970.393 840.448 969.195 832.18 971.822 823.127C972.974 823.042 973.555 823.062 974.54 822.462C978.368 820.132 982.012 815.612 985.236 812.413C992.899 804.807 1000.28 797.31 1009.26 791.207C1025.69 780.048 1046.87 771.404 1066.59 768.479C1072.91 767.542 1081.11 768.192 1087.04 765.962C1089.05 765.205 1089.72 763.418 1090.54 761.611Z"/>
  <path d="M125.066 550.763C120.965 543.605 106.97 538.284 100.123 532.533C87.8413 522.215 78.2506 508.118 70.7777 494.048C60.6904 475.056 54.3308 456.646 61.0196 435.419C71.7354 401.413 98.0137 369.673 129.781 353.423C149.747 343.209 174.293 339.327 195.936 346.447C219.416 354.172 232.419 374.036 243.089 395.001C247.545 395.516 251.417 396.257 255.448 398.339C263.522 402.51 268.369 410.167 270.894 418.652C279.473 447.486 266.633 481.779 252.966 507.115C258.626 513.638 261.205 521.633 260.424 530.296C259.85 536.674 257.272 542.493 254.178 548.018C251.597 549.914 249.328 551.948 247.662 554.717L241.907 560.737C231.924 568.388 220.383 574.986 208.363 578.803C200.39 580.749 192.237 581.979 184.316 583.992C183.076 583.534 181.819 583.066 180.528 582.771C177.797 582.147 176.04 582.936 173.768 584.387C170.479 585 165.757 583.948 162.524 583.082C146.524 578.801 132.899 564.83 125.066 550.763Z" style=""/>
  <path fill="#4ECF3B" d="M228.481 389.648C229.863 391.903 231.17 394.15 232.358 396.513C222.322 399.587 214.247 403.108 205.696 409.225C203.669 405.338 201.685 401.519 200.128 397.414C209.349 393.927 218.82 391.545 228.481 389.648Z"/>
  <path fill="#4ECF3B" d="M129.956 421.65C155.523 413.03 173.671 422.626 196.787 416.877C191.716 424.189 187.197 431.399 183.545 439.553C170.551 426.292 155.94 421.929 137.649 421.725L129.956 421.65Z"/>
  <path fill="#0A448A" d="M134.265 550.758C158.988 560.278 182.503 554.19 206.615 546.369C198.798 556.519 184.409 562.917 172.642 567.024C167.887 568.684 162.289 569.947 158.034 572.62C147.87 566.554 140.262 561.268 134.265 550.758Z"/>
  <path fill="#1367B7" d="M252.966 507.115C258.626 513.638 261.205 521.633 260.424 530.296C259.85 536.674 257.272 542.493 254.178 548.018C251.597 549.914 249.328 551.948 247.662 554.717L241.907 560.737C231.924 568.388 220.383 574.986 208.363 578.803C200.39 580.749 192.237 581.979 184.316 583.992C183.076 583.534 181.819 583.066 180.528 582.771C177.797 582.147 176.04 582.936 173.768 584.387C170.479 585 165.757 583.948 162.524 583.082C146.524 578.801 132.899 564.83 125.066 550.763C127.15 550.184 131.78 549.444 133.804 550.442C133.971 550.524 134.111 550.653 134.265 550.758C140.262 561.268 147.87 566.554 158.034 572.62C162.289 569.947 167.887 568.684 172.642 567.024C184.409 562.917 198.798 556.519 206.615 546.369C223.078 537.065 239.761 526.191 250.609 510.365C251.109 509.166 252.152 508.128 252.966 507.115Z"/>
  <defs>
    <linearGradient id="gradient_2" gradientUnits="userSpaceOnUse" x1="187.96573" y1="524.67841" x2="211.04422" y2="576.39941">
      <stop offset="0" stop-color="#130011"/>
      <stop offset="1" stop-color="#060042"/>
    </linearGradient>
  </defs>
  <path fill="url(#gradient_2)" d="M252.966 507.115C258.626 513.638 261.205 521.633 260.424 530.296C259.85 536.674 257.272 542.493 254.178 548.018C251.597 549.914 249.328 551.948 247.662 554.717L241.907 560.737C231.924 568.388 220.383 574.986 208.363 578.803C200.39 580.749 192.237 581.979 184.316 583.992C183.076 583.534 181.819 583.066 180.528 582.771C177.797 582.147 176.04 582.936 173.768 584.387C170.479 585 165.757 583.948 162.524 583.082C146.524 578.801 132.899 564.83 125.066 550.763C127.15 550.184 131.78 549.444 133.804 550.442C133.971 550.524 134.111 550.653 134.265 550.758C140.262 561.268 147.87 566.554 158.034 572.62C174.289 579.175 191.083 576.646 207.331 571.168C223.768 565.627 242.675 555.422 250.559 539.103C255.279 529.334 254.118 520.182 250.609 510.365C251.109 509.166 252.152 508.128 252.966 507.115Z"/>
  <path fill="#DBDF2E" d="M190.382 444.425Q193.803 437.513 198.196 431.175C207.104 418.289 219.274 409.004 234.998 406.325C240.967 405.309 247.091 405.525 252.129 409.277C258.026 413.668 259.927 420.459 261.051 427.349C260.895 428.663 260.607 429.21 259.884 430.251C256.663 434.883 255.68 443.486 254.183 449.002C252.42 455.495 246.228 472.881 240.889 476.735L240.076 476.446C240.705 474.879 240.962 474.746 240.445 473.171C236.301 469.916 227.488 469.902 222.355 469.97C230.438 463.769 235.477 457.049 239.225 447.64C228.869 459.804 219.717 467.283 203.219 468.697C200.588 468.922 197.928 468.946 195.288 468.977Q194.763 462.247 194.088 455.531C193.103 451.76 191.681 448.097 190.382 444.425Z"/>
  <path fill="#4ECF3B" d="M194.088 455.531C198.879 456.325 203.369 455.8 208.007 454.502C223.39 450.198 233.093 439.821 240.645 426.295C242.058 433.408 242.767 441.028 239.225 447.64C228.869 459.804 219.717 467.283 203.219 468.697C200.588 468.922 197.928 468.946 195.288 468.977Q194.763 462.247 194.088 455.531Z"/>
  <defs>
    <linearGradient id="gradient_3" gradientUnits="userSpaceOnUse" x1="171.7477" y1="443.17975" x2="184.23488" y2="540.71094">
      <stop offset="0" stop-color="#8DCA1E"/>
      <stop offset="1" stop-color="#59B530"/>
    </linearGradient>
  </defs>
  <path d="M261.051 427.349C263.181 455.473 255.372 488.059 236.671 509.804C220.63 528.456 194.642 542.093 170.025 543.795C146.088 545.45 124.373 537.01 106.533 521.252Q103.791 518.788 101.229 516.136Q98.668 513.484 96.3008 510.657Q93.9335 507.831 91.7722 504.844Q89.6108 501.857 87.6662 498.725Q89.8078 496.683 92.0589 494.763Q94.31 492.843 96.6639 491.05Q99.0177 489.257 101.467 487.597Q103.916 485.936 106.454 484.414Q108.991 482.892 111.609 481.512Q114.226 480.132 116.916 478.899Q119.606 477.666 122.36 476.583Q125.114 475.501 127.923 474.572C140.984 470.248 159.708 470.336 170.089 460.393C175.841 454.884 176.052 448.694 176.235 441.258C182.667 447.445 186.76 453.546 186.896 462.84C187.033 472.171 183.472 481.608 176.682 488.102C169.312 495.151 159.278 497.872 149.295 497.438C140.093 497.038 131.023 494.279 122.324 491.433C133.723 499.802 148.882 505.431 163.163 503.339C173.102 501.883 182.299 496.765 188.332 488.659C191.101 484.938 192.874 480.936 194.249 476.533C204.031 476.507 213.987 475.477 222.355 469.97C227.488 469.902 236.301 469.916 240.445 473.171C240.962 474.746 240.705 474.879 240.076 476.446L240.889 476.735C246.228 472.881 252.42 455.495 254.183 449.002C255.68 443.486 256.663 434.883 259.884 430.251C260.607 429.21 260.895 428.663 261.051 427.349Z" fill="url(#gradient_3)"/>
  <path fill="#DBDF2E" d="M87.6662 498.725C78.1403 482.197 69.698 464.519 73.2279 444.972C78.4137 416.254 99.7021 388.151 123.347 371.79C140.862 359.671 163.321 352.416 184.658 356.434C204.766 360.22 217.308 373.422 228.481 389.648C218.82 391.545 209.349 393.927 200.128 397.414C189.394 385.316 179.546 379.279 163.155 378.227C149.572 377.356 135.964 379.01 123.341 384.234C144.147 382.525 170.283 379.216 187.648 393.697C192.831 398.019 198.344 404.933 198.951 411.85C199.127 413.856 198.515 415.225 197.121 416.656C197.028 416.752 196.898 416.803 196.787 416.877C173.671 422.626 155.523 413.03 129.956 421.65C118.494 424.045 107.605 427.454 97.3487 433.192C121.137 426.907 144.933 421.834 167.57 434.937C170.614 436.699 173.659 438.858 176.235 441.258C176.052 448.694 175.841 454.884 170.089 460.393C159.708 470.336 140.984 470.248 127.923 474.572Q125.114 475.501 122.36 476.583Q119.606 477.666 116.916 478.899Q114.226 480.132 111.609 481.512Q108.991 482.892 106.454 484.414Q103.916 485.936 101.467 487.597Q99.0177 489.257 96.6639 491.05Q94.31 492.843 92.0589 494.763Q89.8078 496.683 87.6662 498.725Z"/>
  <path fill="#200130" d="M433.115 834.958C437.075 838.061 441.001 841.226 445.128 844.105C446.757 845.288 448.433 846.44 450.009 847.69C442.91 852.468 435.566 857.159 428.827 862.435C440.13 870.783 452.436 878.534 464.463 885.79L464.623 885.526C471.601 883.442 481.285 876.017 486.246 870.696C495.651 875.692 505.035 881.165 514.742 885.521C522.226 888.88 530.408 891.426 537.634 895.245C542.914 896.637 547.237 896.9 551.812 900.331C541.023 903.122 530.119 905.21 519.384 908.292C479.389 919.77 443.309 937.925 410.59 963.576C414.812 993.639 421.938 1022.65 432.966 1050.97C435.416 1057.26 437.798 1063.92 440.922 1069.91C445.917 1079.48 462.117 1101.82 462.874 1111.71C463.206 1116.06 460.471 1120.24 457.822 1123.44C450.311 1132.5 440.485 1139.41 430.698 1145.79C392.674 1170.58 349.014 1184.1 303.98 1188.35C281.213 1190.5 242.451 1190.71 224.213 1174.93C219.776 1171.09 217.069 1166.07 216.666 1160.18C215.671 1145.61 228.476 1128.69 237.712 1118.53C269.633 1083.4 311.58 1066.22 358.438 1064.09Q357.217 1061.88 356.025 1059.66C340.373 1030.53 329.203 1000.67 323.247 968.072C321.791 960.102 319.594 949.8 322.199 941.855C324.72 934.164 329.938 927.034 334.543 920.44C359.189 885.147 395.049 854.832 433.115 834.958Z"/>
  <path fill="#3A99E6" d="M366.208 1048.72C361.16 1037.53 348.783 1014.01 348.074 1002.77C350.556 1004.3 353.023 1005.98 355.626 1007.29C358.046 1016.14 367.075 1041.3 366.208 1048.72Z"/>
  <path fill="#3A99E6" d="M231.249 1162.25C230.494 1159.15 230.759 1157.27 231.656 1154.2C238.167 1131.95 267.161 1108.81 286.619 1098.21C324.243 1077.72 357.937 1072.32 399.195 1084.45C399.023 1084.49 398.852 1084.54 398.679 1084.57C393.619 1085.58 387.383 1084.51 382.2 1084.28C374.828 1083.96 367.326 1083.75 359.953 1084.18C318.681 1086.55 277.29 1105.63 249.418 1136.2C246.056 1139.88 242.375 1143.67 239.519 1147.75C236.381 1152.24 234.641 1158.17 231.249 1162.25Z"/>
  <path fill="#09601E" d="M486.246 870.696C495.651 875.692 505.035 881.165 514.742 885.521C522.226 888.88 530.408 891.426 537.634 895.245C537.448 895.33 537.262 895.419 537.074 895.501C525.126 900.765 511.022 901.967 498.393 905.15C461.117 914.545 422.57 932.909 395.302 960.363C397.369 970.326 398.313 984.881 402.88 993.699C401.745 994.452 400.545 995.15 399.542 996.072C391.771 984.636 388.681 967.624 387.816 954.101C407.683 925.496 437.63 906.961 464.463 885.79L464.623 885.526C471.601 883.442 481.285 876.017 486.246 870.696Z"/>
  <path fill="#0A448A" d="M404.07 1001.28C409.111 1037.56 428.904 1080.71 449.412 1110.88C423.406 1145.98 361.149 1166.86 318.899 1173.1C311.492 1174.19 303.945 1174.99 296.449 1174.66C296.564 1174.59 296.667 1174.49 296.795 1174.45C304.784 1171.93 313.012 1170.14 320.991 1167.43C350.371 1157.46 382.97 1140.51 401.086 1114.72C408.579 1104.06 412.786 1092.88 410.401 1079.76C407.897 1065.98 401.353 1053.02 396.679 1039.88C393.764 1031.68 391.67 1023 388.085 1015.07C387.309 1013.35 386.659 1011.93 385.065 1010.81C392.468 1009.33 398.078 1005.68 404.07 1001.28Z"/>
  <path fill="#0B8A2A" d="M445.128 844.105C446.757 845.288 448.433 846.44 450.009 847.69C442.91 852.468 435.566 857.159 428.827 862.435C440.13 870.783 452.436 878.534 464.463 885.79C437.63 906.961 407.683 925.496 387.816 954.101C388.681 967.624 391.771 984.636 399.542 996.072C400.545 995.15 401.745 994.452 402.88 993.699C403.916 996.376 404.296 998.419 404.07 1001.28C398.078 1005.68 392.468 1009.33 385.065 1010.81C374.648 1012.13 365.584 1010.11 355.626 1007.29C353.023 1005.98 350.556 1004.3 348.074 1002.77C345.302 999.341 344.793 996.441 344.299 992.19C339.7 978.422 333.15 958.679 337.674 944.466C340.435 935.79 346.429 927.951 351.902 920.817C376.191 889.157 409.574 862.139 445.128 844.105Z"/>
  <path fill="#0A0806" d="M344.299 992.19C351.36 995.699 358.442 999.342 365.884 1001.99C366.059 1002.04 366.233 1002.11 366.41 1002.16C378.99 1006.03 388.65 1001.91 399.542 996.072C400.545 995.15 401.745 994.452 402.88 993.699C403.916 996.376 404.296 998.419 404.07 1001.28C398.078 1005.68 392.468 1009.33 385.065 1010.81C374.648 1012.13 365.584 1010.11 355.626 1007.29C353.023 1005.98 350.556 1004.3 348.074 1002.77C345.302 999.341 344.793 996.441 344.299 992.19Z"/>
  <path fill="#4ECF3B" d="M445.128 844.105C446.757 845.288 448.433 846.44 450.009 847.69C442.91 852.468 435.566 857.159 428.827 862.435C404.23 880.915 381.183 898.46 361.848 922.765C356.525 929.457 350.431 937.126 349.078 945.825C347.108 958.491 357.03 978.159 361.813 990.109C363.287 993.793 365.385 998.052 365.884 1001.99C358.442 999.342 351.36 995.699 344.299 992.19C339.7 978.422 333.15 958.679 337.674 944.466C340.435 935.79 346.429 927.951 351.902 920.817C376.191 889.157 409.574 862.139 445.128 844.105Z"/>
  <path fill="#1367B7" d="M355.626 1007.29C365.584 1010.11 374.648 1012.13 385.065 1010.81C386.659 1011.93 387.309 1013.35 388.085 1015.07C391.67 1023 393.764 1031.68 396.679 1039.88C401.353 1053.02 407.897 1065.98 410.401 1079.76C412.786 1092.88 408.579 1104.06 401.086 1114.72C382.97 1140.51 350.371 1157.46 320.991 1167.43C313.012 1170.14 304.784 1171.93 296.795 1174.45C296.667 1174.49 296.564 1174.59 296.449 1174.66C273.488 1177.16 250.606 1175.7 231.249 1162.25C234.641 1158.17 236.381 1152.24 239.519 1147.75C242.375 1143.67 246.056 1139.88 249.418 1136.2C277.29 1105.63 318.681 1086.55 359.953 1084.18C367.326 1083.75 374.828 1083.96 382.2 1084.28C387.383 1084.51 393.619 1085.58 398.679 1084.57C398.852 1084.54 399.023 1084.49 399.195 1084.45C400.274 1084.67 400.887 1084.71 401.956 1084.43L401.789 1082.88C396.224 1075.88 384.585 1070.89 376.392 1067.9C372.051 1062.31 369.214 1055.11 366.208 1048.72C367.075 1041.3 358.046 1016.14 355.626 1007.29Z"/>
  <path fill="#200130" d="M833.277 860.533C840.061 866.583 847.359 878.429 852.957 885.976C895.476 943.304 930.218 1009.88 948.653 1079.02C991.14 1068.75 1032.92 1075.51 1070.24 1098.43C1089.76 1110.42 1117.72 1134.23 1123.38 1157.39C1124.86 1163.45 1124.16 1169.42 1120.86 1174.76C1112.32 1188.57 1091.81 1194.37 1077.01 1197.55C1026.38 1208.45 954.392 1200.97 910.503 1172.6C899.83 1165.7 888.85 1157.01 886.064 1143.89C884.247 1135.34 885.602 1126.04 887.827 1117.7C866.301 1062.94 828.206 1017.75 790.346 973.548C770.023 949.819 750.18 926.728 726.627 906.111C730.154 904.555 734.093 903.328 737.874 902.587C746.688 899.474 755.797 897.207 764.599 894.006C786.109 886.184 806.328 875.832 825.893 864.023C828.545 863.215 830.857 861.856 833.277 860.533Z"/>
  <path fill="#3A99E6" d="M940.543 1100.08C966.739 1085.12 994.039 1084.69 1022.74 1092.61C1052.92 1100.95 1088.78 1122.08 1104.6 1150.06C1107.19 1154.65 1109.39 1159.63 1110.26 1164.85C1107.05 1161.92 1104.85 1157.15 1102.22 1153.61C1098.82 1149.02 1094.77 1144.91 1090.64 1140.98C1059 1110.89 1012.4 1092.02 968.58 1095.95C962.127 1096.53 945.199 1101.83 940.543 1100.08Z"/>
  <path fill="#0A448A" d="M852.071 1028.75Q861.731 1032.22 871.55 1035.2C873.658 1042.84 883.186 1053.35 887.744 1060.17C891.207 1065.36 894.323 1070.79 897.426 1076.2Q904.8 1088.8 910.339 1102.3C915.479 1114.67 919.545 1127.89 927.251 1138.97C932.683 1146.79 940.266 1152.78 948.515 1157.4C967.555 1168.08 989.777 1174.28 1011.15 1178.27Q1024.61 1180.75 1038.28 1181.59C1045.59 1182.06 1053.41 1181.96 1060.6 1183.44C1062.22 1183.77 1063.27 1184.54 1064.5 1185.64C1036.77 1191.38 998.776 1188.46 971.147 1182.52C950.863 1178.17 913.245 1166.28 902.068 1148.08C896.491 1138.99 898.883 1127.84 901.363 1118.17C889.17 1084.3 872.245 1058.31 852.071 1028.75Z"/>
  <path fill="#0BAA3D" d="M825.893 864.023C829.695 869.197 836.224 875.741 838.259 881.781Q860.206 912.781 879.186 945.681C885.369 956.38 891.977 967.442 896.382 979.015C900.137 988.883 903.313 1001.59 901.4 1012.18C900.661 1016.27 898.892 1019.93 895.429 1022.36C889.212 1026.73 881.158 1025.86 874.142 1024.37C871.056 1023.71 868 1022.86 864.957 1022.03C855.8 1020.52 846.669 1017.5 839.226 1011.81C827.939 1003.19 819.401 989.575 810.306 978.714Q787.746 951.727 763.256 926.477C755.139 918.177 747.076 909.705 737.874 902.587C746.688 899.474 755.797 897.207 764.599 894.006C786.109 886.184 806.328 875.832 825.893 864.023Z"/>
  <path fill="#09601E" d="M825.893 864.023C829.695 869.197 836.224 875.741 838.259 881.781C816.552 896.967 800.191 911.721 775.37 922.898C781.415 929.142 787.582 935.331 793.218 941.951C807.061 958.212 819.649 975.599 833.906 991.49C843.588 1002.28 856.411 1010.2 864.957 1022.03C855.8 1020.52 846.669 1017.5 839.226 1011.81C827.939 1003.19 819.401 989.575 810.306 978.714Q787.746 951.727 763.256 926.477C755.139 918.177 747.076 909.705 737.874 902.587C746.688 899.474 755.797 897.207 764.599 894.006C786.109 886.184 806.328 875.832 825.893 864.023Z"/>
  <path fill="#1367B7" d="M871.55 1035.2C881.404 1036.17 892.591 1037.67 901.188 1031.47C908.046 1026.52 909.731 1018.85 911 1011.03L914.048 1019.43C918.845 1031.22 940.415 1084.7 936.91 1094.37C936.819 1094.63 936.694 1094.87 936.586 1095.11C931.724 1099.6 927.96 1105.79 924.222 1111.24C929.502 1106.53 934.143 1103.09 940.543 1100.08C945.199 1101.83 962.127 1096.53 968.58 1095.95C1012.4 1092.02 1059 1110.89 1090.64 1140.98C1094.77 1144.91 1098.82 1149.02 1102.22 1153.61C1104.85 1157.15 1107.05 1161.92 1110.26 1164.85C1110.6 1166.39 1110.46 1166.69 1109.59 1168.11C1103.88 1177.45 1084.05 1182.06 1074.17 1184.04Q1069.35 1184.96 1064.5 1185.64C1063.27 1184.54 1062.22 1183.77 1060.6 1183.44C1053.41 1181.96 1045.59 1182.06 1038.28 1181.59Q1024.61 1180.75 1011.15 1178.27C989.777 1174.28 967.555 1168.08 948.515 1157.4C940.266 1152.78 932.683 1146.79 927.251 1138.97C919.545 1127.89 915.479 1114.67 910.339 1102.3Q904.8 1088.8 897.426 1076.2C894.323 1070.79 891.207 1065.36 887.744 1060.17C883.186 1053.35 873.658 1042.84 871.55 1035.2Z"/>
  <path fill="#3A99E6" d="M936.586 1095.11C936.239 1094.7 935.969 1094.42 935.692 1093.97C932.718 1089.16 925.793 1060.67 923.195 1052.35C920.15 1042.59 916.242 1032.88 913.657 1023.02C913.344 1021.83 913.298 1021.11 913.552 1019.91L914.12 1020.35L914.048 1019.43C918.845 1031.22 940.415 1084.7 936.91 1094.37C936.819 1094.63 936.694 1094.87 936.586 1095.11Z"/>
  <defs/>
  <path d="M304.835 578.341C304.251 567.636 304.422 556.739 304.596 546.02Q304.68 541.767 304.87 537.518Q305.059 533.268 305.353 529.025Q305.648 524.781 306.047 520.546Q306.446 516.311 306.949 512.087Q307.453 507.864 308.061 503.653Q308.669 499.443 309.38 495.25Q310.092 491.056 310.907 486.881Q311.722 482.706 312.64 478.552Q313.557 474.399 314.578 470.269Q315.598 466.14 316.72 462.036Q317.842 457.933 319.065 453.859Q320.288 449.785 321.611 445.742Q322.934 441.7 324.357 437.691Q325.779 433.682 327.301 429.709Q328.822 425.737 330.441 421.803Q332.06 417.87 333.776 413.977Q335.491 410.085 337.303 406.236Q339.114 402.387 341.02 398.584Q342.926 394.781 344.925 391.026Q346.924 387.271 349.015 383.567Q351.107 379.863 353.289 376.211Q355.471 372.56 357.743 368.963Q360.015 365.367 362.375 361.828Q364.735 358.288 367.181 354.809Q369.628 351.329 372.16 347.91Q374.692 344.492 377.307 341.137Q379.923 337.782 382.62 334.493Q385.318 331.204 388.096 327.982Q390.874 324.761 393.731 321.609Q396.588 318.457 399.522 315.376Q402.456 312.296 405.465 309.289Q408.474 306.282 411.556 303.35C471.255 245.652 563.5 203.396 647.348 204.767C646.043 210.401 644.893 217.308 641.311 222.02C622.395 222.39 591.18 225.641 574.053 232.842C530.623 244.434 491.49 263.367 455.046 289.679C445.79 296.362 435.586 303.656 428.005 312.223C403.097 334.833 374 368.802 359.872 399.502C349.228 419.695 324.586 475.594 326.972 497.406C322.384 503.294 322.973 512.054 322.668 519.216C326.788 527.151 326.657 539.572 328.682 548.451C328.057 556.95 328.9 565.619 329.506 574.099Q330.071 581.738 330.928 589.35Q331.785 596.962 332.933 604.536Q334.081 612.11 335.519 619.634Q336.956 627.158 338.681 634.621Q340.406 642.085 342.416 649.477Q344.426 656.868 346.718 664.178Q349.01 671.487 351.58 678.703Q354.15 685.92 356.995 693.032C360.963 703.113 364.661 713.025 371.023 721.88C386.25 751.721 406.207 777.919 429.1 802.288C434.847 808.405 440.654 814.527 446.86 820.182C449.732 822.798 459.881 830.16 461.031 833.08C461.205 833.522 461.146 834.023 461.204 834.495C471.991 845.117 499.417 859.734 514.178 864.382C523.985 862.366 549.43 869.966 560.753 871.627Q565.547 872.359 570.362 872.943Q575.177 873.526 580.008 873.959Q584.839 874.393 589.681 874.676Q594.523 874.959 599.371 875.092Q604.219 875.224 609.069 875.206Q613.919 875.188 618.767 875.019Q623.614 874.85 628.454 874.531Q633.293 874.211 638.121 873.742Q642.948 873.272 647.758 872.653Q652.569 872.034 657.358 871.266Q662.146 870.497 666.909 869.58Q671.672 868.663 676.404 867.599Q681.136 866.535 685.832 865.324Q690.529 864.113 695.185 862.757Q699.842 861.401 704.454 859.901Q709.067 858.401 713.63 856.758C792.779 828.411 861.546 765.52 903.81 693.6C909.09 684.615 914.253 675.406 918.647 665.954C923.491 655.535 927.581 644.784 932.485 634.389C944.865 643.129 963.986 638.731 977.995 636.296C978.187 636.262 978.378 636.225 978.57 636.189C984.449 636.015 990.628 635.709 996.367 637.208C990.634 656.885 984.411 676.357 976.241 695.18C954.268 745.801 918.801 793.001 876.812 828.788C868.354 835.997 859.507 842.94 850.296 849.164C844.744 852.915 838.388 856.24 833.277 860.533C830.857 861.856 828.545 863.215 825.893 864.023C806.328 875.832 786.109 886.184 764.599 894.006C755.797 897.207 746.688 899.474 737.874 902.587C734.093 903.328 730.154 904.555 726.627 906.111C715.556 907.718 704.614 910.112 693.513 911.626C661.51 915.99 629.573 916.045 597.679 910.833C582.467 908.347 567.777 902.029 552.545 900.402C552.301 900.376 552.056 900.355 551.812 900.331C547.237 896.9 542.914 896.637 537.634 895.245C530.408 891.426 522.226 888.88 514.742 885.521C505.035 881.165 495.651 875.692 486.246 870.696C481.285 876.017 471.601 883.442 464.623 885.526L464.463 885.79C452.436 878.534 440.13 870.783 428.827 862.435C435.566 857.159 442.91 852.468 450.009 847.69C448.433 846.44 446.757 845.288 445.128 844.105C441.001 841.226 437.075 838.061 433.115 834.958C425.005 826.914 416.206 819.639 408.198 811.439Q402.171 805.377 396.438 799.036Q390.706 792.695 385.281 786.088Q379.856 779.482 374.751 772.625Q369.646 765.769 364.873 758.678Q360.099 751.587 355.668 744.277Q351.236 736.967 347.157 729.455Q343.078 721.943 339.36 714.246Q335.642 706.549 332.294 698.684Q326.393 684.997 321.766 670.829C320.099 665.698 319.037 659.946 316.947 655.019C316.847 654.783 316.728 654.554 316.619 654.322C315.469 651.02 314.944 647.542 314.291 644.115Q311.933 631.978 309.901 619.782C308.369 612.37 307.574 604.775 306.579 597.273C306.475 594.593 305.999 591.911 305.628 589.255C305.475 585.597 305.341 581.972 304.835 578.341Z" style=""/>
  <path fill="#067826" d="M450.009 847.69C462.061 855.217 474.515 862.727 486.246 870.696C481.285 876.017 471.601 883.442 464.623 885.526L464.463 885.79C452.436 878.534 440.13 870.783 428.827 862.435C435.566 857.159 442.91 852.468 450.009 847.69Z"/>
  <path fill="#3A99E6" d="M322.668 519.216C326.788 527.151 326.657 539.572 328.682 548.451C328.057 556.95 328.9 565.619 329.506 574.099Q330.071 581.738 330.928 589.35Q331.785 596.962 332.933 604.536Q334.081 612.11 335.519 619.634Q336.956 627.158 338.681 634.621Q340.406 642.085 342.416 649.477Q344.426 656.868 346.718 664.178Q349.01 671.487 351.58 678.703Q354.15 685.92 356.995 693.032C360.963 703.113 364.661 713.025 371.023 721.88C386.25 751.721 406.207 777.919 429.1 802.288C434.847 808.405 440.654 814.527 446.86 820.182C449.732 822.798 459.881 830.16 461.031 833.08C461.205 833.522 461.146 834.023 461.204 834.495C437.323 816.771 416.43 797.243 397.616 774.146C337.981 700.938 313.061 612.697 322.668 519.216Z"/>
  <path fill="#05346B" d="M932.485 634.389C944.865 643.129 963.986 638.731 977.995 636.296C978.187 636.262 978.378 636.225 978.57 636.189Q977.42 640.422 976.163 644.625Q974.907 648.828 973.545 652.998Q972.184 657.168 970.718 661.302Q969.252 665.437 967.683 669.533Q966.114 673.63 964.442 677.686Q962.771 681.741 960.998 685.754Q959.225 689.766 957.352 693.733Q955.479 697.7 953.507 701.619Q951.535 705.537 949.465 709.405Q947.396 713.273 945.229 717.087Q943.063 720.902 940.802 724.661Q938.541 728.42 936.186 732.121Q933.831 735.822 931.384 739.463Q928.936 743.104 926.399 746.682Q923.861 750.26 921.234 753.773Q918.607 757.287 915.893 760.733Q913.179 764.18 910.379 767.557Q907.579 770.934 904.695 774.24Q901.811 777.545 898.845 780.778Q895.879 784.01 892.833 787.167Q889.787 790.324 886.663 793.403Q883.538 796.483 880.338 799.483Q877.137 802.483 873.862 805.402Q870.587 808.32 867.239 811.156Q863.892 813.992 860.475 816.742Q857.057 819.493 853.572 822.157Q850.086 824.821 846.535 827.397Q842.984 829.973 839.369 832.459Q835.754 834.944 832.078 837.339Q828.402 839.733 824.667 842.034Q820.932 844.336 817.14 846.542Q813.349 848.749 809.503 850.86C747.334 885.607 671.229 899.498 600.748 889.84C584.084 887.557 567.502 883.432 551.342 878.835C538.985 875.32 524.951 871.432 514.178 864.382C523.985 862.366 549.43 869.966 560.753 871.627Q565.547 872.359 570.362 872.943Q575.177 873.526 580.008 873.959Q584.839 874.393 589.681 874.676Q594.523 874.959 599.371 875.092Q604.219 875.224 609.069 875.206Q613.919 875.188 618.767 875.019Q623.614 874.85 628.454 874.531Q633.293 874.211 638.121 873.742Q642.948 873.272 647.758 872.653Q652.569 872.034 657.358 871.266Q662.146 870.497 666.909 869.58Q671.672 868.663 676.404 867.599Q681.136 866.535 685.832 865.324Q690.529 864.113 695.185 862.757Q699.842 861.401 704.454 859.901Q709.067 858.401 713.63 856.758C792.779 828.411 861.546 765.52 903.81 693.6C909.09 684.615 914.253 675.406 918.647 665.954C923.491 655.535 927.581 644.784 932.485 634.389Z"/>
  <path fill="#0A0806" d="M647.348 204.767C653.062 188.014 660.941 172.338 669.898 157.098C698.906 107.743 739.818 67.668 791.317 42.3173C826.264 25.1138 867.401 17.5023 905.028 30.2981C938.488 41.677 962.554 68.1411 977.826 99.3109Q980.968 105.877 983.716 112.618Q986.464 119.359 988.809 126.25Q991.153 133.142 993.086 140.16Q995.018 147.178 996.532 154.298Q1000.97 175.56 1004.31 197.022C1008.09 221.104 1012.38 274.236 1039.23 283.021C1046.09 285.268 1053 283.912 1059.25 280.544C1074.63 272.259 1081.41 256.276 1088.68 241.367C1092.15 266.566 1092.66 291.457 1076.52 312.738C1064.7 328.312 1046.04 337.858 1026.81 340.283C996.733 344.074 966.884 330.587 943.718 312.431C873.683 257.544 880.694 190.563 777.366 165.249C763.456 174.123 749.995 183.962 737.896 195.22C732.271 200.454 727.128 207.003 721.14 211.725C715.882 216.133 711.95 221.028 707.799 226.479C676.558 264.169 649.695 303.105 633.709 349.79L630.601 357.034C623.46 322.063 624.976 287.566 632.545 252.819C634.82 242.374 637.244 231.937 641.311 222.02C644.893 217.308 646.043 210.401 647.348 204.767Z"/>
  <path fill="#4ECF3B" d="M634.808 304.928C635.059 307.952 634.688 311.823 636.562 314.31C634.696 322.426 633.485 330.061 634.435 338.391L631.595 347.694C631.4 333.753 631.499 320.101 632.774 306.215L634.808 304.928Z"/>
  <path fill="#90E93C" d="M632.774 306.215C637.302 239.519 666.31 175.89 708.754 124.688C744.648 81.3881 795.487 43.1022 853.182 38.0172C881.546 35.5173 910.546 42.1999 932.626 60.7884C966.078 88.9503 977.713 132.018 985.6 173.182C987.92 185.293 990.556 197.685 991.656 209.979C991.472 209.825 991.268 209.692 991.104 209.516C987.045 205.171 984.68 188.629 982.975 182.298C967.6 125.195 943.954 61.2048 876.06 53.9897C831.026 49.204 789.363 70.7609 755.4 98.3796C710.583 134.826 679.087 183.33 656.319 235.864C646.84 257.734 638.371 281.265 634.808 304.928L632.774 306.215Z"/>
  <path fill="#09601E" d="M636.562 314.31C639.925 301.306 646.037 286.848 652.019 274.843C685.405 207.842 737.206 133.39 811.56 108.781C839.337 99.5869 870.771 99.5953 897.169 113.065C926.36 127.96 940.498 155.533 950.26 185.417C927.148 159.067 916.305 149.505 881.855 140.003C909.518 173.337 924.451 214.981 948.798 250.577C964.569 273.636 988.471 299.58 1017.14 304.799Q1018.69 305.072 1020.25 305.272Q1021.81 305.471 1023.38 305.596Q1024.95 305.721 1026.52 305.771Q1028.09 305.821 1029.67 305.797Q1031.24 305.772 1032.81 305.673Q1034.38 305.574 1035.94 305.4Q1037.51 305.226 1039.06 304.978Q1040.62 304.73 1042.16 304.409Q1043.7 304.087 1045.22 303.693Q1046.74 303.298 1048.25 302.832Q1049.75 302.366 1051.23 301.829Q1052.71 301.292 1054.16 300.685Q1055.61 300.078 1057.03 299.403Q1058.45 298.727 1059.84 297.985Q1061.23 297.243 1062.58 296.436Q1063.93 295.629 1065.24 294.759C1070.63 291.222 1075.46 286.989 1080.73 283.301C1076.69 298.829 1068.56 311.346 1054.5 319.515C1036.31 330.078 1014.07 331.661 994.004 326.127C953.061 314.833 924.599 280.705 901.302 247.194C891.785 233.504 882.764 219.182 871.785 206.599Q869.495 203.935 867.089 201.377Q864.682 198.819 862.164 196.37Q859.645 193.922 857.019 191.589Q854.393 189.256 851.666 187.043Q848.938 184.83 846.115 182.741Q843.291 180.652 840.376 178.691Q837.462 176.731 834.463 174.902Q831.463 173.074 828.385 171.382C815.52 164.3 801.732 158.985 786.916 158.317C796.335 153.396 805.486 147.87 815.089 143.324C837.912 132.518 866.77 124.838 891.659 132.748C898.502 134.923 904.969 138.039 911.404 141.186C896.607 128.09 874.951 123.792 855.695 124.949C800.01 128.295 748.076 166.082 712.394 206.753C682.979 240.282 656.624 279.136 640.448 320.888C638.403 326.166 635.153 332.875 634.435 338.391C633.485 330.061 634.696 322.426 636.562 314.31Z"/>
  <path fill="#0BAA3D" d="M634.808 304.928C638.371 281.265 646.84 257.734 656.319 235.864C679.087 183.33 710.583 134.826 755.4 98.3796C789.363 70.7609 831.026 49.204 876.06 53.9897C943.954 61.2048 967.6 125.195 982.975 182.298C984.68 188.629 987.045 205.171 991.104 209.516C991.268 209.692 991.472 209.825 991.656 209.979L991.811 210.537C999.175 237.676 999.825 275.805 1027.51 291.596C1036.13 296.512 1046.26 298.286 1055.9 295.481C1067.62 292.069 1075.72 283.781 1083.35 274.697L1080.73 283.301C1075.46 286.989 1070.63 291.222 1065.24 294.759Q1063.93 295.629 1062.58 296.436Q1061.23 297.243 1059.84 297.985Q1058.45 298.727 1057.03 299.403Q1055.61 300.078 1054.16 300.685Q1052.71 301.292 1051.23 301.829Q1049.75 302.366 1048.25 302.832Q1046.74 303.298 1045.22 303.693Q1043.7 304.087 1042.16 304.409Q1040.62 304.73 1039.06 304.978Q1037.51 305.226 1035.94 305.4Q1034.38 305.574 1032.81 305.673Q1031.24 305.772 1029.67 305.797Q1028.09 305.821 1026.52 305.771Q1024.95 305.721 1023.38 305.596Q1021.81 305.471 1020.25 305.272Q1018.69 305.072 1017.14 304.799C988.471 299.58 964.569 273.636 948.798 250.577C924.451 214.981 909.518 173.337 881.855 140.003C916.305 149.505 927.148 159.067 950.26 185.417C940.498 155.533 926.36 127.96 897.169 113.065C870.771 99.5953 839.337 99.5869 811.56 108.781C737.206 133.39 685.405 207.842 652.019 274.843C646.037 286.848 639.925 301.306 636.562 314.31C634.688 311.823 635.059 307.952 634.808 304.928Z"/>
  <path fill="#1367B7" d="M947.181 408.484Q954.83 419.614 962.189 430.938C965.078 435.342 967.823 440.241 971.398 444.109C976.775 454.542 981.326 468.297 982.441 479.928C987.918 502.557 991.171 524.526 992.166 547.809C992.371 552.598 993.322 559.331 991.369 563.761C989.948 564.937 988.771 564.941 987.018 565.08C978.996 560.258 953.113 565.132 944.263 567.282C941.098 568.05 937.954 569 935.016 570.415C925.938 579.781 921.859 591.905 922.077 604.882C922.263 615.992 925.27 625.848 932.485 634.389C927.581 644.784 923.491 655.535 918.647 665.954C914.253 675.406 909.09 684.615 903.81 693.6C861.546 765.52 792.779 828.411 713.63 856.758Q709.067 858.401 704.454 859.901Q699.842 861.401 695.186 862.757Q690.529 864.113 685.832 865.324Q681.136 866.535 676.404 867.599Q671.672 868.663 666.909 869.58Q662.146 870.497 657.358 871.266Q652.569 872.034 647.758 872.653Q642.948 873.272 638.121 873.742Q633.293 874.211 628.453 874.531Q623.614 874.85 618.767 875.019Q613.919 875.188 609.069 875.206Q604.219 875.224 599.371 875.092Q594.523 874.959 589.681 874.676Q584.839 874.393 580.008 873.959Q575.177 873.526 570.362 872.943Q565.547 872.359 560.753 871.627C549.43 869.966 523.985 862.366 514.178 864.382C499.417 859.734 471.991 845.117 461.204 834.495C461.146 834.023 461.205 833.522 461.031 833.08C459.881 830.16 449.732 822.798 446.86 820.182C440.654 814.527 434.847 808.405 429.1 802.288C406.207 777.919 386.25 751.721 371.023 721.88C364.661 713.025 360.963 703.113 356.995 693.032Q354.15 685.92 351.58 678.703Q349.01 671.487 346.718 664.178Q344.426 656.868 342.416 649.477Q340.406 642.085 338.681 634.621Q336.956 627.158 335.519 619.634Q334.081 612.11 332.933 604.536Q331.785 596.962 330.928 589.35Q330.071 581.738 329.506 574.099C328.9 565.619 328.057 556.95 328.682 548.451C326.657 539.572 326.788 527.151 322.668 519.216C322.973 512.054 322.384 503.294 326.972 497.406C330.373 516.869 333.599 536.375 339.575 555.255C354.641 602.851 390.986 660.98 428.629 693.886C442.929 712.451 481.279 738.675 502.15 750.175C533.645 731.428 563.157 709.732 591.778 686.878C612.441 704.072 634.165 719.349 656.778 733.863C666.539 741.478 677.357 747.185 688.173 753.122C725.376 734.46 760.019 712.913 791.941 686.056C852.242 635.322 900.684 569.946 927.076 495.374C931.346 483.31 937.556 467.479 938.65 454.787C942.67 439.672 945.236 423.992 947.181 408.484Z"/>
  <path fill="#200130" d="M947.181 408.484Q954.83 419.614 962.189 430.938C965.078 435.342 967.823 440.241 971.398 444.109C976.775 454.542 981.326 468.297 982.441 479.928C987.918 502.557 991.171 524.526 992.166 547.809C992.371 552.598 993.322 559.331 991.369 563.761C989.948 564.937 988.771 564.941 987.018 565.08C978.996 560.258 953.113 565.132 944.263 567.282C941.098 568.05 937.954 569 935.016 570.415C935.895 552.961 948.089 485.187 941.383 475.305C937.824 486.071 934.284 496.822 930.166 507.39C926.395 517.069 922.094 526.57 918.511 536.315C908.837 555.408 898.869 574.165 886.929 591.966C839.121 663.237 766.235 727.277 686.858 760.755C653.098 742.213 619.318 721.991 590.681 696.013C564.16 720.531 533.275 739.157 503.276 758.98C444.009 729.909 384.854 667.251 354.325 609.106Q344.169 589.765 336.235 569.411C333.566 562.502 331.539 555.262 328.682 548.451C326.657 539.572 326.788 527.151 322.668 519.216C322.973 512.054 322.384 503.294 326.972 497.406C330.373 516.869 333.599 536.375 339.575 555.255C354.641 602.851 390.986 660.98 428.629 693.886C442.929 712.451 481.279 738.675 502.15 750.175C533.645 731.428 563.157 709.732 591.778 686.878C612.441 704.072 634.165 719.349 656.778 733.863C666.539 741.478 677.357 747.185 688.173 753.122C725.376 734.46 760.019 712.913 791.941 686.056C852.242 635.322 900.684 569.946 927.076 495.374C931.346 483.31 937.556 467.479 938.65 454.787C942.67 439.672 945.236 423.992 947.181 408.484Z"/>
  <path fill="#05346B" d="M951.119 427.61C957.277 435.965 963.483 444.337 968.625 453.37C972.172 459.6 978.41 475.756 982.441 479.928C987.918 502.557 991.171 524.526 992.166 547.809C992.371 552.598 993.322 559.331 991.369 563.761C989.948 564.937 988.771 564.941 987.018 565.08C978.996 560.258 953.113 565.132 944.263 567.282C941.098 568.05 937.954 569 935.016 570.415C935.895 552.961 948.089 485.187 941.383 475.305Q947.777 451.769 951.119 427.61Z"/>
  <path fill="#0A448A" d="M941.383 475.305C948.089 485.187 935.895 552.961 935.016 570.415C925.938 579.781 921.859 591.905 922.077 604.882C922.263 615.992 925.27 625.848 932.485 634.389C927.581 644.784 923.491 655.535 918.647 665.954C914.253 675.406 909.09 684.615 903.81 693.6C861.546 765.52 792.779 828.411 713.63 856.758Q709.067 858.401 704.454 859.901Q699.842 861.401 695.186 862.757Q690.529 864.113 685.832 865.324Q681.136 866.535 676.404 867.599Q671.672 868.663 666.909 869.58Q662.146 870.497 657.358 871.266Q652.569 872.034 647.758 872.653Q642.948 873.272 638.121 873.742Q633.293 874.211 628.453 874.531Q623.614 874.85 618.767 875.019Q613.919 875.188 609.069 875.206Q604.219 875.224 599.371 875.092Q594.523 874.959 589.681 874.676Q584.839 874.393 580.008 873.959Q575.177 873.526 570.362 872.943Q565.547 872.359 560.753 871.627C549.43 869.966 523.985 862.366 514.178 864.382C499.417 859.734 471.991 845.117 461.204 834.495C461.146 834.023 461.205 833.522 461.031 833.08C459.881 830.16 449.732 822.798 446.86 820.182C440.654 814.527 434.847 808.405 429.1 802.288C406.207 777.919 386.25 751.721 371.023 721.88C377.189 722.873 395.83 741.222 401.999 746.081C408.449 751.161 415.19 756.026 421.99 760.626C486.16 804.029 563.72 825.95 640.844 811.005C733.558 793.038 818.106 726.729 870.03 649.515C888.864 621.508 902.456 591.85 913.348 559.999C915.771 552.915 919.983 543.802 918.511 536.315C922.094 526.57 926.395 517.069 930.166 507.39C934.284 496.822 937.824 486.071 941.383 475.305Z"/>
  <path fill="#4ECF3B" d="M574.053 232.842C591.18 225.641 622.395 222.39 641.311 222.02C637.244 231.937 634.82 242.374 632.545 252.819C624.976 287.566 623.46 322.063 630.601 357.034L633.709 349.79C649.695 303.105 676.558 264.169 707.799 226.479C735.713 231.527 762.863 238.808 788.737 250.561C792.887 252.446 797.468 254.227 801.401 256.495C804.339 262.984 829.038 278.811 836.056 285.288C858.992 306.461 880.327 329.083 897.778 355.057C912.095 376.365 924.009 400.796 931.222 425.455C934.004 434.966 935.121 445.609 938.65 454.787C937.556 467.479 931.346 483.31 927.076 495.374C900.684 569.946 852.242 635.322 791.941 686.056C760.019 712.913 725.376 734.46 688.173 753.122C677.357 747.185 666.539 741.478 656.778 733.863C634.165 719.349 612.441 704.072 591.778 686.878C563.157 709.732 533.645 731.428 502.15 750.175C481.279 738.675 442.929 712.451 428.629 693.886C390.986 660.98 354.641 602.851 339.575 555.255C333.599 536.375 330.373 516.869 326.972 497.406C324.586 475.594 349.228 419.695 359.872 399.502C374 368.802 403.097 334.833 428.005 312.223C435.586 303.656 445.79 296.362 455.046 289.679C491.49 263.367 530.623 244.434 574.053 232.842Z"/>
  <path fill="#0BAA3D" d="M418.087 406.708C424.238 408.706 429.124 410.159 433.228 415.48L424.221 428.625C421.203 424.041 418.197 419.57 414.703 415.324L417.803 408.361L418.087 406.708Z"/>
  <path fill="#90E93C" d="M399.431 402.902C405.56 404.181 411.895 405.883 418.087 406.708L417.803 408.361C409.12 414.045 404.64 427.291 401.362 429.33C398.593 426.217 399.435 407.708 399.431 402.902Z"/>
  <path fill="#90E93C" d="M428.005 312.223C435.586 303.656 445.79 296.362 455.046 289.679C491.49 263.367 530.623 244.434 574.053 232.842C568.488 239.201 539.742 252.182 530.982 256.894C487.447 280.311 448.514 311.552 426.837 357.074C422.669 365.827 417.952 376.621 416.443 386.226C410.932 390.494 405.625 394.985 400.303 399.484C394.715 385.179 410.482 345.18 417.967 330.956C421.258 324.701 426.68 319.297 428.005 312.223Z"/>
  <path fill="#90E93C" d="M359.872 399.502C362.062 403.517 356.967 424.789 356.046 429.868C345.079 490.366 356.055 556.677 380.478 612.722Q386.719 626.82 394.335 640.226Q401.95 653.632 410.865 666.212C416.179 673.798 422.367 680.94 427.272 688.784C428.467 690.695 428.834 691.63 428.629 693.886C390.986 660.98 354.641 602.851 339.575 555.255C333.599 536.375 330.373 516.869 326.972 497.406C324.586 475.594 349.228 419.695 359.872 399.502Z"/>
  <path fill="#FEFEFE" d="M424.262 429.167C435.684 434.275 448.018 440.268 457.749 448.166C446.108 467.966 438.926 488.56 445.087 511.662C445.938 514.851 446.966 518.052 448.298 521.074C452.538 531.397 459.264 540.943 469.895 545.421C475.795 547.906 482.293 548.218 488.207 545.598C489.375 545.08 490.446 544.558 491.463 543.785C491.633 543.702 491.804 543.621 491.973 543.535C506.411 536.188 516.784 514.491 518.544 499.063C519.147 493.775 517.863 488.272 519.51 483.121C521.325 482.257 522.279 482.601 524.249 482.81C526.456 498.583 523.075 515.269 515.767 529.365C508.735 542.929 497.162 556.343 482.089 560.918C469.82 564.642 456.693 562.056 445.64 555.969C428.187 546.357 417.184 529.098 411.95 510.245C404.017 481.672 409.965 454.571 424.262 429.167Z"/>
  <path fill="#FEFEFE" d="M692.809 449.199C708.917 442.022 725.584 437.881 742.745 434.157C756.329 448.269 768.961 463.495 772.217 483.501C777.262 507.222 774.596 530.399 761.093 550.989C750.085 567.775 733.144 581.238 713.202 585.268C696.772 588.587 678.999 586.206 664.984 576.668C647.807 564.978 636.877 545.859 633.21 525.644C630.629 511.415 631.799 497.823 633.657 483.623L639.973 479.879C636.689 503.224 637.226 529.044 652.159 548.622C655.75 553.33 659.922 556.894 665.066 559.844C667.836 562.186 671.412 563.441 674.978 563.822C681.044 564.47 686.762 562.935 691.589 559.215C693.756 557.946 695.68 556.307 697.554 554.641C710.42 543.205 716.366 526.033 717.383 509.209C718.652 488.209 712.416 469.474 698.575 453.725L692.809 449.199Z"/>
  <path fill="#A1CBEA" d="M692.809 449.199C708.917 442.022 725.584 437.881 742.745 434.157C756.329 448.269 768.961 463.495 772.217 483.501C753.274 469.282 734.438 459.263 711.152 454.12C707.953 453.414 701.367 451.924 698.575 453.725L692.809 449.199Z"/>
  <defs>
    <linearGradient id="gradient_5" gradientUnits="userSpaceOnUse" x1="525.80896" y1="671.9978" x2="586.03949" y2="562.47723">
      <stop offset="0" stop-color="#020204"/>
      <stop offset="1" stop-color="#111839"/>
    </linearGradient>
  </defs>
  <path fill="url(#gradient_5)" d="M609.776 579.411C615.418 579.616 620.597 580.574 625.722 583.082C634.278 587.269 639.771 594.331 642.709 603.264C646.464 614.68 645.841 628.342 640.311 639.092C632.099 655.057 613.779 664.306 597.379 669.462C564.928 679.664 532.451 676.298 502.454 660.626C497.638 658.116 493.282 655.169 488.841 652.068C492.274 644.416 496.326 637.032 500.425 629.723C494.866 622.188 490.305 614.571 486.11 606.225C479.406 603.296 472.024 600.163 466.832 594.871C505.197 604.479 539.502 600.734 576.816 589.523C587.952 586.177 598.216 581.31 609.776 579.411Z"/>
  <path d="M 569.335 630.606 C 593.261 626.632 615.82 623.97 637.852 612.587 C 637.604 625.51 635.872 636.313 626.039 645.824 C 614.929 656.572 597.528 663.428 582.368 665.357 C 588.137 661.403 595.655 654.483 597.463 647.51 C 598.65 642.931 597.375 640.332 595.006 636.442 C 586.733 632.363 577.63 634.222 569.335 630.606 Z M 592.155 593.543 C 601.091 589.703 610.556 585.399 620.338 589.126 C 629.228 592.513 633.672 600.362 637.472 608.487 C 621.734 616.583 602.704 624.981 584.795 625.76 C 587.979 623.325 591.726 621.909 595.29 620.135 C 600.4 617.592 609.54 612.508 610.848 606.574 C 611.146 605.225 610.811 603.86 610.068 602.719 C 606.218 596.807 598.525 595.011 592.155 593.543 Z M 592.155 593.543 C 598.525 595.011 606.218 596.807 610.068 602.719 C 610.811 603.86 611.146 605.225 610.848 606.574 C 609.54 612.508 600.4 617.592 595.29 620.135 C 591.726 621.909 587.979 623.325 584.795 625.76 C 575.726 627.664 566.684 628.972 557.541 630.415 C 561.501 630.674 565.369 630.724 569.335 630.606 C 577.63 634.222 586.733 632.363 595.006 636.442 C 597.375 640.332 598.65 642.931 597.463 647.51 C 595.655 654.483 588.137 661.403 582.368 665.357 C 552.181 672.25 524.251 664.421 498.158 649.244 L 505.019 635.274 C 504.57 634.315 504.588 634.532 504.421 633.64 C 503.82 630.423 503.902 628.363 505.689 625.636 C 502.124 619.994 498.689 614.274 495.386 608.475 C 529.026 608.381 560.189 604.153 592.155 593.543 Z" style="fill: rgb(255, 255, 255);"/>
  <path fill="#0A0806" d="M505.689 625.636C506.934 627.164 508.16 628.342 508.287 630.406C507.598 632.44 506.43 633.685 505.019 635.274C504.57 634.315 504.588 634.532 504.421 633.64C503.82 630.423 503.902 628.363 505.689 625.636Z"/>
  <path fill="#0A0806" d="M416.443 386.226C431.744 374.781 454.23 365.379 473.727 368.193C487.493 370.18 498.045 379.978 505.988 390.785Q508.196 393.801 510.263 396.916Q512.329 400.031 514.249 403.239Q516.169 406.446 517.939 409.739Q519.708 413.031 521.324 416.402Q522.939 419.773 524.397 423.216Q525.855 426.658 527.152 430.163Q528.449 433.669 529.583 437.231Q530.716 440.793 531.684 444.404C537.376 444.628 540.498 444.275 545.253 440.949C546.112 437.239 546.722 433.328 548.545 429.957L549.433 429.548C552.408 434.853 548.885 449.324 547.309 454.924C544.644 464.393 538.939 476.312 530.028 481.26C528.236 482.255 526.28 482.696 524.249 482.81C522.279 482.601 521.325 482.257 519.51 483.121C517.863 488.272 519.147 493.775 518.544 499.063C516.784 514.491 506.411 536.188 491.973 543.535C491.804 543.621 491.633 543.702 491.463 543.785C490.446 544.558 489.375 545.08 488.207 545.598C482.293 548.218 475.795 547.906 469.895 545.421C459.264 540.943 452.538 531.397 448.298 521.074C446.966 518.052 445.938 514.851 445.087 511.662C438.926 488.56 446.108 467.966 457.749 448.166C448.018 440.268 435.684 434.275 424.262 429.167L424.221 428.625L433.228 415.48C429.124 410.159 424.238 408.706 418.087 406.708C411.895 405.883 405.56 404.181 399.431 402.902C398.494 402.391 398.886 402.785 398.449 401.553L400.303 399.484C405.625 394.985 410.932 390.494 416.443 386.226Z"/>
  <path fill="#0B8A2A" d="M501.439 511.116Q507.028 502.72 511.175 493.526C510.726 501.447 510.266 509.225 508.348 516.959C506.159 514.755 504.153 512.695 501.439 511.116Z"/>
  <path fill="#09601E" d="M448.978 517.401C447.305 507.699 449.44 497.557 452.405 488.318Q454.695 496.284 457.257 504.166C453.95 508.259 451.605 512.868 448.978 517.401Z"/>
  <path fill="#067826" d="M531.684 444.404C537.376 444.628 540.498 444.275 545.253 440.949C543.276 450.541 540.172 459.164 535.511 467.787C534.417 460.054 533.547 451.984 531.684 444.404Z"/>
  <path fill="#FEFEFE" d="M486.083 461.947C492.188 464.777 498.786 467.425 505.203 469.454C505.859 469.836 506.586 470.57 507.034 471.202C509.181 474.229 508.805 479.849 508.273 483.292C507.401 488.935 505.318 494.746 500.381 498.085C496.92 500.426 492.494 500.96 488.485 499.928C483.089 498.539 478.785 494.52 476.157 489.711C473.608 485.047 472.373 479.171 474.025 474C475.974 467.899 480.659 464.682 486.083 461.947Z"/>
  <path fill="#A1CBEA" d="M433.228 415.48C434.773 414.285 435.389 413.564 437.397 413.789C453.958 415.643 492.48 451.277 502.021 464.596C503.147 466.168 504.278 467.754 505.203 469.454C498.786 467.425 492.188 464.777 486.083 461.947L485.878 461.016C481.843 456.132 467.527 447.028 461.191 446.482C459.336 446.322 459.077 446.993 457.749 448.166C448.018 440.268 435.684 434.275 424.262 429.167L424.221 428.625L433.228 415.48Z"/>
  <path fill="#0BAA3D" d="M457.257 504.166C461.131 511.656 465.898 517.974 474.388 520.496C480.456 522.299 487.169 521.378 492.684 518.345Q493.932 517.65 495.111 516.845Q496.291 516.04 497.392 515.131Q498.493 514.221 499.507 513.216Q500.521 512.21 501.439 511.116C504.153 512.695 506.159 514.755 508.348 516.959C505.965 522.209 503.466 527.074 500.204 531.836C498.132 534.862 492.105 540.594 491.463 543.785C490.446 544.558 489.375 545.08 488.207 545.598C482.293 548.218 475.795 547.906 469.895 545.421C459.264 540.943 452.538 531.397 448.298 521.074C448.929 519.663 448.894 518.928 448.978 517.401C451.605 512.868 453.95 508.259 457.257 504.166Z"/>
  <path fill="#0A448A" d="M404.119 400.159L420.286 390.16C420.456 390.246 420.623 390.336 420.795 390.417C426.316 393.019 433.546 392.456 439.532 394.318C464.927 402.217 486.335 416.744 503.206 437.192C507.486 442.379 520.234 460.512 527.172 460.121L528.039 459.508C528.553 462.284 529.098 465.061 529.151 467.892C529.209 470.966 529.171 475.672 526.72 477.921C522.333 481.945 507.042 461.814 504.438 458.606C475.971 423.549 449.266 405.53 404.119 400.159Z"/>
  <path fill="#1367B7" d="M420.286 390.16C434.864 380.695 457.494 370.995 475.287 374.816C489.266 377.818 499.565 391.124 506.712 402.59C517.864 420.481 523.991 438.958 528.039 459.508L527.172 460.121C520.234 460.512 507.486 442.379 503.206 437.192C486.335 416.744 464.927 402.217 439.532 394.318C433.546 392.456 426.316 393.019 420.795 390.417C420.623 390.336 420.456 390.246 420.286 390.16Z"/>
  <path fill="#0A0806" d="M613.935 461.63C619.19 454.292 623.98 446.621 629.285 439.304C645.574 416.837 664.977 395.869 688.334 380.644C703.178 370.967 717.498 366.672 735.115 370.52C773.782 378.966 799.28 405.516 819.687 437.616C794.818 430.995 768.166 431.735 742.745 434.157C725.584 437.881 708.917 442.022 692.809 449.199L698.575 453.725C712.416 469.474 718.652 488.209 717.383 509.209C716.366 526.033 710.42 543.205 697.554 554.641C695.68 556.307 693.756 557.946 691.589 559.215C686.762 562.935 681.044 564.47 674.978 563.822C671.412 563.441 667.836 562.186 665.066 559.844C659.922 556.894 655.75 553.33 652.159 548.622C637.226 529.044 636.689 503.224 639.973 479.879L633.657 483.623C628.93 486.552 624.182 489.829 618.736 491.228C614.908 492.211 610.821 492.001 607.381 489.923C602.509 486.979 600.183 481.439 598.831 476.148C594.832 460.493 597.78 445.511 605.964 431.824C604.37 437.983 603.304 443.994 602.822 450.342C605.724 455.11 608.176 459.983 613.935 461.63Z"/>
  <path fill="#09601E" d="M701.672 523.093C702.898 520.865 703.984 518.871 705.755 517.029L706.945 516.99C708.635 519.49 707.699 524.577 707.097 527.482C706.443 530.64 705.279 533.643 704.025 536.602C703.007 532.187 702.435 527.566 701.672 523.093Z"/>
  <path fill="#0B8A2A" d="M647.295 496.794C648.509 504.894 650.353 512.13 653.403 519.73C650.59 524.174 652.131 532.392 650.086 537.844C645.408 524.075 645.656 511.042 647.295 496.794Z"/>
  <path fill="#0B8A2A" d="M602.822 450.342C605.724 455.11 608.176 459.983 613.935 461.63C612.054 467.864 607.883 473.8 605.692 480.127C602.601 470.112 601.785 460.745 602.822 450.342Z"/>
  <path fill="#FEFEFE" d="M687.112 466.405C689.332 466.822 691.352 467.336 693.366 468.394C698.45 471.063 701.978 475.824 703.65 481.259C705.456 487.128 705.133 493.716 702.169 499.158C699.256 504.505 695.277 506.793 689.615 508.496C687.365 508.309 684.935 507.656 682.924 506.633C677.812 504.031 674.27 499.422 672.543 494C670.633 488.006 670.708 480.695 673.941 475.156C677.107 469.731 681.364 467.966 687.112 466.405Z"/>
  <path fill="#0BAA3D" d="M650.086 537.844C652.131 532.392 650.59 524.174 653.403 519.73C658.756 527.526 664.575 535.982 674.518 538.025C680.376 539.229 686.063 537.328 690.834 533.937C695.056 530.936 698.35 527.022 701.672 523.093C702.435 527.566 703.007 532.187 704.025 536.602C700.61 544.352 694.119 551.404 691.589 559.215C686.762 562.935 681.044 564.47 674.978 563.822C671.412 563.441 667.836 562.186 665.066 559.844C663.415 556.727 660.63 553.784 658.483 550.93C655.314 546.717 652.601 542.478 650.086 537.844Z"/>
  <path fill="#0A448A" d="M784.294 404.966C793.555 411.911 800.479 420.375 807.894 429.171C754.196 421.217 716.425 427.88 669.488 454.427C658.022 460.912 626.675 483.758 617.336 486.027C614.208 486.787 612.245 486.536 610.257 483.864C609.333 479.255 611.24 476.32 613.721 472.59C615.083 470.543 616.36 468.522 618.144 466.815C629.937 466.829 671.441 435.561 684.198 427.96C693.941 422.156 705.042 416.362 715.83 412.904C725.921 409.669 736.645 407.618 747.188 406.614C755.597 405.814 777.937 408.186 784.294 404.966Z"/>
  <path fill="#1367B7" d="M618.144 466.815C626.406 452.549 636.53 439.417 647.292 426.956C663.412 408.288 693.289 377.187 718.493 375.534C741.85 374.002 767.549 390.255 784.294 404.966C777.937 408.186 755.597 405.814 747.188 406.614C736.645 407.618 725.921 409.669 715.83 412.904C705.042 416.362 693.941 422.156 684.198 427.96C671.441 435.561 629.937 466.829 618.144 466.815Z"/>
  <path fill="#0B8A2A" d="M707.799 226.479C735.713 231.527 762.863 238.808 788.737 250.561C792.887 252.446 797.468 254.227 801.401 256.495C804.339 262.984 829.038 278.811 836.056 285.288C858.992 306.461 880.327 329.083 897.778 355.057C912.095 376.365 924.009 400.796 931.222 425.455C934.004 434.966 935.121 445.609 938.65 454.787C937.556 467.479 931.346 483.31 927.076 495.374C900.684 569.946 852.242 635.322 791.941 686.056C760.019 712.913 725.376 734.46 688.173 753.122C677.357 747.185 666.539 741.478 656.778 733.863C657.218 733.79 657.659 733.724 658.094 733.631C669.849 731.118 681.787 726.402 692.857 721.782Q695.433 720.708 697.99 719.586Q700.546 718.464 703.081 717.296Q705.616 716.127 708.129 714.912Q710.642 713.696 713.132 712.435Q715.622 711.174 718.089 709.866Q720.555 708.559 722.997 707.207Q725.439 705.854 727.855 704.457Q730.272 703.06 732.662 701.618Q735.052 700.177 737.416 698.691Q739.779 697.206 742.114 695.677Q744.45 694.148 746.757 692.577Q749.064 691.005 751.341 689.391Q753.619 687.777 755.866 686.121Q758.113 684.466 760.33 682.769Q762.546 681.072 764.73 679.334Q766.915 677.597 769.067 675.819Q771.22 674.042 773.339 672.225Q775.458 670.408 777.543 668.552Q779.628 666.697 781.679 664.803Q783.729 662.909 785.745 660.978Q787.76 659.046 789.739 657.078Q791.718 655.11 793.661 653.106Q795.604 651.101 797.509 649.061Q799.414 647.021 801.281 644.947Q803.149 642.872 804.978 640.763Q806.806 638.655 808.596 636.512Q810.385 634.37 812.135 632.195Q813.885 630.021 815.594 627.814Q817.303 625.607 818.971 623.369Q820.639 621.131 822.266 618.863Q823.892 616.595 825.477 614.297Q827.061 611.999 828.603 609.672C866.588 551.852 882.88 480.214 868.634 412.103C855.975 351.577 820.76 294.875 768.51 260.821C756.78 267.556 745.792 275.667 734.605 283.254L683.73 317.459C667.264 328.644 651.108 340.061 633.709 349.79C649.695 303.105 676.558 264.169 707.799 226.479Z"/>
</svg>