<?xml version="1.0" encoding="utf-8"?>
<svg viewBox="0 0 48 48" width="48px" height="48px" xmlns="http://www.w3.org/2000/svg">
  <path d="M 46.997 10.046 C 46.445 7.982 44.818 6.355 42.754 5.803 C 39.01 4.8 24 4.8 24 4.8 C 24 4.8 8.99 4.8 5.246 5.803 C 3.182 6.355 1.555 7.982 1.003 10.046 C 0 13.79 0 24 0 24 C 0 24 0 34.21 1.003 37.954 C 1.555 40.018 3.182 41.645 5.246 42.197 C 8.99 43.2 24 43.2 24 43.2 C 24 43.2 39.01 43.2 42.754 42.197 C 44.82 41.645 46.445 40.018 46.997 37.954 C 48 34.21 48 24 48 24 C 48 24 48 13.79 46.997 10.046 Z M 19.2 30.235 L 19.2 17.765 C 19.2 16.841 20.201 16.265 21 16.726 L 31.8 22.961 C 32.599 23.422 32.599 24.578 31.8 25.039 L 21 31.274 C 20.201 31.738 19.2 31.159 19.2 30.235 Z"/>
</svg>