<?xml version="1.0" encoding="utf-8"?>
<svg viewBox="0 0 48 48" width="48px" height="48px" xmlns="http://www.w3.org/2000/svg">
  <path d="M 13.996 0 C 6.278 0 0 6.284 0 14.003 L 0 34.004 C 0 41.722 6.284 48 14.003 48 L 34.004 48 C 41.722 48 48 41.716 48 33.995 L 48 13.996 C 48 6.278 41.716 0 33.995 0 L 13.996 0 Z M 38.001 8.001 C 39.105 8.001 39.999 8.895 39.999 9.999 C 39.999 11.103 39.105 12 38.001 12 C 36.897 12 36 11.103 36 9.999 C 36 8.895 36.897 8.001 38.001 8.001 Z M 24 12 C 30.618 12 36 17.382 36 24 C 36 30.618 30.618 36 24 36 C 17.382 36 12 30.618 12 24 C 12 17.382 17.382 12 24 12 Z M 24 15.999 C 19.581 15.999 15.999 19.581 15.999 24 C 15.999 28.419 19.581 32.001 24 32.001 C 28.419 32.001 32.001 28.419 32.001 24 C 32.001 19.581 28.419 15.999 24 15.999 Z"/>
</svg>