<?xml version="1.0" encoding="utf-8"?>
<svg width="48px" height="48px" viewBox="0 0 48 48" fill="none" xmlns="http://www.w3.org/2000/svg">
  <g transform="matrix(1, 0, 0, 1, -3.999682, -3.999641)">
    <path d="M 40.003 5.915 C 40.003 4.408 38.317 4.408 37.566 4.596 C 38.617 3.767 39.847 3.968 40.285 4.22 L 50.42 9.189 C 51.388 9.664 52 10.65 52 11.73 L 52 44.428 C 52 45.523 51.371 46.519 50.384 46.984 L 40.847 51.493 C 40.189 51.776 38.766 52.475 37.566 51.493 C 39.066 51.776 39.877 50.711 40.003 49.987 L 40.003 5.915 Z" fill="url(#paint0_linear_87_8101)"/>
    <path d="M 37.687 4.569 C 38.485 4.412 40.003 4.485 40.003 5.915 L 40.003 17.171 L 9.27 40.42 C 8.73 40.825 7.974 40.759 7.518 40.264 L 4.35 36.836 C 3.854 36.301 3.888 35.459 4.428 34.964 L 37.566 4.596 L 37.687 4.569 Z" fill="url(#paint1_linear_87_8101)"/>
    <path d="M 40.003 38.922 L 9.27 15.671 C 8.73 15.266 7.974 15.332 7.518 15.827 L 4.35 19.255 C 3.854 19.792 3.888 20.632 4.428 21.126 L 37.566 51.495 C 39.066 51.776 39.877 50.711 40.003 49.988 L 40.003 38.922 Z" fill="url(#paint2_linear_87_8101)"/>
  </g>
  <defs>
    <linearGradient id="paint0_linear_87_8101" x1="23.79" y1="2" x2="23.79" y2="30" gradientUnits="userSpaceOnUse" gradientTransform="matrix(1.714267, 0, 0, 1.714267, 4.000555, 0.572058)">
      <stop stop-color="#32B5F1"/>
      <stop offset="1" stop-color="#2B9FED"/>
    </linearGradient>
    <linearGradient id="paint1_linear_87_8101" x1="21.0018" y1="5.53398" x2="1.0217" y2="22.3051" gradientUnits="userSpaceOnUse" gradientTransform="matrix(1.714267, 0, 0, 1.714267, 4.000555, 0.572058)">
      <stop stop-color="#0F6FB3"/>
      <stop offset="0.2706" stop-color="#1279B7"/>
      <stop offset="0.4214" stop-color="#1176B5"/>
      <stop offset="0.6182" stop-color="#0E69AC"/>
      <stop offset="0.8553" stop-color="#0F70AF"/>
      <stop offset="1" stop-color="#0F6DAD"/>
    </linearGradient>
    <linearGradient id="paint2_linear_87_8101" x1="1.15522" y1="9.98389" x2="21.0791" y2="26.4808" gradientUnits="userSpaceOnUse" gradientTransform="matrix(1.714267, 0, 0, 1.714267, 4.000555, 0.572058)">
      <stop stop-color="#1791D2"/>
      <stop offset="1" stop-color="#1173C5"/>
    </linearGradient>
  </defs>
</svg>