<?xml version="1.0" encoding="utf-8"?>
<svg viewBox="0 0 48 48" xmlns="http://www.w3.org/2000/svg">
  <defs/>
  <path d="M 46 24 C 46 36.15 36.15 46 24 46 C 11.85 46 2 36.15 2 24 C 2 11.85 11.85 2 24 2 C 36.15 2 46 11.85 46 24 Z M 21.262 26.86 C 20.433 26.86 19.79 26.591 19.331 26.052 C 18.872 25.513 18.643 24.876 18.643 24.142 C 18.643 23.423 18.836 22.812 19.223 22.31 C 19.61 21.809 20.199 21.558 20.992 21.558 C 21.414 21.558 21.855 21.632 22.316 21.78 L 22.521 20.427 C 22.096 20.318 21.645 20.263 21.168 20.263 C 19.871 20.263 18.851 20.669 18.106 21.481 C 17.362 22.294 16.99 23.249 16.99 24.347 C 16.99 25.406 17.341 26.305 18.042 27.045 C 18.743 27.785 19.764 28.155 21.103 28.155 C 21.642 28.155 22.189 28.089 22.744 27.956 L 22.844 26.608 C 22.273 26.776 21.746 26.86 21.262 26.86 Z M 29.084 25.079 C 29.084 25.005 29.089 24.854 29.098 24.625 C 29.108 24.396 29.113 24.245 29.113 24.171 C 29.113 23.452 28.934 22.95 28.577 22.665 C 28.22 22.38 27.726 22.237 27.097 22.237 C 26.433 22.237 25.843 22.473 25.328 22.946 L 25.252 22.946 C 25.252 22.017 25.281 20.923 25.339 19.665 L 23.681 19.759 C 23.802 20.79 23.863 22.085 23.863 23.643 C 23.863 25.335 23.841 26.786 23.798 27.997 L 25.357 27.997 C 25.318 26.892 25.298 25.509 25.298 23.849 C 25.709 23.564 26.127 23.421 26.552 23.421 C 26.955 23.421 27.244 23.529 27.42 23.746 C 27.595 23.963 27.683 24.419 27.683 25.114 C 27.683 26.048 27.64 27.009 27.554 27.997 L 29.113 27.997 C 29.094 26.704 29.084 25.732 29.084 25.079 Z M 34.995 26.005 C 34.995 25.86 35.002 25.571 35.016 25.138 C 35.029 24.704 35.036 24.405 35.036 24.241 C 35.036 23.499 34.844 22.98 34.459 22.683 C 34.074 22.386 33.529 22.237 32.822 22.237 C 31.853 22.237 31.103 22.329 30.572 22.513 L 30.443 23.591 C 31.005 23.434 31.581 23.356 32.171 23.356 C 32.714 23.356 33.087 23.424 33.29 23.559 C 33.493 23.694 33.595 23.972 33.595 24.393 C 33.595 24.456 33.591 24.522 33.583 24.593 C 32.326 24.616 31.446 24.817 30.944 25.196 C 30.442 25.575 30.191 26.062 30.191 26.655 C 30.191 27.104 30.352 27.465 30.674 27.736 C 30.997 28.007 31.402 28.143 31.89 28.143 C 32.621 28.143 33.201 27.96 33.63 27.593 L 33.706 27.593 C 33.706 27.726 33.737 27.874 33.8 28.038 L 35.183 27.991 C 35.058 27.476 34.995 26.814 34.995 26.005 Z M 32.464 27.118 C 31.878 27.118 31.585 26.886 31.585 26.421 C 31.585 25.745 32.251 25.407 33.583 25.407 C 33.583 25.79 33.595 26.245 33.619 26.772 C 33.31 27.003 32.925 27.118 32.464 27.118 Z M 41.575 25.267 C 41.575 25.068 41.58 24.873 41.59 24.684 C 41.599 24.494 41.604 24.342 41.604 24.229 C 41.604 23.468 41.423 22.945 41.062 22.662 C 40.701 22.379 40.219 22.237 39.618 22.237 C 38.923 22.237 38.307 22.468 37.772 22.929 L 37.678 22.929 L 37.579 22.308 L 36.079 22.472 C 36.27 23.3 36.366 24.181 36.366 25.114 C 36.366 25.813 36.331 26.774 36.26 27.997 L 37.837 27.997 C 37.837 26.774 37.827 25.401 37.807 23.878 C 38.206 23.573 38.628 23.421 39.073 23.421 C 39.444 23.421 39.721 23.53 39.902 23.749 C 40.083 23.968 40.174 24.384 40.174 24.997 C 40.174 26.009 40.131 27.009 40.046 27.997 L 41.604 27.997 C 41.585 26.704 41.575 25.794 41.575 25.267 Z M 24.269 35.272 C 20.818 35.272 18.137 34.149 16.224 31.903 C 14.312 29.656 13.356 27.003 13.356 23.944 C 13.356 20.949 14.162 18.405 15.773 16.314 C 17.384 14.223 19.842 13.177 23.146 13.177 C 24.903 13.177 26.742 13.486 28.663 14.105 L 29.518 8.465 C 27.744 8.009 25.864 7.781 23.878 7.781 C 18.475 7.781 14.223 9.474 11.122 12.86 C 8.021 16.245 6.471 20.225 6.471 24.798 C 6.471 29.209 7.932 32.956 10.853 36.041 C 13.775 39.125 18.027 40.667 23.61 40.667 C 25.856 40.667 28.134 40.39 30.445 39.837 L 30.861 34.222 C 28.484 34.922 26.287 35.272 24.269 35.272 Z" style="stroke: rgba(0, 0, 0, 0); stroke-opacity: 0; stroke-width: 0px;"/>
</svg>