<?xml version="1.0" encoding="utf-8"?>
<svg viewBox="0 0 48 48" xmlns="http://www.w3.org/2000/svg">
  <defs/>
  <g transform="matrix(0.048, 0, 0, 0.048, 49.196, 226.231021)" style="transform-origin: -49.196px -226.231px;">
    <path d="M 950.804 273.769 C 950.804 549.911 726.946 773.769 450.804 773.769 C 174.662 773.769 -49.196 549.911 -49.196 273.769 C -49.196 -2.373 174.662 -226.231 450.804 -226.231 C 726.946 -226.231 950.804 -2.373 950.804 273.769 Z M 743.772 10.172 C 735.881 11.796 724.711 12.971 717.572 16.057 C 715.64 16.892 714.067 18.607 712.945 20.351 C 708.888 26.657 710.628 53.701 710.312 62.791 C 706.558 56.654 688.938 25.037 683.877 23.942 C 681.324 23.389 678.324 23.607 675.736 23.969 C 667.925 25.06 602.323 38.574 599.052 40.762 C 596.25 42.636 595.007 44.83 594.487 48.118 C 593.277 55.765 594.098 64.577 594.102 72.337 C 594.109 88.936 594.27 105.59 593.763 122.179 C 587.154 111.813 581.773 100.569 574.977 90.382 C 568.997 81.417 559.558 71.878 552.476 63.46 L 537.765 45.92 C 534.414 41.875 531.191 37.517 527.423 33.851 C 525.88 32.35 524.613 31.141 522.441 30.698 C 518.388 29.872 513.732 31.186 510.396 33.536 C 508.933 34.567 508.029 35.822 507.197 37.395 C 503.497 44.388 501.093 52.478 498.333 59.899 L 482.143 102.924 C 479.463 109.981 477.141 117.535 473.869 124.311 L 438.936 87.673 C 433.12 81.484 427.296 73.661 420.565 68.569 C 419.003 67.388 417.525 67.306 415.618 67.285 C 408.852 67.213 401.664 69.449 395.064 70.876 L 366.517 77.056 C 356.867 79.142 344.72 80.831 335.648 83.887 C 333.71 84.54 332.13 85.685 330.739 87.17 C 325.189 93.095 327.601 111.995 327.374 120.089 C 322.356 114.608 305.009 93.014 299.024 92.677 C 290.632 92.204 268.194 98.31 258.519 100.325 C 246.777 102.769 234.388 104.561 222.86 107.827 C 221.049 108.34 219.464 109.305 218.099 110.593 C 214.3 114.177 213.964 119.216 213.959 124.134 C 213.952 130.597 214.277 137.128 213.954 143.58 C 205.063 135.824 189.215 116.854 180.977 112.825 C 174.159 113.169 167.148 115.095 160.472 116.505 L 128.099 123.443 L 83.999 132.916 C 74.634 134.855 65.081 136.431 55.808 138.754 C 53.254 139.393 49.682 139.999 47.84 141.976 C 40.583 149.766 34.423 159.192 27.981 167.68 C 19.073 179.413 9.151 191.094 1.582 203.719 C 1.449 203.941 1.303 204.155 1.173 204.378 C 0.379 205.732 0.298 207.187 0.247 208.718 C -0.078 218.323 0.241 228.053 0.26 237.672 L 0.372 296.195 C 0.39 334.027 -0.447 371.982 0.334 409.795 C 1.394 411.513 2.457 413.107 3.841 414.585 C 9.124 420.227 15.643 425.134 21.522 430.182 L 54.188 458.368 L 118.033 513.413 C 128.387 522.418 143.999 537.65 155.349 544.188 C 159.975 546.852 163.69 547.581 168.971 547.172 C 184.554 545.963 205.336 539.268 220.911 535.576 C 232.567 532.812 254.23 528.978 264.303 524.591 C 270.384 521.942 275.307 517.921 279.587 512.892 C 285.053 506.471 289.823 499.457 295.16 492.932 C 305.003 501.496 315.139 506.255 328.427 505.289 C 340.403 504.419 352.816 500.542 364.505 497.856 C 373.304 495.834 382.596 494.306 391.207 491.68 C 392.989 491.137 394.491 490.448 396.036 489.407 C 398.879 485.045 397.247 455.936 397.636 448.584 C 405.824 456.172 424.973 476.326 433.986 480.131 C 440.081 479.415 446.171 477.643 452.143 476.241 C 461.253 474.092 470.377 472 479.514 469.965 L 528.557 458.631 C 538.376 456.432 548.447 454.772 558.139 452.091 C 560.804 451.354 564.269 450.613 566.008 448.347 C 566.162 448.146 566.303 447.937 566.452 447.733 C 566.618 447.507 566.791 447.286 566.954 447.058 C 569.969 442.852 572.138 437.74 574.47 433.119 C 579.07 424.007 583.644 414.629 588.897 405.876 C 599.942 416.754 610.396 428.358 621.174 439.512 C 625.497 443.986 629.706 449.194 634.633 452.982 C 636.672 454.55 638.056 455.483 640.676 455.475 C 648.596 455.453 657.366 452.739 665.115 451.091 L 708.119 441.906 L 749.837 433.341 C 754.782 432.29 759.958 431.559 764.827 430.222 C 767.125 429.591 769.37 428.515 771.004 426.735 C 775.681 421.643 773.455 398.384 773.787 390.742 C 779.291 397.619 789.051 414.076 794.365 418.635 C 796.082 420.108 798.196 420.897 800.324 421.567 C 814.57 418.352 828.849 415.288 843.16 412.375 C 850.24 410.917 857.816 410.016 864.72 407.969 C 867.429 407.166 870.054 406.129 872.263 404.339 C 873.756 401.299 874.212 397.65 874.325 394.283 C 875.123 370.439 874.358 346.302 874.338 322.428 L 874.392 185.594 L 874.539 118.855 C 874.568 110.416 875.806 83.568 873.714 76.591 C 872.956 74.061 869.692 70.688 867.876 68.758 C 854.451 54.494 839.617 41.116 825.5 27.525 C 816.983 19.327 808.833 10.19 799.87 2.527 C 798.58 1.424 797.141 0.703 795.609 0 C 793.791 0.134 791.845 0.135 790.058 0.464 C 774.612 3.617 759.183 6.853 743.772 10.172 Z"/>
    <g transform="matrix(1, 0, 0, 1, -75.214379, -234.16901)" style="transform-origin: 75.2144px 234.169px;">
      <path d="M 595.559 289.857 C 598.199 294.304 600.1 299.718 602.188 304.466 L 614.843 333.178 L 656.267 426.644 L 668.12 453.309 C 671.802 461.605 676.325 470.245 678.005 479.204 C 679.475 487.045 678.448 497.996 678.456 506.175 L 678.518 564.711 C 660.62 568.617 642.66 572.212 624.638 575.496 C 621.464 564.188 615.976 540 615.976 540 L 551.95 553 C 551.95 553 544.257 573.3 541.016 583.75 C 524.923 585.153 507.186 590.265 491.217 593.691 C 491.217 585.441 489.922 568.357 491.571 561.226 C 493.02 554.96 496.659 548.651 499.129 542.673 C 504.44 529.824 509.764 516.832 514.563 503.785 C 540.865 432.212 567.864 360.902 595.559 289.857 Z M 564.276 499.879 L 615.997 489.658 C 615.997 489.658 595.299 432.254 592.231 428.387 C 582.819 452.296 564.276 499.879 564.276 499.879 Z" style=""/>
      <path d="M 134.566 391.251 C 172.959 382.002 212.272 376.011 250.497 366.125 C 261.133 376.847 271.976 387.427 282.318 398.43 L 282.42 446.997 C 271.054 454.207 259.392 460.94 247.885 467.921 C 236.522 474.814 225.296 482.001 213.68 488.463 C 213.532 465.874 213.92 443.256 213.533 420.673 C 196.828 424.088 162.961 431.252 162.961 431.252 L 159.15 616.095 L 191.525 609.592 C 198.796 608.157 206.481 607.21 213.608 605.243 L 213.56 566.312 C 225.185 559.309 236.857 552.384 248.576 545.538 L 258.347 539.826 C 266.399 535.117 274.383 530.296 282.299 525.362 L 282.478 603.497 C 273.401 617.139 263.048 629.991 254.399 643.919 C 248.813 644.538 243.21 646.007 237.71 647.154 L 210.635 652.716 C 193.238 656.207 175.861 659.801 158.505 663.496 C 149.527 665.383 140.346 666.96 131.465 669.242 C 122.822 661.366 114.041 653.648 105.12 646.088 C 101.303 642.807 97.589 639.262 93.627 636.172 L 93.937 444.639 C 101.367 433.994 109.396 423.708 117.159 413.302 C 122.589 406.022 127.996 397.507 134.566 391.251 Z" style=""/>
      <path d="M 482.735 321.104 C 483.323 320.985 483.842 321.024 484.439 321.043 C 484.734 321.467 484.86 321.578 484.989 322.152 C 485.593 324.832 484.897 332.976 484.897 336.298 L 484.921 384.246 L 484.597 595.266 C 473.029 597.519 461.482 599.877 449.957 602.341 C 440.015 604.483 430.038 606.98 419.972 608.427 C 419.388 572.584 420.046 490.749 420.046 490.749 L 370.002 501.083 L 369.86 620.158 C 352.096 623.489 334.396 627.134 316.761 631.092 L 308.023 632.948 L 307.919 358.623 C 328.259 353.559 349.056 349.658 369.566 345.31 C 370.054 358.403 369.662 371.648 369.714 384.755 C 369.986 409.087 369.726 457.752 369.726 457.752 L 417.623 446.644 L 421.407 334.402 L 482.735 321.104 Z" style=""/>
      <path d="M 860.801 254.08 L 862.01 254.069 C 863.116 256.293 862.284 498.83 862.136 525.702 C 854.901 528.235 847.15 529.946 839.748 531.975 C 827.246 535.404 814.737 538.99 802.095 541.87 C 782.181 492.368 746.836 464.781 746.836 464.781 C 746.836 464.781 746.908 524.024 746.703 551.007 C 732.528 554.046 718.319 556.921 704.077 559.633 L 686.545 563.311 C 686.283 542.512 686.029 521.462 686.639 500.674 C 687.056 486.487 688.301 472.303 688.457 458.11 C 689.069 402.2 688.447 346.207 688.164 290.291 L 748.192 277.581 C 753.723 287.537 758.391 298.06 763.595 308.201 C 782.173 344.402 802.846 358.675 802.846 358.675 L 804.949 266.145 C 811.108 264.49 817.576 263.422 823.829 262.104 C 836.18 259.553 848.504 256.878 860.801 254.08 Z" style=""/>
    </g>
  </g>
</svg>