<?xml version="1.0" encoding="UTF-8" standalone="no"?>
<svg
   x="0px"
   y="0px"
   viewBox="0 0 50 50"
   enable-background="new 0 0 50 50"
   xml:space="preserve"
   id="svg10"
   sodipodi:docname="corn.svg"
   width="50"
   height="50"
   inkscape:version="1.0.2 (e86c870879, 2021-01-15, custom)"><metadata
     id="metadata16"><rdf:RDF><cc:Work
         rdf:about=""><dc:format>image/svg+xml</dc:format><dc:type
           rdf:resource="http://purl.org/dc/dcmitype/StillImage" /><dc:title></dc:title></cc:Work></rdf:RDF></metadata><defs
     id="defs14" /><sodipodi:namedview
     pagecolor="#ffffff"
     bordercolor="#666666"
     borderopacity="1"
     objecttolerance="10"
     gridtolerance="10"
     guidetolerance="10"
     inkscape:pageopacity="0"
     inkscape:pageshadow="2"
     inkscape:window-width="1600"
     inkscape:window-height="837"
     id="namedview12"
     showgrid="false"
     inkscape:zoom="7.5801847"
     inkscape:cx="35.484516"
     inkscape:cy="40.12567"
     inkscape:window-x="-8"
     inkscape:window-y="-8"
     inkscape:window-maximized="1"
     inkscape:current-layer="svg10" /><g
     id="g4"><path
       d="m 31.77789,19.78989 -7.37,7.37 c 2.18,2.08 4.51,3.89 6.86,5.3 2.34,-2.22 4.58,-4.55 7.06,-7.51 -2.25001,-1.43999 -4.48,-3.18999 -6.55,-5.16 z M 8.53788,36.9599 c -8.49,1.89 -8.62,7.37 -6.14,9.84 0.11,0.12 0.2,0.25 0.25,0.4 1.18,1.28 2.4,1.76 3.62,1.76 2.57,0 5.15,-2.1 7.4,-3.29 7.76,-4.31 18.6,-7.64 27.21,-4.72 -8.82,-6.31 -21.71,-6.19 -32.34,-3.99 z m 0.5,-27.88 c 2.9,8.54 -0.52,20.01 -4.2,26.51 2.39,-0.77 6.91,-1.45 9.34,-1.75 0.75001,-8.36001 -0.13,-18.07001 -5.14,-24.76 z m 12.29,18.07999 c -2.05,-2.15 -3.86,-4.45 -5.31,-6.77 -0.03,0.04 -0.07,0.07 -0.1,0.11 0.59,3.49 0.85,6.81 0.59,11.48 z m 1.54001,1.54 -4.82,4.82 c 3.84,-0.21 7.68,-0.1 11.48,0.58 0.03,-0.03 0.07,-0.06 0.1,-0.09 -2.32001,-1.45999 -4.62001,-3.25999 -6.76,-5.31 z m 2.20999,-17 c -2.58,2.16 -5.13,4.55 -7.52,7.05 1.42,2.35 3.23,4.69 5.31,6.88 l 7.37,-7.38 c -1.96999,-2.06999 -3.71999,-4.28999 -5.16,-6.55 z m 10.09,-7.14 c -2.67,1.5 -5.48,3.43 -8.4,5.75 1.38,2.2 3.09,4.38 5.01,6.4 l 7.37,-7.36 c -1.48999,-1.56 -2.82,-3.16 -3.98,-4.79 z m 1.92,-1.04 c 1.06,1.45 2.26,2.89 3.6,4.29 l 6.44,-6.45 c -2.02,-0.82 -5.64,-0.05 -10.04,2.16 z m 11.58,-0.62 -6.44,6.45 c 1.39,1.32 2.82,2.52 4.28,3.58 2.24001,-4.44 3,-8.02 2.16,-10.03 z m -7.97999,7.98 -7.37,7.37 c 2.02,1.92 4.2,3.63 6.39,5 2.33,-2.92 4.25,-5.73 5.75,-8.39 -1.63001,-1.17 -3.23,-2.5 -4.77,-3.98 z"
       id="path2" /></g></svg>
