<?xml version="1.0" encoding="utf-8"?>
<svg viewBox="0 0 48 48" width="48px" height="48px" xmlns="http://www.w3.org/2000/svg">
  <path d="M 16.08 5 C 9.97 5 5 9.975 5 16.086 L 5 31.92 C 5 38.03 9.975 43 16.086 43 L 31.92 43 C 38.03 43 43 38.025 43 31.913 L 43 16.08 C 43 9.97 38.025 5 31.913 5 L 16.08 5 Z M 35.084 11.334 C 35.958 11.334 36.666 12.042 36.666 12.916 C 36.666 13.79 35.958 14.5 35.084 14.5 C 34.21 14.5 33.5 13.79 33.5 12.916 C 33.5 12.042 34.21 11.334 35.084 11.334 Z M 24 14.5 C 29.239 14.5 33.5 18.761 33.5 24 C 33.5 29.239 29.239 33.5 24 33.5 C 18.761 33.5 14.5 29.239 14.5 24 C 14.5 18.761 18.761 14.5 24 14.5 Z M 24 17.666 C 20.502 17.666 17.666 20.502 17.666 24 C 17.666 27.498 20.502 30.334 24 30.334 C 27.498 30.334 30.334 27.498 30.334 24 C 30.334 20.502 27.498 17.666 24 17.666 Z"/>
</svg>