<?xml version="1.0" encoding="utf-8"?>
<svg width="1024" height="1024" xmlns="http://www.w3.org/2000/svg">
  <path d="M163.553 486.174C167.24 485.092 171.279 484.66 175.07 484.001C201.223 506.189 224.762 524.586 258.986 533.084C264.973 534.571 271.761 536.317 277.909 536.61C279.033 539.923 280.231 543.115 280.589 546.615C268.198 544.95 256.116 542.933 244.182 539.073C214.158 529.364 185.031 509.055 163.553 486.174Z" style=""/>
  <path d="M175.07 484.001C179.193 483.145 183.001 481.746 186.893 480.168Q189.16 482.039 191.494 483.826Q193.827 485.613 196.225 487.314Q198.622 489.014 201.081 490.626Q203.539 492.237 206.054 493.758Q208.57 495.279 211.139 496.706Q213.708 498.134 216.328 499.467Q218.948 500.799 221.615 502.035Q224.282 503.271 226.992 504.409Q229.702 505.547 232.452 506.585Q235.202 507.622 237.988 508.559Q240.775 509.496 243.593 510.33Q246.412 511.164 249.259 511.894Q252.106 512.625 254.978 513.25Q257.85 513.876 260.743 514.397Q263.636 514.917 266.546 515.331Q269.456 515.745 272.379 516.053Q274.927 526.39 277.909 536.61C271.761 536.317 264.973 534.571 258.986 533.084C224.762 524.586 201.223 506.189 175.07 484.001Z" fill="#398F1C"/>
  <defs/>
  <path d="M816.958 464.008C848.144 469.526 890.125 479.246 909.424 506.796C924.17 527.846 927.828 557.616 928.3 582.836C928.409 588.62 927.966 594.373 927.959 600.145C927.7 600.221 927.441 600.307 927.173 600.342C924.182 600.729 920.594 598.179 918.43 596.364L916.034 594.333C914.177 593.401 912.24 592.604 910.339 591.765C910.045 586.333 910.298 580.862 910.098 575.421Q909.792 564.878 908.633 554.395Q907.475 543.912 905.471 533.557C903.792 525.297 900.135 517.595 898.477 509.483C898.45 509.35 898.426 509.217 898.401 509.083C898.284 508.886 898.185 508.677 898.052 508.491C895.152 504.419 890.271 501.017 886.135 498.332C866.253 485.426 843.24 479.362 820.233 474.956C815.425 473.733 810.356 473.285 805.44 472.659L808.551 472.229C807.467 472.106 806.738 472.129 805.914 471.358C806.012 469.771 806.978 468.762 808.067 467.691C810.003 465.787 811.211 465.536 813.887 465.623C815.013 465.659 816.024 464.637 816.958 464.008Z" style=""/>
  <path fill="#398F1C" d="M903.235 516.836C915.049 530.075 919.981 576.251 918.956 594.601C918.917 595.302 918.77 595.756 918.43 596.364L916.034 594.333C918.563 585.612 912.716 546.414 910.011 536.306C908.273 529.812 905.396 523.775 903.402 517.382L903.235 516.836Z"/>
  <path fill="#FEFEFE" d="M898.401 509.083C900.337 511.526 901.762 514.103 903.235 516.836L903.402 517.382C905.396 523.775 908.273 529.812 910.011 536.306C912.716 546.414 918.563 585.612 916.034 594.333C914.177 593.401 912.24 592.604 910.339 591.765C910.045 586.333 910.298 580.862 910.098 575.421Q909.792 564.878 908.633 554.395Q907.475 543.912 905.471 533.557C903.792 525.297 900.135 517.595 898.477 509.483C898.45 509.35 898.426 509.217 898.401 509.083Z"/>
  <path fill="#56B22F" d="M217.229 455.618C233.618 468.563 248.146 477.591 267.982 484.876C269.356 488.355 268.482 493.456 268.92 497.236L269.044 498.615C269.955 504.433 270.808 510.373 272.379 516.053Q269.456 515.745 266.546 515.331Q263.636 514.917 260.743 514.397Q257.85 513.876 254.978 513.25Q252.106 512.625 249.259 511.894Q246.412 511.164 243.593 510.33Q240.775 509.496 237.988 508.559Q235.202 507.622 232.452 506.585Q229.702 505.547 226.992 504.409Q224.282 503.271 221.615 502.035Q218.948 500.799 216.328 499.467Q213.708 498.134 211.139 496.706Q208.57 495.279 206.054 493.758Q203.539 492.237 201.081 490.626Q198.622 489.014 196.225 487.314Q193.827 485.613 191.494 483.826Q189.16 482.039 186.893 480.168C192.985 477.073 198.447 473.5 203.922 469.446Q206.498 466.78 209.006 464.051C211.446 461.029 214.448 458.32 217.229 455.618Z"/>
  <path fill="#C9D7BC" d="M203.922 469.446Q206.498 466.78 209.006 464.051C228.16 478.722 245.876 489.613 268.92 497.236L269.044 498.615C245.115 497.62 222.714 482.951 203.922 469.446Z"/>
  <path d="M217.229 455.618C233.618 468.563 248.146 477.591 267.982 484.876C269.356 488.355 268.482 493.456 268.92 497.236C245.876 489.613 228.16 478.722 209.006 464.051C211.446 461.029 214.448 458.32 217.229 455.618Z" style=""/>
  <path fill="#0B76DC" d="M877.04 585.703C881.269 585.327 885.453 585.65 889.674 586.011C896.981 587.204 903.286 590.118 910.339 591.765C912.24 592.604 914.177 593.401 916.034 594.333L918.43 596.364C920.594 598.179 924.182 600.729 927.173 600.342C927.441 600.307 927.7 600.221 927.959 600.145L928.041 600.363C935.077 603.046 941.278 611.187 944.285 617.858C948.379 626.938 948.424 637.059 944.784 646.291C943.545 649.433 941.929 652.261 939.926 654.984C937.631 653.407 936.263 651.368 935.085 648.878C933.474 645.238 930.547 641.645 927.849 638.737C915.123 625.022 894.85 617.12 876.347 616.413C866.544 616.948 856.802 616.077 847.12 618.372C844.86 618.725 842.605 619.119 840.324 619.312C840.535 611.454 842.256 603.855 847.286 597.59C851.971 591.754 858.943 587.636 866.429 586.917C869.629 587.009 874.056 586.859 877.04 585.703Z"/>
  <path fill="#074EBE" d="M847.12 618.372C848.392 612.48 849.903 607.138 853.983 602.493C859.11 596.658 868.337 591.814 876.135 591.394C875.953 591.539 875.774 591.689 875.587 591.828C874.052 592.975 871.992 592.912 870.429 593.838L871.056 594.461L870.96 594.337C889.164 598.662 899.685 603.99 914.507 615.372C903.642 610.431 890.327 604.513 878.256 609.241C874.773 610.605 873.242 612.22 871.042 615.164C870.899 615.356 870.75 615.542 870.603 615.731C872.074 615.731 875.254 615.33 876.347 616.413C866.544 616.948 856.802 616.077 847.12 618.372Z"/>
  <path d="M877.04 585.703C881.269 585.327 885.453 585.65 889.674 586.011C896.981 587.204 903.286 590.118 910.339 591.765C912.24 592.604 914.177 593.401 916.034 594.333L918.43 596.364C920.594 598.179 924.182 600.729 927.173 600.342C927.441 600.307 927.7 600.221 927.959 600.145L928.041 600.363C935.077 603.046 941.278 611.187 944.285 617.858C948.379 626.938 948.424 637.059 944.784 646.291C943.545 649.433 941.929 652.261 939.926 654.984C937.631 653.407 936.263 651.368 935.085 648.878C937.957 644.4 939.414 639.543 939.455 634.213C939.546 622.387 932.208 613.79 924.316 605.933Q922.447 604.18 920.367 602.684C908.268 593.805 891.035 589.076 876.135 591.394C868.337 591.814 859.11 596.658 853.983 602.493C849.903 607.138 848.392 612.48 847.12 618.372C844.86 618.725 842.605 619.119 840.324 619.312C840.535 611.454 842.256 603.855 847.286 597.59C851.971 591.754 858.943 587.636 866.429 586.917C869.629 587.009 874.056 586.859 877.04 585.703Z" style=""/>
  <path fill="#56B22F" d="M742.243 509.695Q742.359 507.096 742.573 504.503C743.349 495.289 746.953 485.998 754.286 480.042C766.5 470.122 790.559 471.172 805.44 472.659C810.356 473.285 815.425 473.733 820.233 474.956C843.24 479.362 866.253 485.426 886.135 498.332C890.271 501.017 895.152 504.419 898.052 508.491C898.185 508.677 898.284 508.886 898.401 509.083C898.426 509.217 898.45 509.35 898.477 509.483C900.135 517.595 903.792 525.297 905.471 533.557Q907.475 543.912 908.633 554.395Q909.792 564.878 910.098 575.421C910.298 580.862 910.045 586.333 910.339 591.765C903.286 590.118 896.981 587.204 889.674 586.011C885.453 585.65 881.269 585.327 877.04 585.703C874.056 586.859 869.629 587.009 866.429 586.917C867.223 569.387 866.95 552.33 862.495 535.232C845.579 528.437 827.979 524.171 810.056 521.002C806.204 519.996 802.14 519.563 798.201 518.971L797.646 519.221C794.535 519.161 790.845 518.969 787.951 517.788C778.236 516.129 766.571 516.312 756.739 516.838C752.917 517.042 749.106 517.821 745.282 517.719C743.019 515.515 742.747 512.667 742.243 509.695Z"/>
  <path fill="#267718" d="M742.243 509.695Q742.359 507.096 742.573 504.503C743.349 495.289 746.953 485.998 754.286 480.042C766.5 470.122 790.559 471.172 805.44 472.659C810.356 473.285 815.425 473.733 820.233 474.956C819.078 474.934 818.047 474.968 816.903 475.116C812.622 475.667 807.826 475.009 803.491 474.945C791.862 474.772 773.091 475.48 765.136 485.287C763.04 487.871 760.647 491.681 760.774 495.093L761.288 496.013C765.19 496.658 769.224 496.456 773.17 496.554C779.226 496.705 785.344 496.999 791.373 497.596C812.245 499.666 865.653 509.797 877.898 526.979C887.155 539.969 891.841 570.564 889.674 586.011C885.453 585.65 881.269 585.327 877.04 585.703C874.056 586.859 869.629 587.009 866.429 586.917C867.223 569.387 866.95 552.33 862.495 535.232C845.579 528.437 827.979 524.171 810.056 521.002C806.204 519.996 802.14 519.563 798.201 518.971L797.646 519.221C794.535 519.161 790.845 518.969 787.951 517.788C778.236 516.129 766.571 516.312 756.739 516.838C752.917 517.042 749.106 517.821 745.282 517.719C743.019 515.515 742.747 512.667 742.243 509.695Z"/>
  <path d="M742.243 509.695C761.06 507.699 780.768 506.11 799.526 509.547C799.242 509.63 798.96 509.722 798.673 509.797C795.814 510.541 792.873 508.71 789.965 509.509C788.602 511.938 790.708 514.595 788.578 517.298C791.466 517.481 795.939 517.09 798.201 518.971L797.646 519.221C794.535 519.161 790.845 518.969 787.951 517.788C778.236 516.129 766.571 516.312 756.739 516.838C752.917 517.042 749.106 517.821 745.282 517.719C743.019 515.515 742.747 512.667 742.243 509.695Z" style=""/>
  <path d="M798.201 518.971C795.939 517.09 791.466 517.481 788.578 517.298C790.708 514.595 788.602 511.938 789.965 509.509C792.873 508.71 795.814 510.541 798.673 509.797C798.96 509.722 799.242 509.63 799.526 509.547C815.579 509.506 855.387 520.201 869.604 528.043C879.343 544.41 875.876 567.539 877.04 585.703C874.056 586.859 869.629 587.009 866.429 586.917C867.223 569.387 866.95 552.33 862.495 535.232C845.579 528.437 827.979 524.171 810.056 521.002C806.204 519.996 802.14 519.563 798.201 518.971Z" style=""/>
  <path d="M847.12 618.372C856.802 616.077 866.544 616.948 876.347 616.413C894.85 617.12 915.123 625.022 927.849 638.737C930.547 641.645 933.474 645.238 935.085 648.878C936.263 651.368 937.631 653.407 939.926 654.984C943.727 659.825 944.806 667.76 945.703 673.67C949.642 699.604 943.622 729.668 927.816 750.894C919.909 761.512 909.085 770.672 895.613 772.607C885.156 774.11 877.645 770.567 869.513 764.449C863.319 764.599 857.192 764.61 851.073 763.502C840.373 761.565 831.148 757.137 824.876 748.009C821.325 747.758 817.933 747.481 814.557 746.23C806.694 743.315 801.012 736.716 797.603 729.233C793.193 719.551 793.271 710.24 796.998 700.388C792.533 694.785 789.649 688.614 788.279 681.563C785.915 669.399 787.396 654.643 794.543 644.225C803.002 631.894 826.026 622.003 840.324 619.312C842.605 619.119 844.86 618.725 847.12 618.372Z" style=""/>
  <path fill="#56B22F" d="M885.17 751.04C885.822 751.623 899.932 758.235 901.94 759.092C898.704 760.837 895.517 762.602 891.891 763.406C886.163 764.676 881.59 763.066 876.876 759.925C876.916 759.891 876.954 759.855 876.994 759.822C880.155 757.26 882.597 754.165 885.17 751.04Z"/>
  <defs/>
  <path d="M 801.788 691.649 C 800.798 688.566 799.968 685.441 799.298 682.273 C 797.142 671.951 798.389 658.427 804.628 649.607 C 811.925 639.293 850.336 624.256 862.597 622.16 C 882.089 618.828 900.775 622.771 916.963 634.147 C 911.796 634.162 906.131 630.645 901.08 629.355 C 888.519 626.147 872.899 626.505 860.466 630.106 C 856.971 631.118 853.685 633.336 850.234 634.179 C 842.485 637.325 837.832 643.941 831.936 649.493 C 832.218 654.889 834.082 661.058 831.795 666.147 L 831.808 665.21 C 831.821 664.477 831.883 663.906 832.012 663.177 C 832.535 660.218 832.069 651.985 830.326 649.41 C 825.374 653.109 822.21 671.123 819.823 672.9 C 822.049 663.445 825.667 654.838 830.254 646.335 C 817.053 660.024 808.782 674.083 801.788 691.649 Z M 850.234 634.179 C 853.685 633.336 856.971 631.118 860.466 630.106 C 872.899 626.505 888.519 626.147 901.08 629.355 C 906.131 630.645 911.796 634.162 916.963 634.147 C 927.24 640.392 928.666 649.544 931.9 660.372 C 929.704 664.334 934.355 676.996 932.613 683.215 L 932.584 683.703 C 932.382 687.783 933.021 691.838 932.819 695.916 C 932.003 712.355 926.021 726.85 914.824 738.929 C 916.199 736.187 917.655 733.491 918.62 730.571 C 912.606 731.927 907.179 732.206 901.124 730.9 C 890.091 728.523 863.816 715.57 855.253 708.553 C 850.382 704.562 846.404 699.755 843.019 694.461 C 840.374 690.325 837.717 685.568 837.206 680.607 C 836.091 669.767 847.552 646.321 850.234 634.179 Z M 831.936 649.493 C 837.832 643.941 842.485 637.325 850.234 634.179 C 847.552 646.321 836.091 669.767 837.206 680.607 C 837.717 685.568 840.374 690.325 843.019 694.461 C 846.404 699.755 850.382 704.562 855.253 708.553 C 863.816 715.57 890.091 728.523 901.124 730.9 C 907.179 732.206 912.606 731.927 918.62 730.571 C 917.655 733.491 916.199 736.187 914.824 738.929 C 926.021 726.85 932.003 712.355 932.819 695.916 C 933.021 691.838 932.382 687.783 932.584 683.703 L 932.613 683.215 C 934.355 676.996 929.704 664.334 931.9 660.372 C 933.116 665.9 934.525 671.563 935.152 677.19 C 937.422 697.589 934.157 720.374 923.057 737.901 C 917.882 746.073 910.707 754.628 901.94 759.092 C 899.932 758.235 885.822 751.623 885.17 751.04 C 885.802 750.128 886.302 749.308 886.728 748.282 L 885.98 747.529 C 885.898 747.516 885.814 747.511 885.734 747.49 C 885.167 747.336 884.576 747.151 884.015 746.969 C 874.283 743.811 863.479 748.53 853.815 740.972 C 853.047 739.297 853.395 738.902 853.968 737.152 L 854.204 736.443 C 852.682 733.952 842.341 732.959 839.058 731.755 C 832.589 729.384 827.74 725.033 824.896 718.749 C 819.979 707.886 821.433 692.055 825.444 681.138 C 827.248 676.225 829.814 671.614 831.603 666.687 L 831.795 666.147 C 834.082 661.058 832.218 654.889 831.936 649.493 Z" style="fill: rgb(146, 210, 8);"/>
  <path fill="#56B22F" d="M819.823 672.9C822.21 671.123 825.374 653.109 830.326 649.41C832.069 651.985 832.535 660.218 832.012 663.177C831.883 663.906 831.821 664.477 831.808 665.21L831.795 666.147L831.603 666.687C829.814 671.614 827.248 676.225 825.444 681.138C821.433 692.055 819.979 707.886 824.896 718.749C827.74 725.033 832.589 729.384 839.058 731.755C842.341 732.959 852.682 733.952 854.204 736.443L853.968 737.152C853.395 738.902 853.047 739.297 853.815 740.972C863.479 748.53 874.283 743.811 884.015 746.969C884.576 747.151 885.167 747.336 885.734 747.49C885.814 747.511 885.898 747.516 885.98 747.529C881.085 752.088 875.45 754.589 868.902 755.683C854.417 758.104 846.309 753.644 834.949 745.542C838.991 742.128 842.969 738.46 847.448 735.627C839.107 737.9 828.457 742.069 819.881 738.982C814.004 736.867 810.234 731.931 807.609 726.497C805.905 722.971 803.591 718.489 803.743 714.495C804.036 706.849 811.172 695.622 814.19 688.42C816.314 683.353 818.033 678.091 819.823 672.9Z"/>
  <defs/>
  <path fill="#FEFEFE" d="M918.62 730.571C924.457 713.832 927.356 694.714 928.362 677.057C928.723 670.718 928.267 664.332 928.801 658.017L928.858 657.409C931.203 665.805 931.762 674.57 932.613 683.215L932.584 683.703C932.382 687.783 933.021 691.838 932.819 695.916C932.003 712.355 926.021 726.85 914.824 738.929C916.199 736.187 917.655 733.491 918.62 730.571Z"/>
  <path d="M119.849 460.924C119.41 460.283 119.629 460.427 118.998 460.101C114.982 458.022 110.744 455.983 107.016 453.41C85.956 438.873 69.9977 413.371 65.588 388.302Q65.2845 386.645 65.0653 384.974Q64.8461 383.304 64.7118 381.625Q64.5775 379.945 64.5285 378.261Q64.4795 376.577 64.5158 374.893Q64.5522 373.208 64.6738 371.528Q64.7954 369.848 65.0021 368.176Q65.2087 366.504 65.4997 364.844Q65.7908 363.185 66.1655 361.542Q66.5403 359.9 66.9977 358.278Q67.4552 356.657 67.9943 355.061Q68.5333 353.464 69.1525 351.898Q69.7717 350.331 70.4695 348.797Q71.1673 347.264 71.9419 345.768Q72.7165 344.272 73.5659 342.817Q74.4152 341.362 75.3372 339.952Q76.2592 338.542 77.2515 337.18C94.8759 312.498 132.135 289.691 161.793 284.755C173.294 282.84 181.7 285.828 191.006 292.51C206.641 303.735 221.79 323.5 224.929 342.851C228.563 343.436 231.988 344.176 235.135 346.191C239.233 348.814 241.977 352.921 242.937 357.685C245.864 372.212 232.415 404.483 224.209 417.171C228.095 423.961 228.644 430.675 226.646 438.208C224.949 444.61 221.793 450.786 217.229 455.618C214.448 458.32 211.446 461.029 209.006 464.051Q206.498 466.78 203.922 469.446C198.447 473.5 192.985 477.073 186.893 480.168C183.001 481.746 179.193 483.145 175.07 484.001C171.279 484.66 167.24 485.092 163.553 486.174C161.579 484.931 156.16 485.615 153.566 485.353Q150.048 485.019 146.618 484.169Q143.188 483.318 139.921 481.97C130.084 477.893 123.91 470.622 119.849 460.924Z" style=""/>
  <path fill="#398F1C" d="M211.005 335.47C212.054 338.2 212.933 340.902 213.702 343.725C206.232 345.669 199.158 347.952 192 350.882C190.799 346.371 188.86 343.249 186.085 339.556C188.521 341.244 190.699 343.243 193.827 343.101L194.352 342.62C195.51 343.231 196.688 343.572 198.003 343.605C203.341 343.74 207.533 338.885 211.005 335.47Z"/>
  <path fill="#0B76DC" d="M220.624 421.809C223.057 428.248 221.965 434.915 219.232 441.068C216.665 446.847 212.92 451.292 208.346 455.579C203.93 457.566 199.838 459.822 195.213 461.365C188.596 463.573 165.22 468.662 159.081 466.64C158.546 466.464 158.357 466.279 157.948 465.969Q160.853 465.469 163.735 464.853C188.199 459.39 207.454 442.474 220.624 421.809Z"/>
  <path fill="#398F1C" d="M121.398 345.37C123.881 344.997 126.188 345.536 128.618 346.036C134.681 347.285 140.554 349.764 145.941 352.779C151.969 356.153 159.656 363.892 166.775 363.73C172.429 363.602 175.87 360.029 180.905 358.598C177.54 364.452 172.97 368.5 172.524 375.772C172.129 382.224 175.294 387.056 179.357 391.659C174.503 395.548 169.024 398.091 163.23 400.243C163.819 392.466 163.751 384.561 160.808 377.213C153.94 360.059 137.312 352.274 121.398 345.37Z"/>
  <defs>
    <linearGradient id="gradient_3" gradientUnits="userSpaceOnUse" x1="119.91697" y1="312.61218" x2="160.16447" y2="409.28442">
      <stop offset="0" stop-color="#D6F0AA"/>
      <stop offset="1" stop-color="#FFF6FF"/>
    </linearGradient>
  </defs>
  <path fill="url(#gradient_3)" d="M146.849 302.179C155.916 298.367 167.739 294.727 177.297 298.614C185.208 301.831 191.521 308.354 197.28 314.458L196.683 314.68C193.893 314.169 186.032 307.46 182.678 305.561C169.214 297.936 162.247 303.642 149.392 307.075L148.549 307.295C123.761 317.757 96.071 332.872 85.4563 359.191Q84.8778 360.652 84.3718 362.139Q83.8658 363.627 83.4336 365.137Q83.0014 366.648 82.6439 368.178Q82.2865 369.708 82.0047 371.253Q81.723 372.799 81.5176 374.357Q81.3122 375.914 81.1836 377.48Q81.0551 379.046 81.0036 380.616Q80.9522 382.187 80.9781 383.757Q81.004 385.328 81.1071 386.896Q81.2102 388.464 81.3903 390.025Q81.5703 391.585 81.827 393.136Q82.0836 394.686 82.4161 396.221Q82.7486 397.757 83.1562 399.274Q83.5639 400.791 84.0456 402.287Q84.5274 403.782 85.0821 405.252Q85.6368 406.722 86.2631 408.163C87.688 411.509 89.1689 414.974 91.0597 418.085C92.9534 421.2 102.022 431.624 102.195 434.256C91.0045 424.59 82.4059 408.216 78.9151 394.004C75.2272 378.99 75.6938 359.769 84.0718 346.277C94.7502 329.08 126.731 306.903 146.849 302.179Z"/>
  <path fill="#398F1C" d="M152.337 372.672C156.414 381.563 158.665 396.694 155.437 406.116C154.071 410.101 150.457 412.303 146.803 413.973C140.815 416.709 132.182 419.09 125.762 416.842C120.369 414.954 116.989 408.19 114.603 403.35C119.554 402.511 123.855 400.693 127.314 396.941L127.59 395.869L126.936 395.342L124.57 395.675C124.698 395.587 124.819 395.488 124.955 395.411C128.136 393.603 129.406 390.982 131.736 388.247C140.073 385.823 147.586 379.898 152.337 372.672Z"/>
  <path d="M224.209 417.171C228.095 423.961 228.644 430.675 226.646 438.208C224.949 444.61 221.793 450.786 217.229 455.618C214.448 458.32 211.446 461.029 209.006 464.051Q206.498 466.78 203.922 469.446C198.447 473.5 192.985 477.073 186.893 480.168C183.001 481.746 179.193 483.145 175.07 484.001C171.279 484.66 167.24 485.092 163.553 486.174C161.579 484.931 156.16 485.615 153.566 485.353Q150.048 485.019 146.618 484.169Q143.188 483.318 139.921 481.97C130.084 477.893 123.91 470.622 119.849 460.924L122.932 461.732C131.455 464.55 139.679 466.377 148.7 466.362C151.779 466.357 154.895 465.928 157.948 465.969C158.357 466.279 158.546 466.464 159.081 466.64C165.22 468.662 188.596 463.573 195.213 461.365C199.838 459.822 203.93 457.566 208.346 455.579C212.92 451.292 216.665 446.847 219.232 441.068C221.965 434.915 223.057 428.248 220.624 421.809C221.477 419.828 222.57 418.553 224.209 417.171Z" style=""/>
  <path fill="#074EBE" d="M157.948 465.969C158.357 466.279 158.546 466.464 159.081 466.64C165.22 468.662 188.596 463.573 195.213 461.365C199.838 459.822 203.93 457.566 208.346 455.579C202.125 466.23 185.861 474.721 174.299 477.731C161.543 481.053 147.588 480.054 136.17 473.168C131.115 470.119 127.018 465.937 122.932 461.732C131.455 464.55 139.679 466.377 148.7 466.362C151.779 466.357 154.895 465.928 157.948 465.969Z"/>
  <path fill="#398F1C" d="M183.083 367.68C186.579 362.154 193.177 358.737 199.088 356.356C207.629 352.916 223.386 348.467 232.153 352.534C233.974 353.379 235.61 354.601 236.251 356.582C237.067 359.105 236.842 361.593 235.741 363.961C232.607 382.245 222.227 408.517 211.397 423.684Q209.178 426.767 206.719 429.662Q204.26 432.558 201.577 435.247Q198.895 437.937 196.006 440.403Q193.117 442.87 190.04 445.097C176.379 454.808 158.534 460.522 141.784 457.626C127.988 455.241 110.546 446.123 102.341 434.536C103.392 434.146 103.78 433.903 104.904 434.211C108.081 435.083 111.488 437.291 114.519 438.683C122.112 442.171 130.154 444.599 138.493 445.377C151.989 446.636 165.6 444.454 176.309 435.65C164.643 433.8 152.413 432.255 141.685 427.098C150.675 423.29 155.84 420.344 161.575 412.049C171.555 408.928 177.884 405.419 184.184 396.799C188.697 398.88 193.287 400.078 198.293 399.329C203.742 398.513 207.793 395.671 210.989 391.287C203.851 393.537 196.78 394.025 189.843 390.629C185.652 388.577 181.818 385.113 180.482 380.52C179.156 375.962 180.784 371.608 183.083 367.68Z"/>
  <path fill="#AEE339" d="M183.083 367.68C186.579 362.154 193.177 358.737 199.088 356.356C207.629 352.916 223.386 348.467 232.153 352.534C233.974 353.379 235.61 354.601 236.251 356.582C237.067 359.105 236.842 361.593 235.741 363.961C225.907 370.822 206.087 386.543 193.666 383.986C190.495 383.334 187.888 381.539 186.133 378.82C183.943 375.426 183.448 371.603 183.083 367.68Z"/>
  <defs>
    <linearGradient id="gradient_4" gradientUnits="userSpaceOnUse" x1="125.23871" y1="317.96185" x2="176.40277" y2="436.05994">
      <stop offset="0" stop-color="#9CDE0E"/>
      <stop offset="1" stop-color="#70C318"/>
    </linearGradient>
  </defs>
  <path fill="url(#gradient_4)" d="M148.549 307.295L149.392 307.075C162.247 303.642 169.214 297.936 182.678 305.561C186.032 307.46 193.893 314.169 196.683 314.68L197.28 314.458C203.534 320.088 207.844 327.778 211.005 335.47C207.533 338.885 203.341 343.74 198.003 343.605C196.688 343.572 195.51 343.231 194.352 342.62L193.827 343.101C190.699 343.243 188.521 341.244 186.085 339.556C183.365 337.992 180.356 333.885 177.874 331.736C170.522 325.372 162.237 321.193 153.384 317.398C149.426 316.53 145.469 315.586 141.481 314.87C155.825 321.337 167.314 326.791 178.678 338.201C181.581 341.115 184.972 344.806 186.407 348.72C186.927 350.137 187.221 351.652 187.52 353.128C184.996 354.629 183.013 356.58 180.905 358.598C175.87 360.029 172.429 363.602 166.775 363.73C159.656 363.892 151.969 356.153 145.941 352.779C140.554 349.764 134.681 347.285 128.618 346.036C126.188 345.536 123.881 344.997 121.398 345.37C116.239 343.582 112.038 343.259 106.602 343.22L106.368 343.443C109.79 344.464 113.5 344.903 116.805 346.198C127.702 350.471 146.571 361.66 152.075 372.116C152.17 372.297 152.25 372.487 152.337 372.672C147.586 379.898 140.073 385.823 131.736 388.247C129.406 390.982 128.136 393.603 124.955 395.411C124.819 395.488 124.698 395.587 124.57 395.675C116.115 399.214 106.412 398.391 97.8188 395.993C100.188 399.032 102.537 401.466 105.717 403.699C107.421 409.221 109.72 413.657 112.817 418.528C118.82 424.535 125.529 428.05 134.188 428.007Q137.985 427.954 141.685 427.098C152.413 432.255 164.643 433.8 176.309 435.65C165.6 444.454 151.989 446.636 138.493 445.377C130.154 444.599 122.112 442.171 114.519 438.683C111.488 437.291 108.081 435.083 104.904 434.211C103.78 433.903 103.392 434.146 102.341 434.536L102.195 434.256C102.022 431.624 92.9534 421.2 91.0597 418.085C89.1689 414.974 87.688 411.509 86.2631 408.163Q85.6368 406.722 85.0821 405.252Q84.5274 403.782 84.0456 402.287Q83.5639 400.791 83.1562 399.274Q82.7486 397.757 82.4161 396.221Q82.0836 394.686 81.827 393.135Q81.5703 391.585 81.3903 390.025Q81.2102 388.464 81.1071 386.896Q81.004 385.328 80.9781 383.757Q80.9522 382.187 81.0036 380.616Q81.0551 379.046 81.1836 377.48Q81.3122 375.914 81.5176 374.357Q81.723 372.799 82.0047 371.253Q82.2865 369.708 82.6439 368.178Q83.0014 366.648 83.4336 365.137Q83.8658 363.627 84.3718 362.139Q84.8778 360.652 85.4563 359.191C96.071 332.872 123.761 317.757 148.549 307.295Z"/>
  <path fill="#56B22F" d="M153.384 317.398C160.996 316.382 172.574 324.047 178.381 328.501C184.041 332.843 188.79 338.21 194.352 342.62L193.827 343.101C190.699 343.243 188.521 341.244 186.085 339.556C183.365 337.992 180.356 333.885 177.874 331.736C170.522 325.372 162.237 321.193 153.384 317.398Z"/>
  <path fill="#56B22F" d="M91.2641 387.849C105.076 388.692 117.845 389.859 131.736 388.247C129.406 390.982 128.136 393.603 124.955 395.411C124.819 395.488 124.698 395.587 124.57 395.675C116.115 399.214 106.412 398.391 97.8188 395.993C100.188 399.032 102.537 401.466 105.717 403.699C107.421 409.221 109.72 413.657 112.817 418.528C112.28 418.359 112.062 418.31 111.583 418.097C102.589 414.085 94.9143 396.387 91.2641 387.849Z"/>
  <path fill="#267718" d="M534.048 175.901C538.776 165.329 543.61 154.68 549.271 144.572C568.641 109.986 596.535 76.5336 630.942 56.0876C660.982 38.2367 694.961 29.3971 729.603 38.388C751.58 44.0918 770.558 55.9192 785.053 73.4247C806.13 98.8791 814.487 129.886 814.377 162.521C814.306 183.627 811.839 206.163 823.185 225.171Q823.729 226.09 824.317 226.98Q824.906 227.871 825.539 228.731Q826.172 229.591 826.847 230.418Q827.522 231.245 828.238 232.038Q828.954 232.83 829.708 233.585Q830.463 234.341 831.254 235.057Q832.045 235.774 832.872 236.45Q833.698 237.126 834.557 237.76Q835.416 238.394 836.306 238.984Q837.196 239.574 838.114 240.119Q839.032 240.664 839.977 241.162Q840.921 241.66 841.889 242.11Q842.858 242.56 843.847 242.961Q844.836 243.362 845.845 243.713Q846.853 244.064 847.878 244.364Q848.903 244.664 849.941 244.912C863.933 248.29 876.558 244.196 888.501 236.905C883.476 246.403 877.013 253.594 867.861 259.335C854.649 267.623 837.568 271.802 822.04 270.046C813.588 269.09 805.275 266.512 797.582 262.916C763.508 246.988 751.533 210.713 726.527 185.377C711.028 169.674 690.975 157.74 669.385 152.8C657.022 149.971 640.163 149.14 628.311 154.512C624.259 156.348 620.321 159.326 616.534 161.682C608.38 168.176 599.946 175.131 593.559 183.415C591.015 186.222 586.744 190.811 585.38 194.243C582.823 196.485 581.183 200.948 579.787 204.01C578.349 203.846 578.06 203.693 576.891 204.71C574.469 206.818 573.019 210.295 570.874 212.709C565.373 218.9 553.912 221.968 545.951 222.352C541.255 222.579 535.942 221.974 532.134 219.008L530.952 218.571L529.579 218.261C528.757 216.799 529.363 215.676 529.682 214.065L529.279 213.872C528.542 214.7 528.637 215.424 528.488 216.494C526.319 216.405 524.498 215.9 522.598 214.828C521.816 214.387 521.75 213.214 521.508 212.373Q522.969 206.136 524.75 199.982C525.775 195.227 527.885 190.52 529.673 185.999C531.433 182.925 532.6 179.174 534.048 175.901Z"/>
  <path fill="#2AEC42" d="M709.388 91.6164C718.444 91.4076 727.403 92.0868 736.401 92.0295C737.501 92.1117 738.823 92.0136 739.775 92.5821C732.355 93.5519 724.776 92.3716 717.392 93.4558C719.132 93.5553 721.176 93.3855 722.713 94.2277C711.506 96.3442 700.245 97.6416 689.156 100.409C656.55 108.547 624.901 122.687 599.566 145.091C594.966 149.158 589.952 153.562 586.233 158.434C581.903 162.989 577.137 167.209 572.99 171.918C568.027 177.553 563.709 183.756 558.679 189.328C557.928 190.16 557.167 191.407 556.045 191.519L555.793 191.342L555.411 190.692C555.736 184.588 565.301 168.752 568.966 163.233C587.046 136.011 609.872 120.865 639.592 108.508C651.73 103.462 664.134 99.2018 677.008 96.4435C683.915 94.9637 690.946 93.9416 697.952 93.0689C701.484 92.629 705.229 92.5079 708.692 91.7702L709.388 91.6164Z"/>
  <path fill="#033918" d="M709.388 91.6164C718.444 91.4076 727.403 92.0868 736.401 92.0295C737.501 92.1117 738.823 92.0136 739.775 92.5821C732.355 93.5519 724.776 92.3716 717.392 93.4558Q715.155 93.4864 712.92 93.5719Q710.684 93.6574 708.452 93.7977Q706.219 93.938 703.99 94.1331Q701.762 94.3281 699.539 94.5778Q697.315 94.8275 695.099 95.1316Q692.883 95.4357 690.675 95.7941Q688.466 96.1525 686.268 96.565Q684.069 96.9774 681.881 97.4437Q679.693 97.91 677.517 98.4298Q675.341 98.9496 673.179 99.5227Q671.016 100.096 668.868 100.722Q666.721 101.348 664.589 102.026Q662.457 102.704 660.343 103.435Q658.228 104.165 656.132 104.948Q654.036 105.73 651.96 106.563Q649.884 107.396 647.829 108.281Q645.774 109.165 643.742 110.099Q641.709 111.033 639.7 112.017Q637.69 113 635.706 114.033Q633.721 115.066 631.763 116.147Q629.804 117.228 627.873 118.357Q625.942 119.486 624.039 120.662Q622.135 121.838 620.262 123.06Q618.388 124.282 616.545 125.55Q614.702 126.818 612.89 128.13Q611.079 129.443 609.3 130.8Q607.521 132.157 605.776 133.557Q604.031 134.956 602.321 136.399Q600.611 137.841 598.937 139.325Q597.263 140.809 595.626 142.333Q593.988 143.858 592.389 145.422Q590.79 146.986 589.229 148.589C576.688 161.662 566.188 176.556 555.793 191.342L555.411 190.692C555.736 184.588 565.301 168.752 568.966 163.233C587.046 136.011 609.872 120.865 639.592 108.508C651.73 103.462 664.134 99.2018 677.008 96.4435C683.915 94.9637 690.946 93.9416 697.952 93.0689C701.484 92.629 705.229 92.5079 708.692 91.7702L709.388 91.6164Z"/>
  <path fill="#033918" d="M532.134 219.008C541.38 218.558 553.988 217.695 561.501 211.745C564.886 209.065 577.084 188.769 581.185 183.162C602.326 154.26 641.423 133.754 675.758 125.306C705.238 118.053 731.36 116.079 759.236 130.576C764.424 133.274 768.935 136.841 773.917 139.836L774.329 140.08Q779.819 144.838 784.757 150.166C780.878 147.582 777.043 144.93 772.908 142.766C772.618 142.535 772.326 142.307 772.025 142.089C767.631 138.915 761.871 136.676 756.859 134.663C733.605 125.324 712.981 125.929 688.725 129.611C692.594 129.825 696.437 130.099 700.266 130.714C721.688 134.157 741.081 144.686 753.892 162.439C749.054 158.826 744.244 155.14 739.281 151.7C710.157 131.511 685.5 135.93 652.884 141.747C642.407 142.338 634.103 148.936 625.867 154.56C622.801 156.653 619.463 158.381 616.538 160.67C616.522 161.007 616.437 161.359 616.534 161.682C608.38 168.176 599.946 175.131 593.559 183.415C591.015 186.222 586.744 190.811 585.38 194.243C582.823 196.485 581.183 200.948 579.787 204.01C578.349 203.846 578.06 203.693 576.891 204.71C574.469 206.818 573.019 210.295 570.874 212.709C565.373 218.9 553.912 221.968 545.951 222.352C541.255 222.579 535.942 221.974 532.134 219.008Z"/>
  <path fill="#398F1C" d="M616.908 89.7945C620.952 90.0099 629.077 85.1246 633.276 83.5469C659.104 73.8424 690.241 73.6218 716.25 82.625C721.828 84.5558 732.17 87.3176 736.11 91.686C736.211 91.7974 736.304 91.915 736.401 92.0295C727.403 92.0868 718.444 91.4076 709.388 91.6164C709.12 91.6068 708.852 91.601 708.584 91.5876C705.007 91.4092 701.694 90.3148 697.982 90.3013C677.596 90.2273 649.629 97.5273 631.484 106.295C616.085 113.736 601.764 122.842 586.102 129.882C581.01 132.171 573.496 138.332 569.646 139.432C576.812 125.739 603.564 99.0345 616.908 89.7945Z"/>
  <path fill="#56B22F" d="M616.908 89.7945C638.343 68.4108 673.863 52.6901 703.909 52.7625Q704.995 52.7645 706.081 52.7934Q707.167 52.8222 708.252 52.878Q709.337 52.9338 710.42 53.0164Q711.503 53.099 712.584 53.2084Q713.665 53.3178 714.742 53.4539Q715.82 53.5901 716.894 53.7529Q717.968 53.9156 719.038 54.105Q720.108 54.2943 721.172 54.5101Q722.237 54.7259 723.296 54.9679Q724.355 55.21 725.408 55.4782Q726.46 55.7464 727.506 56.0406Q728.552 56.3349 729.59 56.6549Q730.628 56.9749 731.658 57.3205Q732.688 57.6661 733.708 58.0372Q734.729 58.4082 735.741 58.8044Q736.752 59.2006 737.754 59.6217Q738.755 60.0428 739.746 60.4886Q740.736 60.9344 741.716 61.4046Q742.695 61.8748 743.662 62.369Q744.63 62.8633 745.584 63.3814Q746.539 63.8995 747.481 64.4411Q748.423 64.9827 749.35 65.5474Q750.278 66.1122 751.192 66.6997Q752.106 67.2873 753.005 67.8973Q753.904 68.5073 754.787 69.1393Q755.67 69.7714 756.538 70.4251Q757.406 71.0789 758.257 71.7539Q759.108 72.429 759.942 73.1249Q760.776 73.8208 761.593 74.5371Q762.409 75.2535 763.208 75.9898Q764.006 76.7262 764.787 77.4821Q765.567 78.238 766.328 79.013C790.852 103.984 797.602 137.532 799.343 171.219C800.175 187.302 800.576 204.19 807.342 219.096C808.617 221.904 810.272 225.522 812.54 227.604L813.174 227.373C818.189 235.408 823.348 242.335 831.09 247.918C830.66 247.985 830.529 248.024 830.04 247.989C823.822 247.537 815.309 241.956 810.183 238.562C789.693 224.996 775.49 204.5 766.397 181.914C763.149 173.847 760.496 164.841 755.873 157.47C751.29 150.163 744.051 145.312 738.085 139.29C745.601 138.816 753.242 138.48 760.669 139.974C764.606 140.766 768.424 142.032 772.391 142.686L772.908 142.766C777.043 144.93 780.878 147.582 784.757 150.166Q779.819 144.838 774.329 140.08C773.937 136.485 765.715 130.174 762.943 127.937C743.549 112.287 722.757 111.179 698.99 113.773C670.277 116.908 641.879 126.814 616.208 139.819C606.262 144.858 598.319 151.746 589.005 157.61C588.134 158.159 587.264 158.428 586.233 158.434C589.952 153.562 594.966 149.158 599.566 145.091C624.901 122.687 656.55 108.547 689.156 100.409C700.245 97.6416 711.506 96.3442 722.713 94.2277C721.176 93.3855 719.132 93.5553 717.392 93.4558C724.776 92.3716 732.355 93.5519 739.775 92.5821C738.823 92.0136 737.501 92.1117 736.401 92.0295C736.304 91.915 736.211 91.7974 736.11 91.686C732.17 87.3176 721.828 84.5558 716.25 82.625C690.241 73.6218 659.104 73.8424 633.276 83.5469C629.077 85.1246 620.952 90.0099 616.908 89.7945Z"/>
  <path d="M534.048 175.901C538.776 165.329 543.61 154.68 549.271 144.572C568.641 109.986 596.535 76.5336 630.942 56.0876C660.982 38.2367 694.961 29.3971 729.603 38.388C751.58 44.0918 770.558 55.9192 785.053 73.4247C806.13 98.8791 814.487 129.886 814.377 162.521C814.306 183.627 811.839 206.163 823.185 225.171Q823.729 226.09 824.317 226.98Q824.906 227.871 825.539 228.731Q826.172 229.591 826.847 230.418Q827.522 231.245 828.238 232.038Q828.954 232.83 829.708 233.585Q830.463 234.341 831.254 235.057Q832.045 235.774 832.872 236.45Q833.698 237.126 834.557 237.76Q835.416 238.394 836.306 238.984Q837.196 239.574 838.114 240.119Q839.032 240.664 839.977 241.162Q840.921 241.66 841.889 242.11Q842.858 242.56 843.847 242.961Q844.836 243.362 845.845 243.713Q846.853 244.064 847.878 244.364Q848.903 244.664 849.941 244.912C863.933 248.29 876.558 244.196 888.501 236.905C883.476 246.403 877.013 253.594 867.861 259.335C854.649 267.623 837.568 271.802 822.04 270.046C813.588 269.09 805.275 266.512 797.582 262.916C763.508 246.988 751.533 210.713 726.527 185.377C711.028 169.674 690.975 157.74 669.385 152.8C657.022 149.971 640.163 149.14 628.311 154.512C624.259 156.348 620.321 159.326 616.534 161.682C616.437 161.359 616.522 161.007 616.538 160.67C619.463 158.381 622.801 156.653 625.867 154.56C634.103 148.936 642.407 142.338 652.884 141.747C685.5 135.93 710.157 131.511 739.281 151.7C744.244 155.14 749.054 158.826 753.892 162.439C741.081 144.686 721.688 134.157 700.266 130.714C696.437 130.099 692.594 129.825 688.725 129.611C712.981 125.929 733.605 125.324 756.859 134.663C761.871 136.676 767.631 138.915 772.025 142.089C772.326 142.307 772.618 142.535 772.908 142.766L772.391 142.686C768.424 142.032 764.606 140.766 760.669 139.974C753.242 138.48 745.601 138.816 738.085 139.29C744.051 145.312 751.29 150.163 755.873 157.47C760.496 164.841 763.149 173.847 766.397 181.914C775.49 204.5 789.693 224.996 810.183 238.562C815.309 241.956 823.822 247.537 830.04 247.989C830.529 248.024 830.66 247.985 831.09 247.918C823.348 242.335 818.189 235.408 813.174 227.373L812.54 227.604C810.272 225.522 808.617 221.904 807.342 219.096C800.576 204.19 800.175 187.302 799.343 171.219C797.602 137.532 790.852 103.984 766.328 79.013Q765.567 78.238 764.787 77.4821Q764.006 76.7262 763.208 75.9898Q762.409 75.2535 761.593 74.5371Q760.776 73.8208 759.942 73.1249Q759.108 72.429 758.257 71.7539Q757.406 71.0789 756.538 70.4251Q755.67 69.7714 754.787 69.1393Q753.904 68.5073 753.005 67.8973Q752.106 67.2873 751.192 66.6997Q750.278 66.1122 749.35 65.5474Q748.423 64.9827 747.481 64.4411Q746.539 63.8995 745.584 63.3814Q744.63 62.8633 743.662 62.369Q742.695 61.8748 741.716 61.4046Q740.736 60.9344 739.746 60.4886Q738.755 60.0428 737.754 59.6217Q736.752 59.2006 735.741 58.8044Q734.729 58.4082 733.708 58.0372Q732.688 57.6661 731.658 57.3205Q730.628 56.9749 729.59 56.6549Q728.552 56.3349 727.506 56.0406Q726.46 55.7464 725.408 55.4782Q724.355 55.21 723.296 54.9679Q722.237 54.7259 721.172 54.5101Q720.108 54.2943 719.038 54.105Q717.968 53.9156 716.894 53.7529Q715.82 53.5901 714.742 53.4539Q713.665 53.3178 712.584 53.2084Q711.503 53.099 710.42 53.0164Q709.337 52.9338 708.252 52.878Q707.167 52.8222 706.081 52.7934Q704.995 52.7645 703.909 52.7625C673.863 52.6901 638.343 68.4108 616.908 89.7945C603.564 99.0345 576.812 125.739 569.646 139.432C557.122 152.343 544.987 181.203 538.533 198.044C537.197 201.531 532.726 216.701 530.952 218.571L529.579 218.261C528.757 216.799 529.363 215.676 529.682 214.065L529.279 213.872C528.542 214.7 528.637 215.424 528.488 216.494C526.319 216.405 524.498 215.9 522.598 214.828C521.816 214.387 521.75 213.214 521.508 212.373Q522.969 206.136 524.75 199.982C525.775 195.227 527.885 190.52 529.673 185.999C531.433 182.925 532.6 179.174 534.048 175.901Z" style=""/>
  <path fill="#2AEC42" d="M529.682 214.065C531.903 208.386 533.451 202.432 535.448 196.669C537.342 191.204 539.74 185.831 542.104 180.553C564.288 131.009 602.274 79.0514 653.263 56.7006C679.702 45.1112 711.355 42.0803 738.578 52.8645C765.216 63.417 783.291 83.5525 794.396 109.551C800.77 124.473 803.39 140.14 803.889 156.29C804.676 181.741 801.519 203.428 813.174 227.373L812.54 227.604C810.272 225.522 808.617 221.904 807.342 219.096C800.576 204.19 800.175 187.302 799.343 171.219C797.602 137.532 790.852 103.984 766.328 79.013Q765.567 78.238 764.787 77.4821Q764.006 76.7262 763.208 75.9898Q762.409 75.2535 761.593 74.5371Q760.776 73.8208 759.942 73.1249Q759.108 72.429 758.257 71.7539Q757.406 71.0789 756.538 70.4251Q755.67 69.7714 754.787 69.1393Q753.904 68.5073 753.005 67.8973Q752.106 67.2873 751.192 66.6997Q750.278 66.1122 749.35 65.5474Q748.423 64.9827 747.481 64.4411Q746.539 63.8995 745.584 63.3814Q744.63 62.8633 743.662 62.369Q742.695 61.8748 741.716 61.4046Q740.736 60.9344 739.746 60.4886Q738.755 60.0428 737.754 59.6217Q736.752 59.2006 735.741 58.8044Q734.729 58.4082 733.708 58.0372Q732.688 57.6661 731.658 57.3205Q730.628 56.9749 729.59 56.6549Q728.552 56.3349 727.506 56.0406Q726.46 55.7464 725.408 55.4782Q724.355 55.21 723.296 54.9679Q722.237 54.7259 721.172 54.5101Q720.108 54.2943 719.038 54.105Q717.968 53.9156 716.894 53.7529Q715.82 53.5901 714.742 53.4539Q713.665 53.3178 712.584 53.2084Q711.503 53.099 710.42 53.0164Q709.337 52.9338 708.252 52.878Q707.167 52.8222 706.081 52.7934Q704.995 52.7645 703.909 52.7625C673.863 52.6901 638.343 68.4108 616.908 89.7945C603.564 99.0345 576.812 125.739 569.646 139.432C557.122 152.343 544.987 181.203 538.533 198.044C537.197 201.531 532.726 216.701 530.952 218.571L529.579 218.261C528.757 216.799 529.363 215.676 529.682 214.065Z"/>
  <path fill="#267718" d="M688.725 129.611C712.981 125.929 733.605 125.324 756.859 134.663C761.871 136.676 767.631 138.915 772.025 142.089C772.326 142.307 772.618 142.535 772.908 142.766L772.391 142.686C768.424 142.032 764.606 140.766 760.669 139.974C753.242 138.48 745.601 138.816 738.085 139.29C744.051 145.312 751.29 150.163 755.873 157.47C760.496 164.841 763.149 173.847 766.397 181.914C775.49 204.5 789.693 224.996 810.183 238.562C815.309 241.956 823.822 247.537 830.04 247.989C830.529 248.024 830.66 247.985 831.09 247.918C831.561 248.127 832.036 248.33 832.503 248.551C839.456 251.848 846.761 253.925 854.165 255.952Q850.853 257.004 847.46 257.754Q844.067 258.504 840.62 258.946Q837.173 259.389 833.701 259.52Q830.228 259.651 826.758 259.47Q823.628 259.285 820.527 258.82Q817.426 258.356 814.378 257.616Q811.331 256.877 808.362 255.868Q805.393 254.859 802.526 253.589C771.767 240.2 761.035 207.842 740.093 184.335C723.797 166.044 701.943 149.915 677.743 144.505C669.554 142.674 661.233 142.202 652.884 141.747C685.5 135.93 710.157 131.511 739.281 151.7C744.244 155.14 749.054 158.826 753.892 162.439C741.081 144.686 721.688 134.157 700.266 130.714C696.437 130.099 692.594 129.825 688.725 129.611Z"/>
  <path d="M 267.982 484.876 C 268.403 478.421 267.582 471.586 267.52 465.084 C 267.485 462.757 267.479 460.431 267.501 458.104 C 267.523 455.777 267.574 453.451 267.654 451.125 C 267.733 448.8 267.841 446.476 267.978 444.153 C 268.114 441.83 268.279 439.509 268.473 437.19 C 268.666 434.871 268.888 432.555 269.139 430.242 C 269.39 427.928 269.669 425.618 269.976 423.312 C 270.283 421.005 270.619 418.703 270.983 416.404 C 271.347 414.106 271.739 411.813 272.159 409.524 C 272.58 407.235 273.028 404.952 273.504 402.675 C 273.981 400.397 274.485 398.125 275.017 395.86 C 275.55 393.595 276.11 391.337 276.697 389.085 C 277.285 386.834 277.9 384.59 278.543 382.354 C 279.186 380.117 279.857 377.889 280.554 375.669 C 281.252 373.45 281.977 371.239 282.729 369.036 C 283.481 366.834 284.26 364.642 285.066 362.459 C 285.872 360.276 286.705 358.104 287.564 355.941 C 288.423 353.778 289.309 351.627 290.221 349.486 C 291.133 347.345 292.071 345.216 293.036 343.099 C 294.001 340.982 294.991 338.876 296.007 336.783 C 297.024 334.69 298.066 332.609 299.133 330.542 C 300.2 328.474 301.293 326.42 302.411 324.379 C 303.529 322.338 304.672 320.312 305.84 318.299 C 307.007 316.286 308.2 314.288 309.417 312.305 C 310.634 310.322 311.875 308.353 313.14 306.4 C 314.405 304.447 315.694 302.51 317.007 300.589 C 318.32 298.668 319.656 296.763 321.016 294.875 C 322.375 292.986 323.758 291.115 325.164 289.261 C 326.569 287.406 327.998 285.57 329.449 283.751 C 330.9 281.932 332.373 280.13 333.868 278.347 C 335.363 276.564 336.879 274.8 338.418 273.054 C 339.957 271.308 341.516 269.581 343.097 267.874 C 344.678 266.167 346.279 264.479 347.902 262.811 C 350.315 260.318 352.771 257.868 355.271 255.462 C 357.771 253.057 360.313 250.696 362.897 248.38 C 365.481 246.065 368.105 243.796 370.769 241.573 C 373.434 239.351 376.137 237.177 378.878 235.05 C 381.62 232.924 384.399 230.847 387.214 228.82 C 390.029 226.792 392.88 224.815 395.766 222.889 C 398.652 220.962 401.571 219.088 404.523 217.266 C 407.476 215.443 410.459 213.674 413.474 211.957 C 416.489 210.24 419.534 208.578 422.609 206.97 C 425.683 205.361 428.785 203.808 431.914 202.31 C 435.043 200.812 438.199 199.37 441.38 197.983 C 444.561 196.597 447.765 195.268 450.992 193.996 C 454.22 192.724 457.47 191.51 460.741 190.353 C 464.012 189.196 467.303 188.098 470.613 187.058 C 473.923 186.018 477.25 185.037 480.595 184.116 C 483.94 183.194 487.301 182.332 490.676 181.53 C 505.069 178.252 519.257 176.024 534.048 175.901 C 532.6 179.174 531.433 182.925 529.673 185.999 C 520.624 187.239 499.83 189.191 492.547 192.303 L 492.608 193.19 C 487.496 195.387 481.983 196.973 476.78 199.026 C 464.78 203.762 452.292 209.316 440.928 215.411 C 439.038 216.448 437.159 217.506 435.292 218.584 C 433.425 219.661 431.569 220.759 429.725 221.876 C 427.881 222.993 426.049 224.13 424.23 225.287 C 422.41 226.444 420.603 227.619 418.809 228.814 C 417.014 230.009 415.233 231.223 413.464 232.456 C 411.695 233.689 409.94 234.941 408.198 236.211 C 406.456 237.482 404.728 238.771 403.013 240.078 C 401.299 241.385 399.599 242.711 397.913 244.055 C 396.227 245.398 394.555 246.76 392.898 248.139 C 391.241 249.518 389.599 250.915 387.972 252.33 C 386.345 253.745 384.733 255.176 383.136 256.625 C 381.539 258.074 379.958 259.539 378.393 261.022 C 376.828 262.505 375.278 264.004 373.745 265.52 C 372.212 267.035 370.695 268.567 369.194 270.115 C 367.693 271.663 366.209 273.227 364.742 274.807 C 363.275 276.386 361.824 277.981 360.391 279.592 C 358.958 281.203 357.542 282.829 356.144 284.47 C 354.745 286.111 353.364 287.766 352.001 289.437 C 350.638 291.108 349.293 292.792 347.966 294.491 C 346.639 296.19 345.33 297.903 344.039 299.63 C 342.748 301.357 341.476 303.098 340.223 304.852 C 338.97 306.607 337.735 308.374 336.519 310.155 C 335.303 311.935 334.106 313.728 332.929 315.535 C 331.752 317.341 330.594 319.159 329.455 320.99 C 328.316 322.821 327.197 324.663 326.098 326.518 C 324.999 328.373 323.92 330.24 322.86 332.117 C 321.801 333.995 320.762 335.884 319.743 337.784 C 318.724 339.684 317.725 341.595 316.746 343.516 C 315.768 345.437 314.81 347.369 313.873 349.31 C 312.936 351.252 312.02 353.204 311.125 355.165 C 310.229 357.126 309.354 359.097 308.501 361.077 C 307.648 363.056 306.816 365.045 306.005 367.043 C 292.885 399.937 285.253 437.456 288.833 472.929 C 290.325 487.712 293.705 501.908 297.933 516.123 C 301.587 529.131 305.232 542.413 309.924 555.087 C 310.738 557.315 311.584 559.531 312.462 561.735 C 313.34 563.939 314.25 566.13 315.192 568.307 C 316.134 570.484 317.107 572.647 318.112 574.796 C 319.116 576.945 320.151 579.079 321.218 581.198 C 322.285 583.317 323.382 585.421 324.509 587.508 C 325.636 589.595 326.794 591.666 327.981 593.719 C 329.169 595.773 330.386 597.809 331.633 599.827 C 332.879 601.845 334.154 603.845 335.459 605.827 C 336.764 607.808 338.097 609.769 339.459 611.712 C 340.82 613.655 342.21 615.577 343.627 617.48 C 345.044 619.382 346.489 621.263 347.961 623.124 C 349.433 624.985 350.932 626.823 352.457 628.64 C 353.982 630.457 355.533 632.251 357.11 634.023 C 358.687 635.795 360.29 637.544 361.919 639.269 C 363.547 640.994 365.2 642.696 366.877 644.374 C 368.554 646.051 370.256 647.704 371.981 649.332 C 377.63 654.708 383.491 659.842 389.563 664.735 C 392.671 667.228 396.116 669.481 399.079 672.118 C 399.222 672.331 399.359 672.547 399.508 672.755 C 403.426 678.2 423.324 685.55 426.065 689.139 C 425.278 692.168 423.95 696.871 421.904 699.205 C 413.644 697.733 395.52 682.035 386.9 679.685 C 393.738 685.796 403.426 690.53 411.383 695.062 C 455.558 720.223 503.203 731.666 553.971 728.822 C 559.737 728.521 565.486 728.021 571.218 727.322 C 578.66 727.626 587.933 724.825 595.233 723.244 C 640.133 713.516 678.342 693.823 712.968 663.764 C 749.234 632.281 776.569 589.519 791.801 544.107 C 794.038 537.435 797.994 527.708 798.309 520.773 C 798.356 519.749 798.264 519.925 797.646 519.221 L 798.201 518.971 C 802.14 519.563 806.204 519.996 810.056 521.002 C 806.882 532.883 803.807 544.759 799.713 556.367 C 798.794 558.998 797.835 561.614 796.838 564.216 C 795.841 566.819 794.805 569.405 793.73 571.976 C 792.655 574.547 791.542 577.102 790.391 579.64 C 789.24 582.178 788.052 584.698 786.825 587.201 C 785.599 589.703 784.336 592.187 783.036 594.652 C 781.735 597.117 780.398 599.561 779.025 601.986 C 777.652 604.411 776.242 606.815 774.797 609.198 C 773.352 611.581 771.872 613.941 770.357 616.28 C 768.841 618.619 767.291 620.934 765.706 623.226 C 764.121 625.519 762.503 627.787 760.851 630.031 C 759.198 632.275 757.513 634.494 755.794 636.687 C 754.075 638.881 752.324 641.049 750.541 643.19 C 748.758 645.331 746.943 647.446 745.096 649.533 C 743.25 651.62 741.373 653.68 739.465 655.711 C 737.557 657.742 735.619 659.744 733.651 661.717 C 731.684 663.69 729.687 665.634 727.661 667.548 C 715.23 679.297 702.068 690.336 687.24 698.939 C 694.484 714.148 702.534 728.945 710.042 744.026 C 714.561 753.149 742.209 811.446 742.209 811.446 C 742.209 811.446 756.666 818.654 758.358 821.984 C 761.561 828.432 781.973 881.778 781.973 881.778 C 781.973 881.778 854.557 879.781 885.039 900.764 C 896.018 908.322 907.044 920.803 909.417 934.807 C 909.987 938.169 904.779 957.223 856.891 959.169 C 827.853 960.349 782.02 952.103 751.23 928.976 C 739.467 920.141 700.681 851.149 691.563 836.467 C 678.37 815.224 654.553 790.91 650.406 786.401 C 634.408 769.01 603.325 741.062 596.948 740.734 C 579.187 739.789 551.855 742.608 522.413 740.703 C 495.13 738.938 450.099 732.637 450.099 732.637 C 450.099 732.637 408.887 745.323 388.777 754.575 C 371.544 762.504 337.945 781.219 337.945 781.219 L 359.348 830.697 C 359.348 830.697 368.181 852.081 376.652 873.497 C 382.946 889.408 390.442 901.446 386.072 913.596 C 382.103 924.632 360.174 932.782 360.174 932.782 C 360.174 932.782 321.04 946.016 300.758 949.875 C 279.344 953.95 242.175 955.145 242.175 955.145 C 242.175 955.145 210.927 952.193 208.54 949.658 C 205.763 946.709 204.491 943.214 204.643 939.169 C 205.155 925.513 215.853 912.089 225.438 903.304 C 241.84 888.273 266.507 877.341 288.38 873.889 C 298.483 872.295 308.567 872.209 318.752 872.67 C 313.602 865.863 285.201 832.378 284.784 828.034 C 284.357 823.594 290.564 816.899 293.377 813.77 L 292.859 812.938 C 285.22 800.66 275.116 782.248 278.766 767.246 C 280.82 758.804 286.521 751.241 291.708 744.463 C 312.678 717.062 338.831 697.691 368.046 679.94 C 365.967 678.251 363.915 676.529 361.89 674.776 C 359.865 673.023 357.867 671.239 355.897 669.424 C 353.927 667.609 351.985 665.765 350.072 663.89 C 348.159 662.015 346.275 660.111 344.42 658.178 C 342.566 656.245 340.742 654.284 338.948 652.295 C 337.155 650.306 335.392 648.289 333.66 646.245 C 331.929 644.201 330.229 642.131 328.562 640.035 C 326.895 637.938 325.26 635.817 323.658 633.67 C 322.056 631.523 320.487 629.352 318.952 627.157 C 317.417 624.962 315.917 622.743 314.451 620.501 C 312.984 618.26 311.553 615.996 310.157 613.71 C 308.76 611.424 307.399 609.117 306.074 606.789 C 304.749 604.461 303.461 602.113 302.208 599.746 C 300.955 597.378 299.74 594.991 298.561 592.586 C 297.382 590.181 296.241 587.758 295.137 585.317 C 294.033 582.876 292.967 580.419 291.939 577.946 C 289.169 571.281 286.649 564.522 284.38 557.67 C 283.234 554.283 282.387 550.539 280.913 547.309 L 280.589 546.615 C 280.231 543.115 279.033 539.923 277.909 536.61 C 275.921 529.797 274.078 522.944 272.379 516.053 C 270.808 510.373 269.955 504.433 269.044 498.615 L 268.92 497.236 C 268.482 493.456 269.356 488.355 267.982 484.876 Z" style=""/>
  <path d="M298.822 822.912C300.195 824.249 301.399 825.461 302.43 827.083L302.221 827.797L300.875 827.832L299.93 827.8C298.378 827.737 297.24 827.733 296.159 826.553C296.46 824.912 297.677 824.019 298.822 822.912Z" style=""/>
  <path fill="#398F1C" d="M377.584 686.712C383.849 692.295 390.88 696.676 398.037 701.01C396.741 705.119 394.651 708.938 391.239 711.684C387.224 707.5 373.143 694.339 368.485 692.019C371.493 690.24 374.485 688.32 377.584 686.712Z"/>
  <path d="M 297.511 829.863 C 299.465 830.213 301.442 830.358 303.417 830.539 C 306.29 831.142 309.082 831.025 311.998 830.957 C 319.504 841.895 326.135 853.459 332.932 864.845 C 335.645 869.388 339.426 874.464 341.356 879.331 C 337.998 877.327 333.224 875.888 330.367 873.361 C 324.832 868.465 320.297 860.614 315.908 854.596 C 309.84200000000004 846.302 303.7096666666667 838.0576666666667 297.511 829.863 Z M 338.3 824.469 C 343.41 830.1 347.418 836.922 351.229 843.487 C 356.801 853.082 378.607 894.853 377.921 903.318 C 377.613 907.124 373.599 910.673 370.725 912.793 C 343.088 933.182 265.183 948.092 230.939 942.451 C 225.421 941.542 220.428 939.555 215.642 936.7 C 219.336 927.167 224.674 919.406 232.582 912.85 C 240.41 906.075 248.511 900.328 257.667 895.467 C 282.085 882.504 310.132 875.903 337.115 884.196 C 347.762 886.943 356.414 894.604 364.157 902.029 C 357.571 892.811 350.93 885.479 341.356 879.331 C 339.426 874.464 335.645 869.388 332.932 864.845 C 326.135 853.459 319.504 841.895 311.998 830.957 C 309.082 831.025 306.29 831.142 303.417 830.539 C 315.794 830.481 326.577 828.369 338.3 824.469 Z" style="fill: rgb(10, 76, 158);"/>
  <path fill="#AEE339" d="M354.397 700.708C354.235 701.484 354.046 701.847 353.46 702.393C349.261 706.305 344.54 709.666 340.319 713.582C327.767 725.232 294.685 758.808 295.297 775.854C295.717 787.571 301.53 800.553 306.77 810.853C308.35 813.959 311.225 818.12 311.876 821.508C309.479 820.184 307.221 816.645 305.655 814.409C298.06 803.557 286.122 783.743 288.803 770.007C289.903 764.373 293.893 758.948 297.17 754.375C312.31 733.247 332.753 714.985 354.397 700.708Z"/>
  <path d="M752.579 825.31C753.153 826.845 753.749 828.376 754.262 829.932C759.498 836.863 771.124 874.689 775.248 885.811C772.998 886.074 770.842 886.522 768.659 887.122C758.281 889.974 751.823 894.995 746.496 904.344Q731.283 876.689 713.54 850.585L713.689 850.117L717.124 849.912C720.958 850.018 724.762 849.656 728.421 848.466C739.488 844.866 746.501 835.861 751.556 825.87L751.671 825.461L752.579 825.31Z" style="fill: rgb(10, 76, 158);"/>
  <path fill="#FEFEFE" d="M752.579 825.31C753.153 826.845 753.749 828.376 754.262 829.932C755.519 836.098 758.37 842.612 760.305 848.676C763.221 857.812 765.633 867.022 767.961 876.324C761.966 867.595 752.227 840.241 751.742 829.476L751.556 825.87L751.671 825.461L752.579 825.31Z"/>
  <path fill="#267718" d="M398.037 701.01Q419.762 713.506 442.783 723.411C422.162 727.592 403.069 735.364 383.783 743.557C370.918 749.022 357.6 754.738 345.826 762.327C337.636 767.606 330.621 773.588 324.17 780.875C331.114 790.878 336.837 801.641 343.908 811.632C340.972 813.327 338.153 814.902 334.988 816.129L334.324 816.392C326.564 804.439 317.542 793.873 314.314 779.604C317.453 774.355 321.656 769.666 325.721 765.118C331.039 759.167 336.515 753.252 342.465 747.924C348.117 742.863 354.339 738.424 360.405 733.877C370.575 726.254 380.733 718.837 391.239 711.684C394.651 708.938 396.741 705.119 398.037 701.01Z"/>
  <path fill="#56B22F" d="M354.397 700.708C358.884 697.515 363.749 694.823 368.485 692.019C373.143 694.339 387.224 707.5 391.239 711.684C380.733 718.837 370.575 726.254 360.405 733.877C354.339 738.424 348.117 742.863 342.465 747.924C336.515 753.252 331.039 759.167 325.721 765.118C321.656 769.666 317.453 774.355 314.314 779.604C317.542 793.873 326.564 804.439 334.324 816.392C326.902 818.633 319.275 819.465 311.876 821.508C311.225 818.12 308.35 813.959 306.77 810.853C301.53 800.553 295.717 787.571 295.297 775.854C294.685 758.808 327.767 725.232 340.319 713.582C344.54 709.666 349.261 706.305 353.46 702.393C354.046 701.847 354.235 701.484 354.397 700.708Z"/>
  <path d="M 734.711 900.77 C 730.077 894.501 711.254 849.391 717.124 849.912 L 713.689 850.117 L 713.54 850.585 C 725.369 867.988 736.354 885.907 746.496 904.344 C 751.823 894.995 758.281 889.974 768.659 887.122 C 770.842 886.522 772.998 886.074 775.248 885.811 L 775.836 887.495 C 774.308 888.857 772.474 889.791 770.881 891.081 C 765.046 895.807 758.199 903.583 758.229 911.524 C 758.231 912.13 758.291 912.698 758.481 913.27 C 758.937 916.694 761.063 918.514 763.701 920.535 C 791.537 941.867 832.338 949.885 866.782 945.032 C 875.292 943.833 891.802 941.375 897.529 933.982 C 898.342 932.932 899.009 931.757 899.682 930.615 C 900.827 932.319 901.797 934.572 901.81 936.662 C 901.826 939.025 900.624 941.055 898.967 942.66 C 885.826 955.393 734.128 912.818 734.711 900.77 Z" style=""/>
  <path d="M 338.3 824.469 C 346.271 820.363 382.952 900.195 386.105 910.083 C 387.174 913.437 257.646 958.991 226.066 947.784 C 221.965 946.328 218.026 944.088 216.147 939.961 C 215.628 938.821 215.596 937.908 215.642 936.7 C 220.428 939.555 225.421 941.542 230.939 942.451 C 265.183 948.092 343.088 933.182 370.725 912.793 C 373.599 910.673 377.613 907.124 377.921 903.318 C 378.607 894.853 356.801 853.082 351.229 843.487 C 347.418 836.922 343.41 830.1 338.3 824.469 Z" style=""/>
  <path d="M 793.54 892.317 C 817.856 888.518 859.348 895.637 879.26 910.037 C 886.629 915.366 894.052 921.493 898.848 929.306 C 899.118 929.747 899.403 930.179 899.682 930.615 C 899.009 931.757 898.342 932.932 897.529 933.982 C 891.802 941.375 875.292 943.833 866.782 945.032 C 832.338 949.885 791.537 941.867 763.701 920.535 C 761.063 918.514 758.937 916.694 758.481 913.27 C 760.371 909.36 762.255 905.687 765.331 902.549 C 772.524 895.209 793.54 892.317 793.54 892.317 Z" style="fill: rgb(10, 76, 158);"/>
  <path fill="#FEFEFE" d="M 798.296 891.962 C 824.294 891.972 853.109 897.465 875.253 911.804 C 877.36 913.167 880.905 915.465 881.18 918.174 C 881.29 919.257 880.87 920.215 880.149 921.004 C 875.481 926.109 863.44 925.763 856.976 926.009 C 859.407 923.766 863.149 920.733 864.105 917.512 C 864.637 915.721 864.351 913.907 863.377 912.323 C 857.354 902.529 823.769 895.295 812.359 893.876 C 806.924 893.2 798.296 891.962 798.296 891.962 Z"/>
  <path fill="#267718" d="M608.91 731.973C632.362 728.017 659.682 715.957 679.753 703.347C685.421 715.342 691.579 727.189 696.94 739.311C708.265 759.023 719.204 783.17 728.797 803.97C732.614 810.288 738.582 819.208 741.039 826.001C740.674 828.421 739.49 830.44 738.181 832.47C734.241 838.583 729.353 843.797 721.859 845.264C718.074 846.005 713.709 845.383 710.726 842.775C704.23 837.097 696.263 824.172 690.264 816.924C679.266 803.637 667.406 790.843 655.81 778.073C643.235 764.225 624.587 742.8 609.529 732.397L608.91 731.973Z"/>
  <path fill="#56B22F" d="M677.067 730.8C684.806 732.212 690.267 735.375 696.94 739.311C708.265 759.023 719.204 783.17 728.797 803.97C729.201 809.015 732.688 813.391 734.714 817.94C735.356 819.381 736.197 821.114 735.536 822.662C734.387 825.353 731.104 827.564 728.432 828.504C726.478 829.19 724.7 829.32 722.831 828.331C720.433 827.063 718.257 825.015 716.397 823.05C710.736 817.068 705.822 810.043 700.657 803.602C689.988 790.298 678.451 776.66 669.366 762.218C667.671 759.524 666.364 756.47 665.397 753.442C663.884 748.7 663.298 743.715 665.778 739.174C668.249 734.65 672.301 732.254 677.067 730.8Z"/>
  <path d="M 232.582 912.85 C 240.41 906.075 248.511 900.328 257.667 895.467 C 282.085 882.504 310.132 875.903 337.115 884.196 C 336.973 884.213 336.832 884.232 336.69 884.247 C 329.405 884.98 322.164 882.829 314.652 883.895 C 291.361 887.198 251.921 909.1 251.921 909.1 C 251.921 909.1 233.245 914.053 232.582 912.85 Z" style="fill: rgb(255, 255, 255);"/>
  <path fill="#56B22F" d="M593.559 183.415L594.464 183.699C599.913 185.376 605.745 186.243 611.296 187.6C619.538 189.616 627.779 192.424 635.678 195.52C697.968 219.934 748.837 269.261 780.504 327.686Q782.304 330.971 784.02 334.3Q785.735 337.63 787.365 341.003Q788.994 344.375 790.537 347.789Q792.079 351.202 793.534 354.654Q794.988 358.106 796.354 361.594Q797.719 365.082 798.995 368.603Q800.27 372.125 801.455 375.679Q802.64 379.232 803.733 382.815Q804.826 386.397 805.827 390.007Q806.828 393.616 807.736 397.25Q808.644 400.884 809.458 404.54Q810.273 408.196 810.994 411.872Q811.714 415.548 812.34 419.241Q812.966 422.934 813.497 426.641Q814.028 430.349 814.464 434.07Q814.9 437.79 815.24 441.52C815.847 448.381 816.905 456.503 816.15 463.342L816.958 464.008C816.024 464.637 815.013 465.659 813.887 465.623C811.211 465.536 810.003 465.787 808.067 467.691C806.978 468.762 806.012 469.771 805.914 471.358C806.738 472.129 807.467 472.106 808.551 472.229L805.44 472.659C790.559 471.172 766.5 470.122 754.286 480.042C746.953 485.998 743.349 495.289 742.573 504.503Q742.359 507.096 742.243 509.695C742.747 512.667 743.019 515.515 745.282 517.719C749.106 517.821 752.917 517.042 756.739 516.838C766.571 516.312 778.236 516.129 787.951 517.788C790.845 518.969 794.535 519.161 797.646 519.221C798.264 519.925 798.356 519.749 798.309 520.773C797.994 527.708 794.038 537.435 791.801 544.107C776.569 589.519 749.234 632.281 712.968 663.764C678.342 693.823 640.133 713.516 595.233 723.244C587.933 724.825 578.66 727.626 571.218 727.322Q562.62 728.371 553.971 728.822C503.203 731.666 455.558 720.223 411.383 695.062C403.426 690.53 393.738 685.796 386.9 679.685C395.52 682.035 413.644 697.733 421.904 699.205C423.95 696.871 425.278 692.168 426.065 689.139C423.324 685.55 403.426 678.2 399.508 672.755C399.359 672.547 399.222 672.331 399.079 672.118C396.116 669.481 392.671 667.228 389.563 664.735Q380.455 657.396 371.981 649.332Q369.393 646.89 366.877 644.374Q364.361 641.857 361.919 639.269Q359.476 636.681 357.11 634.023Q354.744 631.365 352.457 628.64Q350.169 625.915 347.961 623.124Q345.753 620.333 343.627 617.48Q341.501 614.626 339.459 611.712Q337.416 608.798 335.459 605.827Q333.502 602.854 331.633 599.827Q329.763 596.8 327.981 593.719Q326.2 590.639 324.509 587.508Q322.818 584.377 321.218 581.198Q319.618 578.02 318.112 574.796Q316.605 571.573 315.192 568.307Q313.779 565.041 312.462 561.735Q311.145 558.429 309.924 555.087C305.232 542.413 301.587 529.131 297.933 516.123C293.705 501.908 290.325 487.712 288.833 472.929C285.253 437.456 292.885 399.937 306.005 367.043Q307.221 364.046 308.501 361.077Q309.781 358.107 311.125 355.165Q312.468 352.223 313.873 349.31Q315.279 346.398 316.746 343.516Q318.214 340.634 319.743 337.784Q321.271 334.934 322.86 332.117Q324.45 329.301 326.098 326.518Q327.747 323.736 329.455 320.99Q331.163 318.244 332.929 315.535Q334.696 312.825 336.519 310.155Q338.343 307.484 340.223 304.852Q342.103 302.221 344.039 299.63Q345.975 297.04 347.966 294.491Q349.957 291.943 352.001 289.437Q354.046 286.931 356.144 284.47Q358.241 282.009 360.391 279.592Q362.541 277.176 364.742 274.807Q366.943 272.437 369.194 270.115Q371.445 267.793 373.745 265.52Q376.045 263.246 378.393 261.022Q380.741 258.798 383.136 256.625Q385.531 254.452 387.972 252.33Q390.412 250.208 392.898 248.139Q395.384 246.07 397.913 244.055Q400.442 242.039 403.013 240.078Q405.585 238.117 408.198 236.211Q410.811 234.306 413.464 232.456Q416.117 230.607 418.809 228.814Q421.5 227.022 424.23 225.287Q426.959 223.552 429.725 221.876Q432.491 220.2 435.292 218.584Q438.093 216.967 440.928 215.411C452.292 209.316 464.78 203.762 476.78 199.026C481.983 196.973 487.496 195.387 492.608 193.19L492.547 192.303C499.83 189.191 520.624 187.239 529.673 185.999C527.885 190.52 525.775 195.227 524.75 199.982Q522.969 206.136 521.508 212.373C521.75 213.214 521.816 214.387 522.598 214.828C524.498 215.9 526.319 216.405 528.488 216.494C528.637 215.424 528.542 214.7 529.279 213.872L529.682 214.065C529.363 215.676 528.757 216.799 529.579 218.261L530.952 218.571L532.134 219.008C535.942 221.974 541.255 222.579 545.951 222.352C553.912 221.968 565.373 218.9 570.874 212.709C573.019 210.295 574.469 206.818 576.891 204.71C578.06 203.693 578.349 203.846 579.787 204.01C581.183 200.948 582.823 196.485 585.38 194.243C586.744 190.811 591.015 186.222 593.559 183.415Z"/>
  <path fill="#398F1C" d="M456.298 551.41C483.31 554.749 497.37 554.966 519.563 538.254L519.285 538.956C519.093 539.452 518.971 539.974 518.809 540.481C517.176 545.598 505.322 553.508 500.415 555.581C488.11 560.781 470.194 558.093 458.281 552.964C457.432 552.599 456.906 552.072 456.298 551.41Z"/>
  <path fill="#030708" d="M610.713 357.622L611.111 356.99C625.372 369.243 633.168 388.088 634.652 406.601C636.391 428.295 630.389 449.485 616.172 466.161C606.6 477.388 593.104 484.694 578.307 485.76Q577.103 485.842 575.897 485.863Q574.691 485.885 573.485 485.847Q572.279 485.809 571.076 485.711Q569.874 485.613 568.678 485.455Q567.482 485.297 566.295 485.08Q565.108 484.863 563.933 484.588Q562.759 484.312 561.599 483.978Q560.44 483.645 559.298 483.254Q558.157 482.863 557.036 482.416Q555.916 481.969 554.819 481.466Q553.722 480.964 552.651 480.408Q551.58 479.852 550.539 479.243Q549.497 478.634 548.487 477.975Q547.477 477.315 546.501 476.606Q545.524 475.897 544.585 475.14Q543.645 474.383 542.744 473.581C527.408 460.132 519.698 440.423 518.419 420.374C518.127 415.797 518.334 411.262 518.663 406.694L520.342 405.741C519.817 415.506 520.793 424.535 522.631 434.103C526.468 446.345 531.747 457.784 540.675 467.201C549.113 476.102 561.076 482.219 573.463 482.534C587.132 482.881 599.85 477.206 609.608 467.805C624.963 453.012 631.268 433.478 631.566 412.529C631.67 397.639 627.777 381.593 619.473 369.111C616.873 365.204 613.462 361.897 610.932 357.972C610.858 357.856 610.786 357.739 610.713 357.622Z"/>
  <path fill="#267718" d="M585.38 194.243C608.603 199.161 628.505 203.468 649.578 215.165C647.255 215.668 644.954 214.634 642.704 214.059C632.229 211.378 617.579 209.582 606.777 209.96C603.147 213.99 600.046 218.456 596.198 222.289C593.443 225.032 590.221 227.124 587.423 229.746C575.193 235.471 562.461 238.529 548.982 239.22C536.383 239.866 517.26 238.335 507.545 229.21C504.266 226.131 501.237 221.635 501.296 216.953C501.369 211.145 506.844 207.59 510.519 203.964L511.176 203.309C515.715 201.663 519.954 200.598 524.75 199.982Q522.969 206.136 521.508 212.373C521.75 213.214 521.816 214.387 522.598 214.828C524.498 215.9 526.319 216.405 528.488 216.494C528.637 215.424 528.542 214.7 529.279 213.872L529.682 214.065C529.363 215.676 528.757 216.799 529.579 218.261L530.952 218.571L532.134 219.008C535.942 221.974 541.255 222.579 545.951 222.352C553.912 221.968 565.373 218.9 570.874 212.709C573.019 210.295 574.469 206.818 576.891 204.71C578.06 203.693 578.349 203.846 579.787 204.01C581.183 200.948 582.823 196.485 585.38 194.243Z"/>
  <path fill="#030708" d="M532.134 219.008C535.942 221.974 541.255 222.579 545.951 222.352C553.912 221.968 565.373 218.9 570.874 212.709C573.019 210.295 574.469 206.818 576.891 204.71C578.06 203.693 578.349 203.846 579.787 204.01C578.072 211.417 577.743 216.864 570.687 221.299C559.765 228.162 544.124 230.04 531.7 227.033C527.611 226.043 522.524 224.295 520.395 220.344C519.52 218.719 521.067 214.18 521.508 212.373C521.75 213.214 521.816 214.387 522.598 214.828C524.498 215.9 526.319 216.405 528.488 216.494C528.637 215.424 528.542 214.7 529.279 213.872L529.682 214.065C529.363 215.676 528.757 216.799 529.579 218.261L530.952 218.571L532.134 219.008Z"/>
  <path fill="#312828" d="M571.729 375.359C582.627 379.038 588.153 385.916 593.152 395.976L593.608 396.901C599.088 411.047 598.921 426.391 592.724 440.34C588.786 449.202 581.69 457.738 572.473 461.355Q571.919 461.576 571.354 461.768Q570.789 461.961 570.216 462.126Q569.642 462.291 569.061 462.427Q568.48 462.563 567.893 462.67Q567.306 462.778 566.714 462.856Q566.123 462.934 565.528 462.983Q564.933 463.031 564.337 463.051Q563.74 463.07 563.144 463.06Q562.547 463.05 561.952 463.01Q561.356 462.97 560.763 462.901Q560.171 462.832 559.582 462.734Q558.994 462.635 558.411 462.508Q557.828 462.381 557.251 462.225Q556.676 462.069 556.108 461.885Q555.54 461.701 554.982 461.488Q554.425 461.276 553.878 461.037C544.717 457.033 538.335 447.42 534.998 438.322C534.425 436.759 533.847 435.172 533.409 433.566C529.797 433.61 526.231 433.815 522.631 434.103C520.793 424.535 519.817 415.506 520.342 405.741C521.041 404.817 535.176 396.737 536.783 396.241C539.171 393.996 541.896 392.176 544.787 390.656C548.725 386.706 563.353 379.504 568.992 376.575L571.729 375.359Z"/>
  <path fill="#FEFEFE" d="M578.379 395.543C579.496 395.586 580.507 395.632 581.562 396.034C584.725 397.24 587.157 400.125 588.352 403.219C590.428 408.595 590.431 414.721 587.911 419.939C585.606 424.714 582.464 427.47 577.527 429.237C576.095 429.088 574.683 428.958 573.38 428.294C569.918 426.527 567.671 423.102 566.618 419.451Q566.476 418.94 566.359 418.422Q566.243 417.904 566.152 417.381Q566.061 416.858 565.995 416.331Q565.93 415.805 565.891 415.275Q565.852 414.746 565.839 414.215Q565.826 413.685 565.839 413.154Q565.853 412.624 565.892 412.094Q565.931 411.565 565.997 411.038Q566.062 410.512 566.154 409.989Q566.245 409.466 566.362 408.948Q566.479 408.43 566.621 407.919Q566.763 407.408 566.931 406.904Q567.098 406.4 567.29 405.906Q567.482 405.411 567.698 404.926Q567.915 404.441 568.154 403.968Q568.394 403.494 568.657 403.033C570.991 398.925 573.898 396.822 578.379 395.543Z"/>
  <path fill="#030708" d="M571.729 375.359C582.627 379.038 588.153 385.916 593.152 395.976L593.608 396.901C599.088 411.047 598.921 426.391 592.724 440.34C588.786 449.202 581.69 457.738 572.473 461.355Q571.919 461.576 571.354 461.768Q570.789 461.961 570.216 462.126Q569.642 462.291 569.061 462.427Q568.48 462.563 567.893 462.67Q567.306 462.778 566.714 462.856Q566.123 462.934 565.528 462.983Q564.933 463.031 564.337 463.051Q563.74 463.07 563.144 463.06Q562.547 463.05 561.952 463.01Q561.356 462.97 560.763 462.901Q560.171 462.832 559.582 462.734Q558.994 462.635 558.411 462.508Q557.828 462.381 557.251 462.225Q556.676 462.069 556.108 461.885Q555.54 461.701 554.982 461.488Q554.425 461.276 553.878 461.037C544.717 457.033 538.335 447.42 534.998 438.322C534.425 436.759 533.847 435.172 533.409 433.566C529.797 433.61 526.231 433.815 522.631 434.103C520.793 424.535 519.817 415.506 520.342 405.741C521.041 404.817 535.176 396.737 536.783 396.241C539.171 393.996 541.896 392.176 544.787 390.656C543.341 393.096 541.337 395.105 539.932 397.636C533.959 408.398 534.174 422.747 537.447 434.326C539.903 443.013 544.875 452.294 553.13 456.716C558.54 459.614 564.776 460.454 570.633 458.45C578.348 455.809 584.511 448.789 588.119 441.676C594.092 429.899 595.526 413.706 591.328 401.151C587.181 388.746 580.528 382.356 568.992 376.575L571.729 375.359Z"/>
  <path d="M 520.342 405.741 C 521.041 404.817 535.176 396.737 536.783 396.241 C 531.262 408.446 530.386 420.568 533.409 433.566 C 529.797 433.61 526.231 433.815 522.631 434.103 C 520.793 424.535 519.817 415.506 520.342 405.741 Z M 571.729 375.359 C 577.527 371.486 604.99 357.433 610.713 357.622 C 610.786 357.739 610.858 357.856 610.932 357.972 C 613.462 361.897 616.873 365.204 619.473 369.111 C 627.777 381.593 631.67 397.639 631.566 412.529 C 623.323 405.746 604.175 397.527 593.608 396.901 C 593.608 396.901 582.627 379.038 571.729 375.359 Z M 593.608 396.901 C 604.175 397.527 623.323 405.746 631.566 412.529 C 631.268 433.478 624.963 453.012 609.608 467.805 C 599.85 477.206 587.132 482.881 573.463 482.534 C 561.076 482.219 549.113 476.102 540.675 467.201 C 531.747 457.784 526.468 446.345 522.631 434.103 C 526.231 433.815 529.797 433.61 533.409 433.566 C 533.847 435.172 534.425 436.759 534.998 438.322 C 538.335 447.42 544.717 457.033 553.878 461.037 C 554.243 461.196 554.611 461.347 554.982 461.488 C 555.354 461.63 555.729 461.762 556.108 461.885 C 556.486 462.008 556.867 462.121 557.252 462.225 C 557.636 462.329 558.022 462.423 558.411 462.508 C 558.8 462.593 559.19 462.668 559.582 462.734 C 559.975 462.799 560.368 462.855 560.763 462.901 C 561.158 462.947 561.555 462.983 561.952 463.01 C 562.349 463.037 562.746 463.053 563.144 463.06 C 563.541 463.067 563.939 463.064 564.337 463.051 C 564.734 463.038 565.131 463.015 565.528 462.983 C 565.925 462.95 566.32 462.908 566.714 462.856 C 567.109 462.804 567.502 462.742 567.893 462.67 C 568.284 462.599 568.674 462.518 569.061 462.427 C 569.448 462.336 569.833 462.236 570.216 462.126 C 570.598 462.016 570.977 461.897 571.354 461.768 C 571.731 461.64 572.104 461.502 572.473 461.355 C 581.69 457.738 588.786 449.202 592.724 440.34 C 598.921 426.391 599.088 411.047 593.608 396.901 Z" style="fill: rgb(254, 254, 254);"/>
  <defs/>
  <path d="M 492.547 192.303 C 499.83 189.191 520.624 187.239 529.673 185.999 C 527.885 190.52 525.775 195.227 524.75 199.982 C 519.954 200.598 515.715 201.663 511.176 203.309 C 445.028 218.935 387.395 262.308 348.108 317.093 C 316.984 357.286 297.683 413.723 296.11 464.477 C 295.696 477.81 296.929 491.551 298.62 504.773 C 299.07 508.195 299.557 511.612 300.081 515.024 L 297.933 516.123 C 293.705 501.908 290.325 487.712 288.833 472.929 C 285.253 437.456 292.885 399.937 306.005 367.043 C 306.816 365.045 307.648 363.056 308.501 361.077 C 309.354 359.097 310.229 357.126 311.125 355.165 C 312.02 353.204 312.936 351.252 313.873 349.31 C 314.81 347.369 315.768 345.437 316.746 343.516 C 317.725 341.595 318.724 339.684 319.743 337.784 C 320.762 335.884 321.801 333.995 322.86 332.117 C 323.92 330.24 324.999 328.373 326.098 326.518 C 327.197 324.663 328.316 322.821 329.455 320.99 C 330.594 319.159 331.752 317.341 332.929 315.535 C 334.107 313.728 335.304 311.935 336.519 310.155 C 337.735 308.374 338.97 306.607 340.223 304.852 C 341.476 303.098 342.748 301.357 344.039 299.63 C 345.33 297.903 346.639 296.19 347.966 294.491 C 349.293 292.792 350.638 291.108 352.001 289.437 C 353.364 287.766 354.745 286.111 356.144 284.47 C 357.542 282.829 358.958 281.203 360.391 279.592 C 361.824 277.981 363.275 276.386 364.742 274.807 C 366.209 273.227 367.693 271.663 369.194 270.115 C 370.695 268.567 372.212 267.035 373.745 265.52 C 375.278 264.004 376.828 262.505 378.393 261.022 C 379.958 259.539 381.539 258.074 383.136 256.625 C 384.733 255.176 386.345 253.745 387.972 252.33 C 389.599 250.915 391.241 249.518 392.898 248.139 C 394.555 246.76 396.227 245.398 397.913 244.055 C 399.599 242.711 401.299 241.385 403.013 240.078 C 404.728 238.771 406.456 237.482 408.198 236.211 C 409.94 234.941 411.695 233.689 413.464 232.456 C 415.233 231.223 417.014 230.009 418.809 228.814 C 420.603 227.619 422.41 226.444 424.23 225.287 C 426.049 224.13 427.881 222.993 429.725 221.876 C 431.569 220.759 433.425 219.661 435.292 218.584 C 437.159 217.506 439.038 216.448 440.928 215.411 C 452.292 209.316 464.78 203.762 476.78 199.026 C 481.983 196.973 492.547 192.303 492.547 192.303 Z" style="fill: rgb(86, 178, 47);"/>
  <path d="M343.754 332.542C353.994 318.905 368.777 303.484 386.583 300.93C395.081 299.712 402.473 302.883 409.06 307.959C429.509 323.716 443.266 352.843 452.843 376.305C455.271 372.895 458.487 368.811 462.929 368.206C464.565 367.984 466.132 368.421 467.404 369.476C470.401 371.961 471.438 376.823 471.651 380.508C472.06 387.572 468.774 394.102 464.053 399.16C460.981 402.451 457.376 404.949 453.082 406.364C448.354 404.871 445.032 402.755 441.144 399.702C440.407 399.155 439.728 398.868 438.892 398.503C436.695 396.625 434.052 393.461 431.364 392.506C430.133 390.362 428.236 388.932 426.196 387.6C418.466 379.826 410.36 372.447 402.282 365.036C400.8 363.702 399.365 362.462 397.708 361.348C392.117 357.442 387.178 352.09 381.696 347.878C380.843 347.083 379.873 346.404 378.947 345.694C367.613 338.703 357.541 332.161 343.754 332.542Z" style=""/>
  <path d="M355.431 328.045L354.618 327.68C358.096 320.979 374.37 310.05 381.994 307.587C388.108 305.612 393.797 305.692 399.589 308.618C419.095 318.474 433.843 347.602 443.031 366.818C445.885 372.787 449.272 379.079 451.261 385.397L450.231 386.121C446.135 383.331 436.348 360.768 433.181 354.828Q429.967 348.813 426.191 343.133C419.244 332.853 402.626 314.569 389.835 312.386C376.75 310.153 365.293 321.201 355.431 328.045Z" style="fill: rgb(0, 96, 170);"/>
  <path d="M355.431 328.045C365.293 321.201 376.75 310.153 389.835 312.386C402.626 314.569 419.244 332.853 426.191 343.133Q429.967 348.813 433.181 354.828C436.348 360.768 446.135 383.331 450.231 386.121L451.261 385.397C453.542 384.937 456.756 378.376 458.282 376.393C460.008 374.15 461.565 372.579 464.428 372.176C465.246 372.494 465.721 372.494 466.223 373.274C468.006 376.045 467.554 382.182 466.805 385.245C465.555 390.363 460.513 398.394 455.766 401.016C454.351 401.798 452.871 402.083 451.32 401.491C448.051 400.243 442.168 394.614 439.256 392.213C413.787 371.21 387.605 337.878 355.431 328.045Z" style="fill: rgb(10, 76, 158);"/>
  <defs>
    <linearGradient id="gradient_6" gradientUnits="userSpaceOnUse" x1="528.54913" y1="495.9512" x2="417.172" y2="529.67358">
      <stop offset="0" stop-color="black"/>
      <stop offset="1" stop-color="#191426"/>
    </linearGradient>
  </defs>
  <path d="M406.125 485.708C426.145 492.973 448.439 495.663 469.408 491.539C477.885 489.872 486.471 486.984 495.163 487.049C506.426 487.132 520.563 492.038 528.395 500.325C532.033 504.173 534.451 509.016 534.101 514.412C533.496 523.765 526.139 532.231 519.563 538.254C497.37 554.966 483.31 554.749 456.298 551.41C447.218 549.279 438.564 546.582 430.621 541.564C423.087 536.805 415.743 529.876 413.867 520.802C412.426 513.825 414.462 506.06 418.447 500.276C418.395 500.223 418.343 500.169 418.29 500.116C413.807 495.678 410.023 490.653 406.125 485.708Z" fill="url(#gradient_6)"/>
  <path fill="#D94544" d="M432.673 538.98C441.268 528.231 449.298 522.806 462.344 518.459C466.156 521.136 471.056 519.976 473.247 524.916C472.921 527.092 472.472 528.512 471.339 530.393C471.228 530.578 471.121 530.767 471.009 530.952C470.942 531.064 470.87 531.172 470.801 531.282C469.405 529.084 468.159 528.012 465.568 527.437C458.879 525.953 450.759 529.613 445.315 533.337C442.287 535.409 438.622 538.257 436.432 541.167L432.673 538.98Z"/>
  <path fill="#FE706B" d="M484.42 527.368C490.719 525.39 496.33 524.804 502.475 527.943C506.825 530.165 510.447 534.198 511.852 538.898C511.916 539.111 511.969 539.328 512.028 539.543C509.984 540.853 507.951 542.312 505.792 543.418C503.688 544.439 501.575 545.36 499.369 546.139C478.967 553.339 455.656 550.243 436.432 541.167C438.622 538.257 442.287 535.409 445.315 533.337C450.759 529.613 458.879 525.953 465.568 527.437C468.159 528.012 469.405 529.084 470.801 531.282C470.87 531.172 470.942 531.064 471.009 530.952C471.121 530.767 471.228 530.578 471.339 530.393C472.472 528.512 472.921 527.092 473.247 524.916C473.333 526.822 472.738 531.225 473.694 532.656C473.784 532.791 473.951 532.856 474.08 532.955C477.375 530.243 480.307 528.572 484.42 527.368Z"/>
  <path fill="#FEFEFE" d="M490.503 490.653C499.287 489.377 507.177 492.019 515.149 495.42Q514.331 496.04 513.492 496.63C500.075 506.045 476.062 512.775 459.729 513.324C453.028 513.55 446.477 512.717 439.892 511.555C429.714 508.482 422.515 501.115 416.434 492.64C433.918 496.38 451.241 498.462 469.05 495.35C476.258 494.091 483.299 491.987 490.503 490.653Z"/>
  <path fill="#982E33" d="M518.311 497.032C523.536 500.087 528.285 503.691 529.978 509.832C531.405 515.008 529.672 520.226 526.986 524.677C523.353 530.698 518.015 535.879 512.028 539.543C511.969 539.328 511.916 539.111 511.852 538.898C510.447 534.198 506.825 530.165 502.475 527.943C496.33 524.804 490.719 525.39 484.42 527.368C480.307 528.572 477.375 530.243 474.08 532.955C473.951 532.856 473.784 532.791 473.694 532.656C472.738 531.225 473.333 526.822 473.247 524.916C471.056 519.976 466.156 521.136 462.344 518.459C475.136 514.58 488.334 512.324 500.636 506.881C506.886 504.116 512.341 500.268 518.311 497.032Z"/>
  <path d="M519.182 375.43C527.59 355.898 548.892 331.325 565.569 318.338C576.331 309.958 590.348 301.976 604.513 303.825C629.422 307.075 652.317 330.429 666.74 349.439C645.54 349.232 631.376 351.543 611.111 356.99L610.713 357.622C604.99 357.433 577.527 371.486 571.729 375.359L568.992 376.575C563.353 379.504 548.725 386.706 544.787 390.656C541.896 392.176 539.171 393.996 536.783 396.241C535.176 396.737 521.041 404.817 520.342 405.741L518.663 406.694Q517.506 407.007 516.332 407.251C513.338 407.847 510.126 406.413 507.705 404.722C501.825 400.615 497.584 392.905 496.455 385.922C495.662 381.019 496.109 374.774 499.298 370.725C500.705 368.938 502.577 367.751 504.886 367.652C510.07 367.428 515.461 372.268 519.182 375.43Z" style=""/>
  <path d="M527.783 369.824Q536.618 356.041 547.331 343.662C558.994 329.994 578.75 310.396 597.742 309.257C610.021 308.52 625.33 316.37 634.371 324.159C634.138 324.124 633.904 324.094 633.672 324.053C629.788 323.362 624.995 319.332 621.248 317.632C605.176 310.338 588.498 317.306 574.733 326.228C565.179 332.42 556.402 340.068 548.33 348.086C545.421 350.975 530.17 369.305 527.783 369.824Z" style="fill: rgb(0, 96, 170);"/>
  <path d="M527.783 369.824C530.17 369.305 545.421 350.975 548.33 348.086C556.402 340.068 565.179 332.42 574.733 326.228C588.498 317.306 605.176 310.338 621.248 317.632C624.995 319.332 629.788 323.362 633.672 324.053C633.904 324.094 634.138 324.124 634.371 324.159C641.618 328.163 651.014 337.86 656.942 343.901C613.794 344.521 578.494 363.494 542.691 385.633C533.245 391.474 523.898 399.045 513.822 403.631C507.592 399.108 502.661 393.084 501.405 385.253C500.86 381.855 500.893 375.818 503.258 373.012C503.859 372.3 504.516 372.103 505.364 371.83C508.158 371.989 510.295 373.841 512.099 375.859C514.565 378.617 516.798 381.659 519.093 384.564C521.567 379.77 524.026 373.709 527.783 369.824Z" style="fill: rgb(10, 76, 158);"/>
  <path fill="#FEFEFE" d="M378.947 345.694C379.873 346.404 380.843 347.083 381.696 347.878C387.178 352.09 392.117 357.442 397.708 361.348C399.365 362.462 400.8 363.702 402.282 365.036C410.36 372.447 418.466 379.826 426.196 387.6C428.236 388.932 430.133 390.362 431.364 392.506C434.052 393.461 436.695 396.625 438.892 398.503C439.728 398.868 440.407 399.155 441.144 399.702C441.374 418.798 436.475 436.951 422.821 450.882Q419.966 453.816 416.695 456.278Q413.424 458.739 409.815 460.671C404.042 461.995 400.739 464.428 394.109 464.577C383.253 464.82 372.75 460.003 365.112 452.452C352.65 440.132 346.966 422.673 347.034 405.409C347.116 384.67 354.656 367.353 369.337 352.88C372.229 350.157 375.629 347.863 378.947 345.694Z"/>
  <path fill="#030708" d="M397.708 361.348C399.365 362.462 400.8 363.702 402.282 365.036C393.457 366.991 387.199 371.896 382.397 379.497C375.483 390.442 373.224 406.04 376.132 418.595C378.095 427.073 382.839 435.537 390.33 440.287C394.744 443.087 400.016 444.229 405.15 443.057C413.006 441.263 419.059 434.615 423.071 427.952C428.94 418.206 430.553 403.718 427.865 392.746Q427.225 390.11 426.196 387.6C428.236 388.932 430.133 390.362 431.364 392.506C432.284 403.112 432.46 414.034 428.514 424.103C425.166 432.647 418.87 441.603 410.102 445.161C404.191 447.558 397.273 447.409 391.419 444.921C383.622 441.607 378.219 434.707 375.064 427.033C369.404 413.262 370.261 397.089 376.084 383.533C380.549 373.14 387.164 365.629 397.708 361.348Z"/>
  <path fill="#030708" d="M378.947 345.694C379.873 346.404 380.843 347.083 381.696 347.878C366.453 357.683 356.38 371.083 352.507 389.002C348.54 407.351 350.811 426.736 361.144 442.659C367.105 451.845 376.331 459.729 387.269 462.012C396.432 463.924 405.208 461.104 412.836 456.072C426.158 447.283 434.404 432.572 437.471 417.147C438.685 411.041 439.038 404.72 438.892 398.503C439.728 398.868 440.407 399.155 441.144 399.702C441.374 418.798 436.475 436.951 422.821 450.882Q419.966 453.816 416.695 456.278Q413.424 458.739 409.815 460.671C404.042 461.995 400.739 464.428 394.109 464.577C383.253 464.82 372.75 460.003 365.112 452.452C352.65 440.132 346.966 422.673 347.034 405.409C347.116 384.67 354.656 367.353 369.337 352.88C372.229 350.157 375.629 347.863 378.947 345.694Z"/>
  <path fill="#312828" d="M402.282 365.036C410.36 372.447 418.466 379.826 426.196 387.6Q427.225 390.11 427.865 392.746C430.553 403.718 428.94 418.206 423.071 427.952C419.059 434.615 413.006 441.263 405.15 443.057C400.016 444.229 394.744 443.087 390.33 440.287C382.839 435.537 378.095 427.073 376.132 418.595C373.224 406.04 375.483 390.442 382.397 379.497C387.199 371.896 393.457 366.991 402.282 365.036Z"/>
  <path fill="#FEFEFE" d="M411.774 386.537C413.116 386.397 414.408 386.267 415.725 386.645Q416.259 386.798 416.775 387.003Q417.291 387.208 417.785 387.462Q418.278 387.716 418.745 388.017Q419.211 388.318 419.646 388.663Q420.082 389.008 420.481 389.393Q420.88 389.779 421.24 390.202Q421.6 390.625 421.917 391.081Q422.234 391.536 422.505 392.021C424.747 396.043 425.118 401.306 423.693 405.66C422.217 410.171 419.718 413.018 415.566 415.228C414.279 415.452 413.111 415.613 411.812 415.351C409.166 414.818 406.708 412.995 405.373 410.664C403.047 406.601 402.531 401.031 403.76 396.547C405.082 391.724 407.543 389.017 411.774 386.537Z"/>
  <path d="M 593.559 183.415 L 594.464 183.699 C 599.913 185.376 605.745 186.243 611.296 187.6 C 619.538 189.616 627.779 192.424 635.678 195.52 C 697.968 219.934 748.837 269.261 780.504 327.686 C 781.704 329.876 782.876 332.081 784.02 334.3 C 785.163 336.52 786.278 338.754 787.365 341.003 C 788.451 343.251 789.508 345.513 790.537 347.789 C 791.565 350.064 792.564 352.353 793.534 354.654 C 794.503 356.955 795.443 359.269 796.354 361.594 C 797.264 363.919 798.144 366.256 798.995 368.603 C 799.845 370.951 800.665 373.31 801.455 375.679 C 802.245 378.048 803.004 380.426 803.733 382.815 C 804.462 385.203 805.16 387.6 805.827 390.007 C 806.494 392.413 807.131 394.827 807.736 397.25 C 808.341 399.673 808.915 402.103 809.458 404.54 C 810.001 406.977 810.513 409.421 810.994 411.872 C 811.474 414.323 811.923 416.779 812.34 419.241 C 812.757 421.703 813.143 424.17 813.497 426.641 C 813.851 429.113 814.173 431.589 814.464 434.07 C 814.755 436.55 815.013 439.033 815.24 441.52 C 815.847 448.381 816.905 456.503 816.15 463.342 L 816.958 464.008 C 816.024 464.637 815.013 465.659 813.887 465.623 C 811.211 465.536 810.003 465.787 808.067 467.691 C 806.978 468.762 806.012 469.771 805.914 471.358 C 806.738 472.129 807.467 472.106 808.551 472.229 L 805.44 472.659 C 790.559 471.172 766.5 470.122 754.286 480.042 C 746.953 485.998 743.349 495.289 742.573 504.503 C 742.43 506.232 742.32 507.962 742.243 509.695 C 742.747 512.667 743.019 515.515 745.282 517.719 C 749.106 517.821 752.917 517.042 756.739 516.838 C 766.571 516.312 778.236 516.129 787.951 517.788 C 790.845 518.969 794.535 519.161 797.646 519.221 C 798.264 519.925 798.356 519.749 798.309 520.773 C 797.994 527.708 794.038 537.435 791.801 544.107 C 776.569 589.519 749.234 632.281 712.968 663.764 C 678.342 693.823 640.133 713.516 595.233 723.244 C 587.933 724.825 578.66 727.626 571.218 727.322 C 565.486 728.021 559.737 728.521 553.971 728.822 C 503.203 731.666 455.558 720.223 411.383 695.062 C 403.426 690.53 393.738 685.796 386.9 679.685 C 395.52 682.035 413.644 697.733 421.904 699.205 C 423.95 696.871 425.278 692.168 426.065 689.139 C 423.324 685.55 403.426 678.2 399.508 672.755 C 399.359 672.547 399.222 672.331 399.079 672.118 C 396.116 669.481 392.671 667.228 389.563 664.735 C 383.491 659.842 377.63 654.708 371.981 649.332 C 370.256 647.704 368.554 646.051 366.877 644.374 C 365.2 642.696 363.547 640.994 361.919 639.269 C 360.29 637.544 358.687 635.795 357.11 634.023 C 355.533 632.251 353.982 630.457 352.457 628.64 C 350.932 626.823 349.433 624.985 347.961 623.124 C 346.489 621.263 345.044 619.382 343.627 617.48 C 342.21 615.577 340.82 613.655 339.459 611.712 C 338.097 609.769 336.764 607.808 335.459 605.827 C 334.154 603.845 332.879 601.845 331.633 599.827 C 330.386 597.809 329.169 595.773 327.981 593.719 C 326.794 591.666 325.636 589.595 324.509 587.508 C 323.382 585.421 322.285 583.317 321.218 581.198 C 320.151 579.079 319.116 576.945 318.112 574.796 C 317.107 572.647 316.134 570.484 315.192 568.307 C 314.25 566.13 313.34 563.939 312.462 561.735 C 311.584 559.531 310.738 557.315 309.924 555.087 C 305.232 542.413 301.587 529.131 297.933 516.123 C 297.933 516.123 320.738 545.782 333.98 558.299 C 339.652 563.66 345.789 568.44 351.592 573.637 L 361.101 568.355 C 371.484 562.976 381.312 556.793 391.46 551.008 C 401.159 562.463 410.954 573.836 420.847 585.125 C 426.239 591.374 431.383 598.075 437.158 603.964 C 449.149 596.575 461.314 589.488 473.655 582.701 C 479.346 579.614 485.172 576.263 491.215 573.919 C 507.507 585.409 528.867 592.922 547.759 598.868 C 555.133 600.916 562.523 602.904 569.93 604.831 C 616.545 580.3 654.881 548.997 691.156 510.976 C 691.182 509.668 691.28 508.54 691.804 507.323 C 693.787 502.718 696.879 498.265 699.295 493.846 C 703.199 486.574 706.804 479.157 710.11 471.594 C 717.695 454.01 723.168 434.916 726.581 416.082 C 726.884 414.357 727.165 412.628 727.424 410.896 C 727.683 409.163 727.921 407.428 728.136 405.69 C 728.352 403.951 728.546 402.211 728.718 400.468 C 728.89 398.725 729.04 396.979 729.168 395.232 C 729.296 393.485 729.402 391.737 729.486 389.988 C 729.57 388.238 729.632 386.488 729.672 384.737 C 729.712 382.986 729.73 381.234 729.726 379.482 C 729.722 377.731 729.696 375.979 729.648 374.228 C 729.601 372.477 729.531 370.727 729.439 368.978 C 729.347 367.229 729.233 365.481 729.097 363.735 C 728.961 361.988 728.803 360.244 728.624 358.502 C 728.444 356.759 728.242 355.019 728.019 353.282 C 727.796 351.545 727.55 349.811 727.283 348.08 C 727.016 346.349 726.728 344.621 726.417 342.897 C 726.107 341.173 725.775 339.453 725.421 337.738 C 725.068 336.023 724.692 334.312 724.295 332.605 C 723.899 330.899 723.481 329.198 723.041 327.503 C 722.602 325.807 722.141 324.117 721.66 322.433 C 721.178 320.749 720.675 319.071 720.151 317.4 C 719.627 315.729 719.082 314.064 718.516 312.407 C 717.95 310.749 717.363 309.099 716.756 307.456 C 716.149 305.813 715.521 304.178 714.872 302.551 C 714.224 300.924 713.555 299.305 712.866 297.694 C 712.177 296.084 711.467 294.483 710.738 292.89 C 710.009 291.297 709.259 289.714 708.49 288.141 C 707.721 286.567 706.932 285.003 706.124 283.449 C 705.315 281.895 704.487 280.352 703.64 278.819 C 702.793 277.286 701.926 275.763 701.041 274.252 C 700.156 272.741 699.251 271.241 698.328 269.753 C 697.405 268.264 696.463 266.787 695.502 265.322 C 694.542 263.857 693.563 262.405 692.566 260.965 C 691.569 259.524 690.555 258.097 689.522 256.682 C 682.905 247.771 675.558 239.089 668.114 230.868 C 664.863 227.278 660.124 223.892 657.498 219.908 C 657.332 219.655 657.174 219.397 657.012 219.142 C 654.823 217.588 651.979 216.409 649.578 215.165 C 628.505 203.468 608.603 199.161 585.38 194.243 C 586.744 190.811 591.015 186.222 593.559 183.415 Z" style=""/>
  <path fill="#074EBE" d="M770.481 463.603C775.769 459.36 785.224 463.728 790.703 460.788C796.159 457.86 796.548 449.206 801.514 445.796C802.916 444.834 803.355 444.277 804.117 442.764C804.907 449.339 805.27 455.879 805.74 462.478C801.051 462.875 796.011 462.091 791.269 462.106C784.278 462.127 777.43 462.983 770.481 463.603Z"/>
  <defs>
    <linearGradient id="gradient_7" gradientUnits="userSpaceOnUse" x1="795.34027" y1="397.59641" x2="703.24701" y2="416.71457">
      <stop offset="0" stop-color="#053EA1"/>
      <stop offset="1" stop-color="#096BD2"/>
    </linearGradient>
  </defs>
  <path d="M717.642 262.636C767.875 312.865 795.804 372.426 804.117 442.764C803.355 444.277 802.916 444.834 801.514 445.796C796.548 449.206 796.159 457.86 790.703 460.788C785.224 463.728 775.769 459.36 770.481 463.603C756.941 466.512 747.66 469.297 739.887 481.421C732.64 492.724 728.741 508.672 731.821 521.928C733.75 530.227 739.282 540.204 746.614 544.869C749.758 546.869 753.303 547.81 756.989 546.991C761.089 546.08 764.723 543.428 767.868 540.749L767.66 541.897C765.952 544.125 762.978 546.133 760.56 547.547C756.619 549.851 752.429 550.59 747.988 549.41C740.208 547.343 733.316 540.757 729.274 533.992C721.083 520.284 723.533 506.907 729.997 493.067C731.845 489.11 734.485 484.888 735.49 480.647C735.525 480.498 735.554 480.348 735.586 480.198C747.429 463.57 759.895 447.543 771.271 430.548C770.62 415.974 768.602 401.889 766.121 387.528C760.87 357.142 753.245 328.391 739.587 300.596C733.118 287.431 725.252 275.154 717.642 262.636Z" fill="url(#gradient_7)"/>
  <path fill="#267718" d="M657.012 219.142C663.559 221.909 670.041 225.441 675.581 229.922C681.381 234.614 686.385 240.317 691.258 245.945Q694.921 250.152 698.409 254.506Q701.897 258.86 705.203 263.353Q708.51 267.846 711.629 272.471Q714.748 277.096 717.676 281.845Q720.603 286.594 723.333 291.459Q726.063 296.323 728.592 301.296Q731.12 306.269 733.443 311.341Q735.765 316.413 737.878 321.576C748.531 347.87 755.136 374.975 759.103 403.035C760.255 411.183 760.736 419.406 761.829 427.551Q754.188 438.92 745.927 449.848Q737.666 460.776 728.812 471.228Q719.957 481.68 710.536 491.625Q701.115 501.57 691.156 510.976C691.182 509.668 691.28 508.54 691.804 507.323C693.787 502.718 696.879 498.265 699.295 493.846Q705.151 482.938 710.11 471.594C717.695 454.01 723.168 434.916 726.581 416.082Q727.035 413.494 727.424 410.896Q727.813 408.297 728.136 405.69Q728.46 403.082 728.718 400.468Q728.976 397.853 729.168 395.232Q729.36 392.612 729.486 389.988Q729.612 387.363 729.672 384.737Q729.732 382.11 729.726 379.482Q729.72 376.855 729.648 374.228Q729.577 371.602 729.439 368.978Q729.301 366.354 729.097 363.735Q728.893 361.115 728.624 358.502Q728.354 355.888 728.019 353.282Q727.684 350.676 727.283 348.08Q726.883 345.483 726.417 342.897Q725.952 340.311 725.421 337.738Q724.891 335.165 724.295 332.605Q723.701 330.046 723.041 327.503Q722.382 324.959 721.66 322.433Q720.937 319.907 720.151 317.4Q719.365 314.893 718.516 312.407Q717.667 309.92 716.756 307.456Q715.845 304.991 714.872 302.551Q713.9 300.11 712.866 297.694Q711.832 295.279 710.738 292.89Q709.644 290.501 708.49 288.141Q707.336 285.78 706.124 283.449Q704.911 281.118 703.64 278.819Q702.369 276.519 701.041 274.252Q699.713 271.985 698.328 269.753Q696.943 267.52 695.502 265.322Q694.062 263.125 692.566 260.965Q691.071 258.804 689.522 256.682C682.905 247.771 675.558 239.089 668.114 230.868C664.863 227.278 660.124 223.892 657.498 219.908C657.332 219.655 657.174 219.397 657.012 219.142Z"/>
  <path d="M 569.21 615.619 C 622.527 593.153 670.118 551.079 709.229 509.058 C 692.714 559.115 672.816 599.306 630.952 632.913 C 619.504 642.103 607.481 650.425 594.343 657.022 C 537.751 685.439 473.212 686.833 413.637 666.845 C 408.52 665.129 358.687 635.795 357.11 634.023 C 355.533 632.251 353.982 630.457 352.457 628.64 C 350.932 626.823 349.433 624.985 347.961 623.124 C 346.489 621.263 345.044 619.382 343.627 617.48 C 342.21 615.577 340.82 613.655 339.459 611.712 C 338.097 609.769 336.764 607.808 335.459 605.827 C 334.154 603.845 332.879 601.845 331.633 599.827 C 330.386 597.809 329.169 595.773 327.981 593.719 C 326.794 591.666 325.636 589.595 324.509 587.508 C 323.382 585.421 322.285 583.317 321.218 581.198 C 320.151 579.079 319.116 576.945 318.112 574.796 C 317.107 572.647 316.134 570.484 315.192 568.307 C 314.25 566.13 313.34 563.939 312.462 561.735 C 311.584 559.531 310.738 557.315 309.924 555.087 C 305.232 542.413 301.587 529.131 297.933 516.123 C 297.933 516.123 302.993 527.51 304.79 531.799 C 314.25 554.372 332.018 569.379 350.61 584.353 C 363.712 577.469 376.284 569.382 389.473 562.741 C 398.582 574.207 408.34 585.113 417.896 596.2 C 423.575 602.789 428.906 609.706 434.814 616.09 C 453.6 605.881 470.956 594.885 490.309 585.324 C 494.69 587.844 499.14 590.237 503.659 592.502 C 508.178 594.767 512.758 596.9 517.399 598.903 C 522.04 600.906 526.734 602.774 531.482 604.508 C 536.23 606.241 541.024 607.838 545.863 609.297 C 553.218 611.57 562.367 612.362 569.21 615.619 Z M 357.11 634.023 C 358.687 635.795 327.054 617.762 325.587 615.577 C 324.12 613.392 322.685 611.186 321.281 608.96 C 319.877 606.733 318.505 604.487 317.165 602.222 C 315.825 599.957 314.518 597.673 313.243 595.371 C 311.968 593.068 310.726 590.748 309.517 588.41 C 308.308 586.072 307.133 583.717 305.991 581.346 C 304.849 578.975 303.741 576.588 302.667 574.185 C 301.594 571.782 300.554 569.364 299.549 566.932 C 298.544 564.499 297.574 562.053 296.639 559.593 C 295.704 557.132 294.803 554.659 293.938 552.174 C 293.073 549.688 292.244 547.19 291.45 544.681 C 287.913 533.349 285.385 521.487 282.978 509.865 C 273.447 463.837 279.872 409.16 296.218 365.371 C 298.17 360.187 300.269 355.064 302.515 350.001 C 304.762 344.938 307.152 339.943 309.685 335.017 C 312.218 330.091 314.891 325.242 317.703 320.47 C 320.515 315.697 323.462 311.01 326.543 306.407 C 335.333 293.05 345.411 281.44 356.612 270.052 C 386.337 239.827 420.582 217.573 460.198 202.529 C 470.727 198.531 481.497 194.584 492.547 192.303 C 492.547 192.303 481.983 196.973 476.78 199.026 C 464.78 203.762 452.292 209.316 440.928 215.411 C 439.038 216.448 437.159 217.506 435.292 218.584 C 433.425 219.661 431.569 220.759 429.725 221.876 C 427.881 222.993 426.049 224.13 424.23 225.287 C 422.41 226.444 420.603 227.619 418.809 228.814 C 417.014 230.009 415.233 231.223 413.464 232.456 C 411.695 233.689 409.94 234.941 408.198 236.211 C 406.456 237.482 404.728 238.771 403.013 240.078 C 401.299 241.385 399.599 242.711 397.913 244.055 C 396.227 245.398 394.555 246.76 392.898 248.139 C 391.241 249.518 389.599 250.915 387.972 252.33 C 386.345 253.745 384.733 255.176 383.136 256.625 C 381.539 258.074 379.958 259.539 378.393 261.022 C 376.828 262.505 375.278 264.004 373.745 265.52 C 372.212 267.035 370.695 268.567 369.194 270.115 C 367.693 271.663 366.209 273.227 364.742 274.807 C 363.275 276.386 361.824 277.981 360.391 279.592 C 358.958 281.203 357.542 282.829 356.144 284.47 C 354.745 286.111 353.364 287.766 352.001 289.437 C 350.638 291.108 349.293 292.792 347.966 294.491 C 346.639 296.19 345.33 297.903 344.039 299.63 C 342.748 301.357 341.476 303.098 340.223 304.852 C 338.97 306.607 337.735 308.374 336.519 310.155 C 335.303 311.935 334.106 313.728 332.929 315.535 C 331.752 317.341 330.594 319.159 329.455 320.99 C 328.316 322.821 327.197 324.663 326.098 326.518 C 324.999 328.373 323.92 330.24 322.86 332.117 C 321.801 333.995 320.762 335.884 319.743 337.784 C 318.724 339.684 317.725 341.595 316.746 343.516 C 315.768 345.437 314.81 347.369 313.873 349.31 C 312.936 351.252 312.02 353.204 311.125 355.165 C 310.229 357.126 309.354 359.097 308.501 361.077 C 307.648 363.056 306.816 365.045 306.005 367.043 C 292.885 399.937 285.253 437.456 288.833 472.929 C 290.325 487.712 293.705 501.908 297.933 516.123 C 301.587 529.131 305.232 542.413 309.924 555.087 C 310.738 557.315 311.584 559.531 312.462 561.735 C 313.34 563.939 314.25 566.13 315.192 568.307 C 316.134 570.484 317.107 572.647 318.112 574.796 C 319.116 576.945 320.151 579.079 321.218 581.198 C 322.285 583.317 323.382 585.421 324.509 587.508 C 325.636 589.595 326.794 591.666 327.981 593.719 C 329.169 595.773 330.386 597.809 331.633 599.827 C 332.879 601.845 334.154 603.845 335.459 605.827 C 336.764 607.808 338.097 609.769 339.459 611.712 C 340.82 613.655 342.21 615.577 343.627 617.48 C 345.044 619.382 346.489 621.263 347.961 623.124 C 349.433 624.985 350.932 626.823 352.457 628.64 C 353.982 630.457 355.533 632.251 357.11 634.023 Z" style="fill: rgb(0, 96, 170);"/>
  <defs/>
  <path d="M 709.229 509.058 C 710.573 505.892 731.602 483.93 735.586 480.198 C 735.554 480.348 735.525 480.498 735.49 480.647 C 734.485 484.888 731.845 489.11 729.997 493.067 C 723.533 506.907 721.083 520.284 729.274 533.992 C 733.316 540.757 740.208 547.343 747.988 549.41 C 752.429 550.59 756.619 549.851 760.56 547.547 C 762.978 546.133 765.952 544.125 767.66 541.897 L 767.868 540.749 C 774.799 533.015 781.705 526.227 787.951 517.788 C 790.845 518.969 794.535 519.161 797.646 519.221 C 798.264 519.925 798.356 519.749 798.309 520.773 C 797.994 527.708 794.038 537.435 791.801 544.107 C 776.569 589.519 749.234 632.281 712.968 663.764 C 678.342 693.823 640.133 713.516 595.233 723.244 C 587.933 724.825 578.66 727.626 571.218 727.322 C 565.486 728.021 559.737 728.521 553.971 728.822 C 503.203 731.666 455.558 720.223 411.383 695.062 C 403.426 690.53 372.318 672.48 360.091 660.048 C 341.842 641.492 323.895 612.883 323.895 612.883 C 323.895 612.883 408.52 665.129 413.637 666.845 C 473.212 686.833 537.751 685.439 594.343 657.022 C 607.481 650.425 619.504 642.103 630.952 632.913 C 672.816 599.306 692.714 559.115 709.229 509.058 Z" style="fill: rgb(10, 76, 158);"/>
  <g transform="matrix(1, 0, 0, 1, -3300.928272, -880.521497)">
    <g style="transform-origin: -3676.28px 2554.88px;" transform="matrix(0.95918, 0, 0, 0.95918, 5563.485923, -1447.082907)"/>
  </g>
</svg>